{
.formatVersion = 3;
DisplayStrings = (
"-̀́̂̃̄\r̆̇̈̉̊̋̌\ŗ̨̛̣̦̒̕",
"æe",
"()[]"
);
axes = (
{
name = Weight;
tag = wght;
}
);
familyName = "Trmnl Cubic";
customParameters = (
{
name = glyphOrder;
value = (
.notdef,
space,
exclam,
quotedbl,
numbersign,
dollar,
percent,
ampersand,
quotesingle,
parenleft,
parenright,
asterisk,
plus,
comma,
hyphen,
period,
slash,
zero,
one,
two,
three,
four,
five,
six,
seven,
eight,
nine,
colon,
semicolon,
less,
equal,
greater,
question,
at,
A,
B,
C,
D,
E,
F,
G,
H,
I,
J,
K,
L,
M,
N,
O,
P,
Q,
R,
S,
T,
U,
V,
W,
X,
Y,
Z,
bracketleft,
backslash,
bracketright,
asciicircum,
underscore,
grave,
a,
b,
c,
d,
e,
f,
g,
h,
i,
j,
k,
l,
m,
n,
o,
p,
q,
r,
s,
t,
u,
v,
w,
x,
y,
z,
braceleft,
bar,
braceright,
asciitilde,
exclamdown,
questiondown,
cent,
sterling,
currency,
yen,
brokenbar,
section,
dieresis,
copyright,
ordfeminine,
guillemotleft,
logicalnot,
softhyphen,
registered,
macron,
degree,
plusminus,
twosuperior,
threesuperior,
acute,
mu,
paragraph,
periodcentered,
cedilla,
onesuperior,
ordmasculine,
guillemotright,
onequarter,
onehalf,
threequarters,
minus,
dotlessi,
uni0237,
gravecomb,
acutecomb,
circumflexcomb,
tildecomb,
macroncomb,
brevecomb,
dotaccentcomb,
dieresiscomb,
hookabovecomb,
ringcomb,
hungarumlautcomb,
caroncomb,
commaturnedabovecomb,
commaaboverightcomb,
horncomb,
dotbelowcomb,
commaaccentcomb,
cedillacomb,
ogonekcomb,
Agrave,
Aacute,
Acircumflex,
Atilde,
Adieresis,
Aring,
Ccedilla,
Egrave,
Eacute,
Ecircumflex,
Edieresis,
Igrave,
Iacute,
Icircumflex,
Idieresis,
Ntilde,
Ograve,
Oacute,
Ocircumflex,
Otilde,
Odieresis,
Ugrave,
Uacute,
Ucircumflex,
Udieresis,
Yacute,
agrave,
aacute,
acircumflex,
atilde,
adieresis,
aring,
ccedilla,
egrave,
eacute,
ecircumflex,
edieresis,
igrave,
iacute,
icircumflex,
idieresis,
ntilde,
ograve,
oacute,
ocircumflex,
otilde,
odieresis,
ugrave,
uacute,
ucircumflex,
udieresis,
yacute,
ydieresis,
Amacron,
amacron,
Abreve,
abreve,
Aogonek,
aogonek,
Cacute,
cacute,
Ccircumflex,
ccircumflex,
Cdotaccent,

glyphs = (
{
glyphname = .notdef;
widthMetricsKey = n;
layers = (
{
layerId = "9D159635-77F7-44CC-9E0F-31B3DA2CA598";
name = "#instance";
shapes = (
{
closed = 1;
nodes = (
(80,-100,l),
(1000,-100,l),
(1000,800,l),
(80,800,l)
);
},
{
closed = 1;
nodes = (
(180,-10,l),
(180,710,l),
(900,710,l),
(900,-10,l)
);
},
{
closed = 1;
nodes = (
(889,-71,l),
(960,0,l),
(189,770,l),
(118,700,l)
);
},
{
closed = 1;
nodes = (
(189,-71,l),
(960,700,l),
(889,770,l),
(118,0,l)
);
}
);
width = 1080;
},
{
layerId = "1113A850-F682-47D2-ADE2-EC9FE9EA14FB";
shapes = (
{
closed = 1;
nodes = (
(80,-100,l),
(1000,-100,l),
(1000,800,l),
(80,800,l)
);
},
{
closed = 1;
nodes = (
(180,-10,l),
(180,710,l),
(900,710,l),
(900,-10,l)
);
},
{
closed = 1;
nodes = (
(889,-71,l),
(960,0,l),
(189,770,l),
(118,700,l)
);
},
{
closed = 1;
nodes = (
(189,-71,l),
(960,700,l),
(889,770,l),
(118,0,l)
);
}
);
width = 1080;
},
{
layerId = "E9E5670F-9E32-448B-B4B9-C07C5584615B";
shapes = (
{
closed = 1;
nodes = (
(80,-100,l),
(1000,-100,l),
(1000,800,l),
(80,800,l)
);
},
{
closed = 1;
nodes = (
(180,-10,l),
(180,710,l),
(900,710,l),
(900,-10,l)
);
},
{
closed = 1;
nodes = (
(889,-71,l),
(960,0,l),
(189,770,l),
(118,700,l)
);
},
{
closed = 1;
nodes = (
(189,-71,l),
(960,700,l),
(889,770,l),
(118,0,l)
);
}
);
width = 1080;
}
);
},
{
glyphname = exclam;
widthMetricsKey = n;
layers = (
{
layerId = "1113A850-F682-47D2-ADE2-EC9FE9EA14FB";
shapes = (
{
closed = 1;
locked = 1;
nodes = (
(405,0,l),
(675,0,l),
(675,190,l),
(405,190,l)
);
},
{
closed = 1;
nodes = (
(655,680,l),
(425,680,l),
(425,260,l),
(655,260,l)
);
}
);
width = 1080;
},
{
layerId = "E9E5670F-9E32-448B-B4B9-C07C5584615B";
shapes = (
{
closed = 1;
locked = 1;
nodes = (
(455,0,l),
(625,0,l),
(625,140,l),
(455,140,l)
);
},
{
closed = 1;
nodes = (
(605,680,l),
(475,680,l),
(475,220,l),
(605,220,l)
);
}
);
width = 1080;
}
);
unicode = 33;
},
{
glyphname = quotedbl;
widthMetricsKey = n;
layers = (
{
layerId = "1113A850-F682-47D2-ADE2-EC9FE9EA14FB";
shapes = (
{
closed = 1;
locked = 1;
nodes = (
(230,360,l),
(315,360,l),
(500,545,l),
(500,700,l),
(230,700,l)
);
},
{
closed = 1;
locked = 1;
nodes = (
(580,360,l),
(665,360,l),
(850,545,l),
(850,700,l),
(580,700,l)
);
}
);
width = 1080;
},
{
layerId = "E9E5670F-9E32-448B-B4B9-C07C5584615B";
shapes = (
{
closed = 1;
locked = 1;
nodes = (
(280,360,l),
(315,360,l),
(450,495,l),
(450,700,l),
(280,700,l)
);
},
{
closed = 1;
locked = 1;
nodes = (
(630,360,l),
(665,360,l),
(800,495,l),
(800,700,l),
(630,700,l)
);
}
);
width = 1080;
}
);
unicode = 34;
},
{
glyphname = numbersign;
widthMetricsKey = n;
layers = (
{
layerId = "1113A850-F682-47D2-ADE2-EC9FE9EA14FB";
shapes = (
{
closed = 1;
nodes = (
(334,0,l),
(589,700,l),
(355,700,l),
(100,0,l)
);
},
{
closed = 1;
nodes = (
(725,0,l),
(980,700,l),
(746,700,l),
(491,0,l)
);
},
{
closed = 1;
nodes = (
(1020,420,l),
(1020,570,l),
(130,570,l),
(130,420,l)
);
},
{
closed = 1;
nodes = (
(950,130,l),
(950,280,l),
(60,280,l),
(60,130,l)
);
}
);
width = 1080;
},
{
layerId = "E9E5670F-9E32-448B-B4B9-C07C5584615B";
shapes = (
{
closed = 1;
nodes = (
(304,0,l),
(559,700,l),
(425,700,l),
(170,0,l)
);
},
{
closed = 1;
nodes = (
(655,0,l),
(910,700,l),
(776,700,l),
(521,0,l)
);
},
{
closed = 1;
nodes = (
(1000,440,l),
(1000,550,l),
(170,550,l),
(170,440,l)
);
},
{
closed = 1;
nodes = (
(910,150,l),
(910,260,l),
(80,260,l),
(80,150,l)
);
}
);
width = 1080;
}
);
unicode = 35;
},
{
glyphname = dollar;
widthMetricsKey = n;
layers = (
{
layerId = "1113A850-F682-47D2-ADE2-EC9FE9EA14FB";
shapes = (
{
closed = 1;
nodes = (
(655,780,l),
(425,780,l),
(425,650,l),
(445,650,l),
(445,50,l),
(425,50,l),
(425,-80,l),
(655,-80,l),
(655,50,l),
(635,50,l),
(635,650,l),
(655,650,l)
);
},
{
closed = 1;
locked = 1;
nodes = (
(124,0,l),
(840,0,l),
(1000,160,l),
(1000,285,l),
(850,435,l),
(320,435,l),
(320,540,l),
(980,540,l),
(936,700,l),
(250,700,l),
(90,540,l),
(90,435,l),
(250,275,l),
(770,275,l),
(770,160,l),
(80,160,l)
);
}
);
width = 1080;
},
{
layerId = "E9E5670F-9E32-448B-B4B9-C07C5584615B";
shapes = (
{
closed = 1;
nodes = (
(605,780,l),
(475,780,l),
(475,650,l),
(485,650,l),
(485,50,l),
(475,50,l),
(475,-80,l),
(605,-80,l),
(605,50,l),
(595,50,l),
(595,650,l),
(605,650,l)
);
},
{
closed = 1;
locked = 1;
nodes = (
(144,0,l),
(860,0,l),
(980,120,l),
(980,305,l),
(870,415,l),
(240,415,l),
(240,580,l),
(960,580,l),
(916,700,l),
(230,700,l),
(110,580,l),
(110,415,l),
(230,295,l),
(850,295,l),
(850,120,l),
(100,120,l)
);
}
);
width = 1080;
}
);
unicode = 36;
},
{
glyphname = percent;
widthMetricsKey = n;
layers = (
{
layerId = "9D159635-77F7-44CC-9E0F-31B3DA2CA598";
name = "#instance";
shapes = (
{
closed = 1;
nodes = (
(471,0,l),
(726,700,l),
(609,700,l),
(354,0,l)
);
},
{
closed = 1;
nodes = (
(40,430,l),
(150,320,l),
(322,320,l),
(432,430,l),
(432,590,l),
(322,700,l),
(150,700,l),
(40,590,l)
);
},
{
closed = 1;
nodes = (
(160,430,l),
(160,590,l),
(312,590,l),
(312,430,l)
);
},
{
closed = 1;
nodes = (
(648,110,l),
(758,0,l),
(930,0,l),
(1040,110,l),
(1040,270,l),
(930,380,l),
(758,380,l),
(648,270,l)
);
},
{
closed = 1;
nodes = (
(768,110,l),
(768,270,l),
(920,270,l),
(920,110,l)
);
}
);
width = 1080;
},
{
layerId = "1113A850-F682-47D2-ADE2-EC9FE9EA14FB";
shapes = (
{
closed = 1;
nodes = (
(491,0,l),
(746,700,l),
(589,700,l),
(334,0,l)
);
},
{
closed = 1;
nodes = (
(30,430,l),
(170,290,l),
(312,290,l),
(452,430,l),
(452,560,l),
(312,700,l),
(170,700,l),
(30,560,l)
);
},
{
closed = 1;
nodes = (
(200,430,l),
(200,560,l),
(282,560,l),
(282,430,l)
);
},
{
closed = 1;
nodes = (
(628,140,l),
(768,0,l),
(910,0,l),
(1050,140,l),
(1050,270,l),
(910,410,l),
(768,410,l),
(628,270,l)
);
},
{
closed = 1;
nodes = (
(798,140,l),
(798,270,l),
(880,270,l),
(880,140,l)
);
}
);
width = 1080;
},
{
layerId = "E9E5670F-9E32-448B-B4B9-C07C5584615B";
shapes = (
{
closed = 1;
nodes = (
(471,0,l),
(726,700,l),
(609,700,l),
(354,0,l)
);
},
{
closed = 1;
nodes = (
(40,430,l),
(150,320,l),
(322,320,l),
(432,430,l),
(432,590,l),
(322,700,l),
(150,700,l),
(40,590,l)
);
},
{
closed = 1;
nodes = (
(160,430,l),
(160,590,l),
(312,590,l),
(312,430,l)
);
},
{
closed = 1;
nodes = (
(648,110,l),
(758,0,l),
(930,0,l),
(1040,110,l),
(1040,270,l),
(930,380,l),
(758,380,l),
(648,270,l)
);
},
{
closed = 1;
nodes = (
(768,110,l),
(768,270,l),
(920,270,l),
(920,110,l)
);
}
);
width = 1080;
}
);
unicode = 37;
},
{
glyphname = ampersand;
widthMetricsKey = n;
layers = (
{
layerId = "1113A850-F682-47D2-ADE2-EC9FE9EA14FB";
shapes = (
{
closed = 1;
nodes = (
(1040,270,l),
(1040,430,l),
(175,430,l),
(80,335,l),
(80,120,l),
(200,0,l),
(640,0,l),
(710,70,l),
(710,160,l),
(310,160,l),
(310,270,l)
);
},
{
closed = 1;
nodes = (
(940,420,l),
(710,410,l),
(710,70,l),
(740,70,l),
(740,0,l),
(940,0,l)
);
},
{
closed = 1;
nodes = (
(795,700,l),
(295,700,l),
(175,580,l),
(175,505,l),
(220,460,l),
(220,430,l),
(405,430,l),
(405,550,l),
(850,550,l)
);
}
);
width = 1080;
},
{
layerId = "E9E5670F-9E32-448B-B4B9-C07C5584615B";
shapes = (
{
closed = 1;
nodes = (
(1020,290,l),
(1020,410,l),
(195,410,l),
(100,315,l),
(100,120,l),
(220,0,l),
(720,0,l),
(790,70,l),
(790,120,l),
(230,120,l),
(230,290,l)
);
},
{
closed = 1;
nodes = (
(920,400,l),
(790,390,l),
(790,70,l),
(820,70,l),
(820,0,l),
(920,0,l)
);
},
{
closed = 1;
nodes = (
(810,700,l),
(315,700,l),
(195,580,l),
(195,485,l),
(240,440,l),
(240,410,l),
(325,410,l),
(325,590,l),
(850,590,l)
);
}
);
width = 1080;
}
);
unicode = 38;
},
{
glyphname = quotesingle;
widthMetricsKey = n;
layers = (
{
layerId = "1113A850-F682-47D2-ADE2-EC9FE9EA14FB";
shapes = (
{
closed = 1;
nodes = (
(405,360,l),
(490,360,l),
(675,545,l),
(675,700,l),
(405,700,l)
);
}
);
width = 1080;
},
{
layerId = "E9E5670F-9E32-448B-B4B9-C07C5584615B";
shapes = (
{
closed = 1;
nodes = (
(455,360,l),
(490,360,l),
(625,495,l),
(625,700,l),
(455,700,l)
);
}
);
width = 1080;
}
);
unicode = 39;
},
{
glyphname = parenleft;
widthMetricsKey = n;
layers = (
{
layerId = "9D159635-77F7-44CC-9E0F-31B3DA2CA598";
name = "#instance";
shapes = (
{
closed = 1;
nodes = (
(920,10,l),
(655,106,l),
(655,554,l),
(920,650,l),
(862,810,l),
(585,709,l),
(425,370,l),
(425,290,l),
(585,-49,l),
(862,-150,l)
);
}
);
width = 1080;
},
{
layerId = "1113A850-F682-47D2-ADE2-EC9FE9EA14FB";
shapes = (
{
closed = 1;
nodes = (
(920,10,l),
(655,106,l),
(655,554,l),
(920,650,l),
(862,810,l),
(585,709,l),
(425,370,l),
(425,290,l),
(585,-49,l),
(862,-150,l)
);
}
);
width = 1080;
},
{
layerId = "E9E5670F-9E32-448B-B4B9-C07C5584615B";
shapes = (
{
closed = 1;
nodes = (
(920,-30,l),
(605,85,l),
(605,575,l),
(920,690,l),
(876,810,l),
(595,708,l),
(475,480,l),
(475,180,l),
(595,-48,l),
(876,-150,l)
);
}
);
width = 1080;
}
);
unicode = 40;
},
{
glyphname = parenright;
widthMetricsKey = n;
layers = (
{
layerId = "1113A850-F682-47D2-ADE2-EC9FE9EA14FB";
shapes = (
{
closed = 1;
locked = 1;
nodes = (
(160,10,l),
(425,106,l),
(425,554,l),
(160,650,l),
(218,810,l),
(495,709,l),
(655,370,l),
(655,290,l),
(495,-49,l),
(218,-150,l)
);
}
);
width = 1080;
},
{
layerId = "E9E5670F-9E32-448B-B4B9-C07C5584615B";
shapes = (
{
closed = 1;
locked = 1;
nodes = (
(160,-30,l),
(475,85,l),
(475,575,l),
(160,690,l),
(204,810,l),
(485,708,l),
(605,480,l),
(605,180,l),
(485,-48,l),
(204,-150,l)
);
}
);
width = 1080;
}
);
unicode = 41;
},
{
glyphname = asterisk;
widthMetricsKey = n;
layers = (
{
layerId = "1113A850-F682-47D2-ADE2-EC9FE9EA14FB";
shapes = (
{
closed = 1;
nodes = (
(498,350,l),
(582,350,l),
(651,524,l),
(651,630,l),
(430,630,l),
(430,524,l)
);
},
{
closed = 1;
nodes = (
(574,326,l),
(506,374,l),
(370,300,l),
(207,176,l),
(314,32,l),
(492,173,l)
);
},
{
closed = 1;
nodes = (
(574,377,l),
(506,323,l),
(586,174,l),
(766,32,l),
(872,176,l),
(711,299,l)
);
},
{
closed = 1;
nodes = (
(527,389,l),
(553,311,l),
(751,324,l),
(957,379,l),
(906,543,l),
(684,489,l)
);
},
{
closed = 1;
nodes = (
(527,311,l),
(553,389,l),
(396,488,l),
(174,544,l),
(125,379,l),
(328,324,l)
);
}
);
width = 1080;
},
{
layerId = "E9E5670F-9E32-448B-B4B9-C07C5584615B";
shapes = (
{
closed = 1;
nodes = (
(498,350,l),
(582,350,l),
(605,484,l),
(605,630,l),
(475,630,l),
(475,484,l)
);
},
{
closed = 1;
nodes = (
(574,326,l),
(506,374,l),
(409,290,l),
(243,162,l),
(318,66,l),
(493,203,l)
);
},
{
closed = 1;
nodes = (
(574,377,l),
(506,323,l),
(586,204,l),
(762,66,l),
(836,162,l),
(671,289,l)
);
},
{
closed = 1;
nodes = (
(527,389,l),
(553,311,l),
(687,334,l),
(916,389,l),
(886,503,l),
(648,449,l)
);
},
{
closed = 1;
nodes = (
(527,311,l),
(553,389,l),
(432,448,l),
(194,504,l),
(165,389,l),
(392,334,l)
);
}
);
width = 1080;
}
);
unicode = 42;
},
{
glyphname = plus;
widthMetricsKey = n;
layers = (
{
layerId = "9D159635-77F7-44CC-9E0F-31B3DA2CA598";
name = "#instance";
shapes = (
{
closed = 1;
nodes = (
(940,270,l),
(940,430,l),
(140,430,l),
(140,270,l)
);
},
{
closed = 1;
nodes = (
(655,630,l),
(425,630,l),
(425,70,l),
(655,70,l)
);
}
);
width = 1080;
},
{
layerId = "1113A850-F682-47D2-ADE2-EC9FE9EA14FB";
shapes = (
{
closed = 1;
nodes = (
(940,270,l),
(940,430,l),
(140,430,l),
(140,270,l)
);
},
{
closed = 1;
nodes = (
(655,630,l),
(425,630,l),
(425,70,l),
(655,70,l)
);
}
);
width = 1080;
},
{
layerId = "E9E5670F-9E32-448B-B4B9-C07C5584615B";
shapes = (
{
closed = 1;
nodes = (
(940,290,l),
(940,410,l),
(140,410,l),
(140,290,l)
);
},
{
closed = 1;
nodes = (
(605,630,l),
(475,630,l),
(475,70,l),
(605,70,l)
);
}
);
width = 1080;
}
);
unicode = 43;
},
{
glyphname = comma;
widthMetricsKey = n;
layers = (
{
layerId = "1113A850-F682-47D2-ADE2-EC9FE9EA14FB";
shapes = (
{
closed = 1;
nodes = (
(405,-200,l),
(490,-200,l),
(675,-15,l),
(675,190,l),
(405,190,l)
);
}
);
width = 1080;
},
{
layerId = "E9E5670F-9E32-448B-B4B9-C07C5584615B";
shapes = (
{
closed = 1;
nodes = (
(455,-200,l),
(490,-200,l),
(625,-65,l),
(625,140,l),
(455,140,l)
);
}
);
width = 1080;
}
);
unicode = 44;
},
{
glyphname = hyphen;
widthMetricsKey = n;
layers = (
{
layerId = "1113A850-F682-47D2-ADE2-EC9FE9EA14FB";
shapes = (
{
closed = 1;
nodes = (
(915,270,l),
(915,430,l),
(165,430,l),
(165,270,l)
);
}
);
width = 1080;
},
{
layerId = "E9E5670F-9E32-448B-B4B9-C07C5584615B";
shapes = (
{
closed = 1;
nodes = (
(895,290,l),
(895,410,l),
(185,410,l),
(185,290,l)
);
}
);
width = 1080;
}
);
unicode = 45;
},
{
glyphname = period;
widthMetricsKey = n;
layers = (
{
layerId = "9D159635-77F7-44CC-9E0F-31B3DA2CA598";
name = "#instance";
shapes = (
{
closed = 1;
nodes = (
(455,0,l),
(625,0,l),
(625,140,l),
(455,140,l)
);
}
);
width = 1080;
},
{
layerId = "1113A850-F682-47D2-ADE2-EC9FE9EA14FB";
shapes = (
{
closed = 1;
nodes = (
(405,0,l),
(675,0,l),
(675,190,l),
(405,190,l)
);
}
);
width = 1080;
},
{
layerId = "E9E5670F-9E32-448B-B4B9-C07C5584615B";
shapes = (
{
closed = 1;
nodes = (
(455,0,l),
(625,0,l),
(625,140,l),
(455,140,l)
);
}
);
width = 1080;
}
);
unicode = 46;
},
{
glyphname = slash;
widthMetricsKey = n;
layers = (
{
layerId = "1113A850-F682-47D2-ADE2-EC9FE9EA14FB";
shapes = (
{
closed = 1;
nodes = (
(370,-150,l),
(980,750,l),
(710,750,l),
(100,-150,l)
);
}
);
width = 1080;
},
{
layerId = "E9E5670F-9E32-448B-B4B9-C07C5584615B";
shapes = (
{
closed = 1;
nodes = (
(280,-150,l),
(960,750,l),
(800,750,l),
(120,-150,l)
);
}
);
width = 1080;
}
);
unicode = 47;
},
{
glyphname = zero;
widthMetricsKey = n;
layers = (
{
layerId = "9D159635-77F7-44CC-9E0F-31B3DA2CA598";
name = "#instance";
shapes = (
{
closed = 1;
nodes = (
(120,160,l),
(280,0,l),
(800,0,l),
(960,160,l),
(960,540,l),
(800,700,l),
(280,700,l),
(120,540,l)
);
},
{
closed = 1;
nodes = (
(350,160,l),
(350,540,l),
(730,540,l),
(730,160,l)
);
},
{
closed = 1;
nodes = (
(445,270,l),
(635,270,l),
(635,430,l),
(445,430,l)
);
}
);
width = 1080;
},
{
layerId = "1113A850-F682-47D2-ADE2-EC9FE9EA14FB";
shapes = (
{
closed = 1;
nodes = (
(120,160,l),
(280,0,l),
(800,0,l),
(960,160,l),
(960,540,l),
(800,700,l),
(280,700,l),
(120,540,l)
);
},
{
closed = 1;
nodes = (
(350,160,l),
(350,540,l),
(730,540,l),
(730,160,l)
);
},
{
closed = 1;
nodes = (
(445,270,l),
(635,270,l),
(635,430,l),
(445,430,l)
);
}
);
width = 1080;
},
{
layerId = "E9E5670F-9E32-448B-B4B9-C07C5584615B";
shapes = (
{
closed = 1;
nodes = (
(140,120,l),
(260,0,l),
(820,0,l),
(940,120,l),
(940,580,l),
(820,700,l),
(260,700,l),
(140,580,l)
);
},
{
closed = 1;
nodes = (
(270,120,l),
(270,580,l),
(810,580,l),
(810,120,l)
);
},
{
closed = 1;
nodes = (
(465,290,l),
(615,290,l),
(615,410,l),
(465,410,l)
);
}
);
width = 1080;
}
);
unicode = 48;
},
{
glyphname = one;
widthMetricsKey = n;
layers = (
{
layerId = "9D159635-77F7-44CC-9E0F-31B3DA2CA598";
name = "#instance";
shapes = (
{
closed = 1;
nodes = (
(425,10,l),
(655,10,l),
(655,700,l),
(425,690,l)
);
},
{
closed = 1;
nodes = (
(120,155,l),
(120,0,l),
(960,0,l),
(960,155,l)
);
},
{
closed = 1;
nodes = (
(655,700,l),
(262,700,l),
(90,401,l),
(319,401,l),
(399,540,l),
(645,540,l)
);
}
);
width = 1080;
},
{
layerId = "1113A850-F682-47D2-ADE2-EC9FE9EA14FB";
shapes = (
{
closed = 1;
nodes = (
(425,10,l),
(655,10,l),
(655,700,l),
(425,690,l)
);
},
{
closed = 1;
nodes = (
(120,155,l),
(120,0,l),
(960,0,l),
(960,155,l)
);
},
{
closed = 1;
nodes = (
(655,700,l),
(262,700,l),
(90,401,l),
(319,401,l),
(399,540,l),
(645,540,l)
);
}
);
width = 1080;
},
{
layerId = "E9E5670F-9E32-448B-B4B9-C07C5584615B";
shapes = (
{
closed = 1;
nodes = (
(475,10,l),
(605,10,l),
(605,700,l),
(475,690,l)
);
},
{
closed = 1;
nodes = (
(140,115,l),
(140,0,l),
(940,0,l),
(940,115,l)
);
},
{
closed = 1;
nodes = (
(605,700,l),
(369,700,l),
(110,441,l),
(289,441,l),
(428,580,l),
(595,580,l)
);
}
);
width = 1080;
}
);
unicode = 49;
},
{
glyphname = two;
widthMetricsKey = n;
layers = (
{
layerId = "9D159635-77F7-44CC-9E0F-31B3DA2CA598";
name = "#instance";
shapes = (
{
closed = 1;
nodes = (
(960,0,l),
(960,160,l),
(350,160,l),
(350,270,l),
(790,270,l),
(950,430,l),
(950,540,l),
(790,700,l),
(198,700,l),
(140,540,l),
(720,540,l),
(720,430,l),
(270,430,l),
(120,280,l),
(120,0,l)
);
}
);
width = 1080;
},
{
layerId = "1113A850-F682-47D2-ADE2-EC9FE9EA14FB";
shapes = (
{
closed = 1;
nodes = (
(960,0,l),
(960,160,l),
(350,160,l),
(350,270,l),
(790,270,l),
(950,430,l),
(950,540,l),
(790,700,l),
(198,700,l),
(140,540,l),
(720,540,l),
(720,430,l),
(270,430,l),
(120,280,l),
(120,0,l)
);
}
);
width = 1080;
},
{
layerId = "E9E5670F-9E32-448B-B4B9-C07C5584615B";
shapes = (
{
closed = 1;
nodes = (
(940,0,l),
(940,120,l),
(270,120,l),
(270,275,l),
(810,275,l),
(930,395,l),
(930,580,l),
(810,700,l),
(204,700,l),
(160,580,l),
(800,580,l),
(800,395,l),
(250,395,l),
(140,285,l),
(140,0,l)
);
}
);
width = 1080;
}
);
unicode = 50;
},
{
glyphname = three;
widthMetricsKey = n;
layers = (
{
layerId = "9D159635-77F7-44CC-9E0F-31B3DA2CA598";
name = "#instance";
shapes = (
{
closed = 1;
nodes = (
(180,0,l),
(820,0,l),
(940,120,l),
(940,310,l),
(845,405,l),
(245,405,l),
(245,285,l),
(810,285,l),
(810,120,l),
(140,120,l)
);
},
{
closed = 1;
nodes = (
(180,700,l),
(140,580,l),
(800,580,l),
(800,360,l),
(825,360,l),
(930,465,l),
(930,580,l),
(810,700,l)
);
}
);
width = 1080;
},
{
layerId = "1113A850-F682-47D2-ADE2-EC9FE9EA14FB";
shapes = (
{
closed = 1;
nodes = (
(158,0,l),
(840,0,l),
(960,120,l),
(960,290,l),
(805,425,l),
(225,425,l),
(225,265,l),
(730,265,l),
(730,160,l),
(100,160,l)
);
},
{
closed = 1;
nodes = (
(178,700,l),
(120,540,l),
(720,540,l),
(720,340,l),
(815,340,l),
(950,485,l),
(950,580,l),
(830,700,l)
);
}
);
width = 1080;
},
{
layerId = "E9E5670F-9E32-448B-B4B9-C07C5584615B";
shapes = (
{
closed = 1;
nodes = (
(180,0,l),
(820,0,l),
(940,120,l),
(940,310,l),
(845,405,l),
(245,405,l),
(245,285,l),
(810,285,l),
(810,120,l),
(140,120,l)
);
},
{
closed = 1;
nodes = (
(180,700,l),
(140,580,l),
(800,580,l),
(800,360,l),
(825,360,l),
(930,465,l),
(930,580,l),
(810,700,l)
);
}
);
width = 1080;
}
);
unicode = 51;
},
{
glyphname = four;
widthMetricsKey = n;
layers = (
{
layerId = "9D159635-77F7-44CC-9E0F-31B3DA2CA598";
name = "#instance";
shapes = (
{
closed = 1;
nodes = (
(740,370,l),
(350,370,l),
(350,700,l),
(120,700,l),
(120,370,l),
(280,210,l),
(740,210,l)
);
},
{
closed = 1;
nodes = (
(710,0,l),
(940,0,l),
(940,700,l),
(710,700,l)
);
}
);
width = 1080;
},
{
layerId = "1113A850-F682-47D2-ADE2-EC9FE9EA14FB";
shapes = (
{
closed = 1;
nodes = (
(740,370,l),
(350,370,l),
(350,700,l),
(120,700,l),
(120,370,l),
(280,210,l),
(740,210,l)
);
},
{
closed = 1;
nodes = (
(710,0,l),
(940,0,l),
(940,700,l),
(710,700,l)
);
}
);
width = 1080;
},
{
layerId = "E9E5670F-9E32-448B-B4B9-C07C5584615B";
shapes = (
{
closed = 1;
nodes = (
(820,350,l),
(270,350,l),
(270,700,l),
(140,700,l),
(140,350,l),
(260,230,l),
(820,230,l)
);
},
{
closed = 1;
nodes = (
(790,0,l),
(920,0,l),
(920,700,l),
(790,700,l)
);
}
);
width = 1080;
}
);
unicode = 52;
},
{
glyphname = five;
widthMetricsKey = n;
layers = (
{
layerId = "9D159635-77F7-44CC-9E0F-31B3DA2CA598";
name = "#instance";
shapes = (
{
closed = 1;
nodes = (
(930,700,l),
(230,700,l),
(130,425,l),
(130,305,l),
(810,305,l),
(810,120,l),
(130,120,l),
(174,0,l),
(820,0,l),
(940,120,l),
(940,305,l),
(820,425,l),
(263,425,l),
(319,580,l),
(930,580,l)
);
}
);
width = 1080;
},
{
layerId = "1113A850-F682-47D2-ADE2-EC9FE9EA14FB";
shapes = (
{
closed = 1;
nodes = (
(950,700,l),
(206,700,l),
(110,435,l),
(110,275,l),
(730,275,l),
(730,160,l),
(110,160,l),
(168,0,l),
(800,0,l),
(960,160,l),
(960,275,l),
(800,435,l),
(343,435,l),
(381,540,l),
(950,540,l)
);
}
);
width = 1080;
},
{
layerId = "E9E5670F-9E32-448B-B4B9-C07C5584615B";
shapes = (
{
closed = 1;
nodes = (
(930,700,l),
(230,700,l),
(130,425,l),
(130,305,l),
(810,305,l),
(810,120,l),
(130,120,l),
(174,0,l),
(820,0,l),
(940,120,l),
(940,305,l),
(820,425,l),
(263,425,l),
(319,580,l),
(930,580,l)
);
}
);
width = 1080;
}
);
unicode = 53;
},
{
glyphname = six;
widthMetricsKey = n;
layers = (
{
layerId = "1113A850-F682-47D2-ADE2-EC9FE9EA14FB";
shapes = (
{
closed = 1;
nodes = (
(120,160,l),
(280,0,l),
(350,0,l),
(350,380,l),
(330,380,l),
(330,540,l),
(960,540,l),
(902,700,l),
(280,700,l),
(120,540,l)
);
},
{
closed = 1;
nodes = (
(350,0,l),
(800,0,l),
(960,160,l),
(960,290,l),
(800,450,l),
(420,450,l),
(350,380,l),
(350,290,l),
(730,290,l),
(730,160,l),
(350,160,l)
);
}
);
width = 1080;
},
{
layerId = "E9E5670F-9E32-448B-B4B9-C07C5584615B";
shapes = (
{
closed = 1;
nodes = (
(140,120,l),
(260,0,l),
(270,0,l),
(270,360,l),
(250,360,l),
(250,580,l),
(940,580,l),
(896,700,l),
(260,700,l),
(140,580,l)
);
},
{
closed = 1;
nodes = (
(270,0,l),
(820,0,l),
(940,120,l),
(940,310,l),
(820,430,l),
(340,430,l),
(270,360,l),
(270,310,l),
(810,310,l),
(810,120,l),
(270,120,l)
);
}
);
width = 1080;
}
);
unicode = 54;
},
{
glyphname = seven;
widthMetricsKey = n;
layers = (
{
layerId = "1113A850-F682-47D2-ADE2-EC9FE9EA14FB";
shapes = (
{
closed = 1;
nodes = (
(120,700,l),
(120,530,l),
(730,530,l),
(730,375,l),
(585,375,l),
(425,215,l),
(425,0,l),
(655,0,l),
(655,215,l),
(810,215,l),
(960,365,l),
(960,700,l)
);
}
);
width = 1080;
},
{
layerId = "E9E5670F-9E32-448B-B4B9-C07C5584615B";
shapes = (
{
closed = 1;
nodes = (
(140,700,l),
(140,580,l),
(810,580,l),
(810,375,l),
(595,375,l),
(475,255,l),
(475,0,l),
(605,0,l),
(605,255,l),
(830,255,l),
(940,365,l),
(940,700,l)
);
}
);
width = 1080;
}
);
unicode = 55;
},
{
glyphname = eight;
widthMetricsKey = n;
layers = (
{
guides = (
{
locked = 1;
position = "{0, 750}";
}
);
layerId = "1113A850-F682-47D2-ADE2-EC9FE9EA14FB";
shapes = (
{
closed = 1;
nodes = (
(120,120,l),
(240,0,l),
(840,0,l),
(960,120,l),
(960,315,l),
(845,430,l),
(235,430,l),
(120,315,l)
);
},
{
closed = 1;
nodes = (
(350,160,l),
(350,270,l),
(730,270,l),
(730,160,l)
);
},
{
closed = 1;
nodes = (
(260,420,l),
(445,420,l),
(445,540,l),
(635,540,l),
(635,420,l),
(820,420,l),
(820,460,l),
(865,505,l),
(865,580,l),
(745,700,l),
(335,700,l),
(215,580,l),
(215,505,l),
(260,460,l)
);
}
);
width = 1080;
},
{
guides = (
{
locked = 1;
position = "{0, 750}";
}
);
layerId = "E9E5670F-9E32-448B-B4B9-C07C5584615B";
shapes = (
{
closed = 1;
nodes = (
(140,120,l),
(260,0,l),
(820,0,l),
(940,120,l),
(940,295,l),
(825,410,l),
(255,410,l),
(140,295,l)
);
},
{
closed = 1;
nodes = (
(270,120,l),
(270,290,l),
(810,290,l),
(810,120,l)
);
},
{
closed = 1;
nodes = (
(280,400,l),
(365,400,l),
(365,580,l),
(715,580,l),
(715,400,l),
(800,400,l),
(800,440,l),
(845,485,l),
(845,580,l),
(725,700,l),
(355,700,l),
(235,580,l),
(235,485,l),
(280,440,l)
);
}
);
width = 1080;
}
);
unicode = 56;
},
{
glyphname = nine;
widthMetricsKey = n;
layers = (
{
layerId = "1113A850-F682-47D2-ADE2-EC9FE9EA14FB";
shapes = (
{
closed = 1;
locked = 1;
nodes = (
(960,540,l),
(800,700,l),
(730,700,l),
(730,320,l),
(750,320,l),
(750,160,l),
(120,160,l),
(178,0,l),
(800,0,l),
(960,160,l)
);
},
{
closed = 1;
locked = 1;
nodes = (
(730,700,l),
(280,700,l),
(120,540,l),
(120,410,l),
(280,250,l),
(660,250,l),
(730,320,l),
(730,410,l),
(350,410,l),
(350,540,l),
(730,540,l)
);
}
);
width = 1080;
},
{
layerId = "E9E5670F-9E32-448B-B4B9-C07C5584615B";
shapes = (
{
closed = 1;
locked = 1;
nodes = (
(940,580,l),
(820,700,l),
(810,700,l),
(810,340,l),
(830,340,l),
(830,120,l),
(140,120,l),
(184,0,l),
(820,0,l),
(940,120,l)
);
},
{
closed = 1;
locked = 1;
nodes = (
(810,700,l),
(260,700,l),
(140,580,l),
(140,390,l),
(260,270,l),
(740,270,l),
(810,340,l),
(810,390,l),
(270,390,l),
(270,580,l),
(810,580,l)
);
}
);
width = 1080;
}
);
unicode = 57;
},
{
glyphname = colon;
widthMetricsKey = n;
layers = (
{
layerId = "1113A850-F682-47D2-ADE2-EC9FE9EA14FB";
shapes = (
{
closed = 1;
locked = 1;
nodes = (
(405,0,l),
(675,0,l),
(675,190,l),
(405,190,l)
);
},
{
closed = 1;
locked = 1;
nodes = (
(405,360,l),
(675,360,l),
(675,550,l),
(405,550,l)
);
}
);
width = 1080;
},
{
layerId = "E9E5670F-9E32-448B-B4B9-C07C5584615B";
shapes = (
{
closed = 1;
locked = 1;
nodes = (
(455,0,l),
(625,0,l),
(625,140,l),
(455,140,l)
);
},
{
closed = 1;
locked = 1;
nodes = (
(455,410,l),
(625,410,l),
(625,550,l),
(455,550,l)
);
}
);
width = 1080;
}
);
unicode = 58;
},
{
glyphname = semicolon;
widthMetricsKey = n;
layers = (
{
layerId = "1113A850-F682-47D2-ADE2-EC9FE9EA14FB";
shapes = (
{
closed = 1;
locked = 1;
nodes = (
(405,-200,l),
(490,-200,l),
(675,-15,l),
(675,190,l),
(405,190,l)
);
},
{
closed = 1;
locked = 1;
nodes = (
(405,360,l),
(675,360,l),
(675,550,l),
(405,550,l)
);
}
);
width = 1080;
},
{
layerId = "E9E5670F-9E32-448B-B4B9-C07C5584615B";
shapes = (
{
closed = 1;
locked = 1;
nodes = (
(455,-200,l),
(490,-200,l),
(625,-65,l),
(625,140,l),
(455,140,l)
);
},
{
closed = 1;
locked = 1;
nodes = (
(455,410,l),
(625,410,l),
(625,550,l),
(455,550,l)
);
}
);
width = 1080;
}
);
unicode = 59;
},
{
glyphname = less;
widthMetricsKey = n;
layers = (
{
layerId = "1113A850-F682-47D2-ADE2-EC9FE9EA14FB";
shapes = (
{
closed = 1;
nodes = (
(945,154,l),
(295,304,l),
(295,328,l),
(945,478,l),
(945,682,l),
(135,495,l),
(135,137,l),
(945,-50,l)
);
}
);
width = 1080;
},
{
layerId = "E9E5670F-9E32-448B-B4B9-C07C5584615B";
shapes = (
{
closed = 1;
nodes = (
(905,82,l),
(295,304,l),
(295,328,l),
(905,550,l),
(905,682,l),
(175,416,l),
(175,216,l),
(905,-50,l)
);
}
);
width = 1080;
}
);
unicode = 60;
},
{
glyphname = equal;
widthMetricsKey = n;
layers = (
{
layerId = "1113A850-F682-47D2-ADE2-EC9FE9EA14FB";
shapes = (
{
closed = 1;
nodes = (
(940,410,l),
(940,570,l),
(140,570,l),
(140,410,l)
);
},
{
closed = 1;
nodes = (
(940,130,l),
(940,290,l),
(140,290,l),
(140,130,l)
);
}
);
width = 1080;
},
{
layerId = "E9E5670F-9E32-448B-B4B9-C07C5584615B";
shapes = (
{
closed = 1;
nodes = (
(940,430,l),
(940,550,l),
(140,550,l),
(140,430,l)
);
},
{
closed = 1;
nodes = (
(940,150,l),
(940,270,l),
(140,270,l),
(140,150,l)
);
}
);
width = 1080;
}
);
unicode = 61;
},
{
glyphname = greater;
widthMetricsKey = n;
layers = (
{
layerId = "1113A850-F682-47D2-ADE2-EC9FE9EA14FB";
shapes = (
{
closed = 1;
locked = 1;
nodes = (
(135,154,l),
(785,304,l),
(785,328,l),
(135,478,l),
(135,682,l),
(945,495,l),
(945,137,l),
(135,-50,l)
);
}
);
width = 1080;
},
{
layerId = "E9E5670F-9E32-448B-B4B9-C07C5584615B";
shapes = (
{
closed = 1;
locked = 1;
nodes = (
(175,82,l),
(785,304,l),
(785,328,l),
(175,550,l),
(175,682,l),
(905,416,l),
(905,216,l),
(175,-50,l)
);
}
);
width = 1080;
}
);
unicode = 62;
},
{
glyphname = question;
widthMetricsKey = n;
layers = (
{
layerId = "1113A850-F682-47D2-ADE2-EC9FE9EA14FB";
shapes = (
{
closed = 1;
locked = 1;
nodes = (
(405,0,l),
(675,0,l),
(675,190,l),
(405,190,l)
);
},
{
closed = 1;
nodes = (
(655,250,l),
(655,295,l),
(800,295,l),
(960,455,l),
(960,540,l),
(800,700,l),
(164,700,l),
(120,540,l),
(730,540,l),
(730,455,l),
(575,455,l),
(425,305,l),
(425,250,l)
);
}
);
width = 1080;
},
{
layerId = "E9E5670F-9E32-448B-B4B9-C07C5584615B";
shapes = (
{
closed = 1;
locked = 1;
nodes = (
(455,0,l),
(625,0,l),
(625,140,l),
(455,140,l)
);
},
{
closed = 1;
nodes = (
(605,220,l),
(605,305,l),
(820,305,l),
(940,425,l),
(940,580,l),
(820,700,l),
(184,700,l),
(140,580,l),
(810,580,l),
(810,425,l),
(585,425,l),
(475,315,l),
(475,220,l)
);
}
);
width = 1080;
}
);
unicode = 63;
},
{
glyphname = at;
widthMetricsKey = n;
layers = (
{
layerId = "9D159635-77F7-44CC-9E0F-31B3DA2CA598";
name = "#instance";
shapes = (
{
closed = 1;
nodes = (
(900,80,l),
(1020,200,l),
(1020,630,l),
(900,750,l),
(180,750,l),
(60,630,l),
(60,-30,l),
(180,-150,l),
(890,-150,l),
(934,-30,l),
(190,-30,l),
(190,630,l),
(890,630,l),
(890,200,l),
(780,200,l),
(780,520,l),
(680,520,l),
(680,450,l),
(650,450,l),
(650,200,l),
(650,200,l),
(770,80,l)
);
},
{
closed = 1;
nodes = (
(591,80,l),
(711,200,l),
(430,200,l),
(430,400,l),
(650,400,l),
(650,450,l),
(580,520,l),
(420,520,l),
(300,400,l),
(300,200,l),
(420,80,l)
);
}
);
width = 1080;
},
{
layerId = "1113A850-F682-47D2-ADE2-EC9FE9EA14FB";
shapes = (
{
closed = 1;
nodes = (
(880,80,l),
(1040,240,l),
(1040,590,l),
(880,750,l),
(200,750,l),
(40,590,l),
(40,10,l),
(200,-150,l),
(916,-150,l),
(974,10,l),
(240,10,l),
(240,590,l),
(840,590,l),
(840,240,l),
(780,240,l),
(780,520,l),
(610,520,l),
(610,450,l),
(580,450,l),
(580,240,l),
(580,240,l),
(740,80,l)
);
},
{
closed = 1;
nodes = (
(521,80,l),
(681,240,l),
(500,240,l),
(500,360,l),
(580,360,l),
(580,450,l),
(510,520,l),
(440,520,l),
(300,380,l),
(300,220,l),
(440,80,l)
);
}
);
width = 1080;
},
{
layerId = "E9E5670F-9E32-448B-B4B9-C07C5584615B";
shapes = (
{
closed = 1;
nodes = (
(900,80,l),
(1020,200,l),
(1020,630,l),
(900,750,l),
(180,750,l),
(60,630,l),
(60,-30,l),
(180,-150,l),
(890,-150,l),
(934,-30,l),
(190,-30,l),
(190,630,l),
(890,630,l),
(890,200,l),
(780,200,l),
(780,520,l),
(680,520,l),
(680,450,l),
(650,450,l),
(650,200,l),
(650,200,l),
(770,80,l)
);
},
{
closed = 1;
nodes = (
(591,80,l),
(711,200,l),
(430,200,l),
(430,400,l),
(650,400,l),
(650,450,l),
(580,520,l),
(420,520,l),
(300,400,l),
(300,200,l),
(420,80,l)
);
}
);
width = 1080;
}
);
unicode = 64;
},
{
glyphname = A;
widthMetricsKey = n;
layers = (
{
anchors = (
{
name = top;
position = "{540, 700}";
},
{
name = bottom;
position = "{540, 0}";
},
{
name = bottom2;
position = "{1020, 0}";
}
);
layerId = "1113A850-F682-47D2-ADE2-EC9FE9EA14FB";
shapes = (
{
closed = 1;
nodes = (
(298,0,l),
(495,540,l),
(585,540,l),
(782,0,l),
(1020,0,l),
(765,700,l),
(315,700,l),
(60,0,l)
);
},
{
closed = 1;
nodes = (
(845,150,l),
(845,310,l),
(235,310,l),
(235,150,l)
);
}
);
width = 1080;
},
{
anchors = (
{
name = top;
position = "{540, 700}";
},
{
name = bottom;
position = "{540, 0}";
},
{
name = bottom2;
position = "{1000, 0}";
}
);
layerId = "E9E5670F-9E32-448B-B4B9-C07C5584615B";
shapes = (
{
closed = 1;
nodes = (
(218,0,l),
(429,580,l),
(651,580,l),
(862,0,l),
(1000,0,l),
(745,700,l),
(335,700,l),
(80,0,l)
);
},
{
closed = 1;
nodes = (
(845,190,l),
(845,310,l),
(235,310,l),
(235,190,l)
);
}
);
width = 1080;
}
);
unicode = 65;
},
{
glyphname = B;
widthMetricsKey = n;
layers = (
{
anchors = (
{
name = top;
position = "{540, 700}";
},
{
name = bottom;
position = "{540, 0}";
}
);
layerId = "1113A850-F682-47D2-ADE2-EC9FE9EA14FB";
shapes = (
{
closed = 1;
nodes = (
(380,690,l),
(150,690,l),
(150,0,l),
(380,10,l)
);
},
{
closed = 1;
nodes = (
(150,0,l),
(830,0,l),
(990,160,l),
(990,295,l),
(855,430,l),
(320,430,l),
(320,270,l),
(760,270,l),
(760,160,l),
(160,160,l)
);
},
{
closed = 1;
nodes = (
(50,700,l),
(50,540,l),
(750,540,l),
(750,385,l),
(895,385,l),
(980,470,l),
(980,540,l),
(820,700,l)
);
}
);
width = 1080;
},
{
anchors = (
{
name = top;
position = "{540, 700}";
},
{
name = bottom;
position = "{540, 0}";
}
);
layerId = "E9E5670F-9E32-448B-B4B9-C07C5584615B";
shapes = (
{
closed = 1;
nodes = (
(300,690,l),
(170,690,l),
(170,0,l),
(300,10,l)
);
},
{
closed = 1;
nodes = (
(170,0,l),
(850,0,l),
(970,120,l),
(970,315,l),
(875,410,l),
(240,410,l),
(215,290,l),
(840,290,l),
(840,120,l),
(180,120,l)
);
},
{
closed = 1;
nodes = (
(70,700,l),
(70,580,l),
(830,580,l),
(830,365,l),
(855,365,l),
(960,470,l),
(960,580,l),
(840,700,l)
);
}
);
width = 1080;
}
);
unicode = 66;
},
{
glyphname = C;
widthMetricsKey = n;
layers = (
{
anchors = (
{
name = top;
position = "{540, 700}";
},
{
name = bottom;
position = "{540, 0}";
}
);
layerId = "1113A850-F682-47D2-ADE2-EC9FE9EA14FB";
shapes = (
{
closed = 1;
nodes = (
(990,160,l),
(320,160,l),
(320,540,l),
(990,540,l),
(932,700,l),
(250,700,l),
(90,540,l),
(90,160,l),
(250,0,l),
(932,0,l)
);
}
);
width = 1080;
},
{
anchors = (
{
name = top;
position = "{540, 700}";
},
{
name = bottom;
position = "{540, 0}";
}
);
layerId = "E9E5670F-9E32-448B-B4B9-C07C5584615B";
shapes = (
{
closed = 1;
nodes = (
(970,120,l),
(240,120,l),
(240,580,l),
(970,580,l),
(926,700,l),
(230,700,l),
(110,580,l),
(110,120,l),
(230,0,l),
(926,0,l)
);
}
);
width = 1080;
}
);
unicode = 67;
},
{
glyphname = D;
widthMetricsKey = n;
layers = (
{
anchors = (
{
name = top;
position = "{540, 700}";
},
{
name = bottom;
position = "{540, 0}";
}
);
layerId = "1113A850-F682-47D2-ADE2-EC9FE9EA14FB";
shapes = (
{
closed = 1;
nodes = (
(160,160,l),
(150,0,l),
(830,0,l),
(990,160,l),
(990,540,l),
(830,700,l),
(50,700,l),
(50,540,l),
(760,540,l),
(760,160,l)
);
},
{
closed = 1;
nodes = (
(380,690,l),
(150,690,l),
(150,0,l),
(380,10,l)
);
}
);
width = 1080;
},
{
anchors = (
{
name = top;
position = "{540, 700}";
},
{
name = bottom;
position = "{540, 0}";
}
);
layerId = "E9E5670F-9E32-448B-B4B9-C07C5584615B";
shapes = (
{
closed = 1;
nodes = (
(180,120,l),
(170,0,l),
(850,0,l),
(970,120,l),
(970,580,l),
(850,700,l),
(70,700,l),
(70,580,l),
(840,580,l),
(840,120,l)
);
},
{
closed = 1;
nodes = (
(300,690,l),
(170,690,l),
(170,0,l),
(300,10,l)
);
}
);
width = 1080;
}
);
unicode = 68;
},
{
glyphname = E;
widthMetricsKey = n;
layers = (
{
anchors = (
{
name = top;
position = "{540, 700}";
},
{
name = bottom;
position = "{540, 0}";
},
{
name = bottom2;
position = "{985, 0}";
}
);
layerId = "1113A850-F682-47D2-ADE2-EC9FE9EA14FB";
shapes = (
{
closed = 1;
nodes = (
(985,0,l),
(985,160,l),
(160,160,l),
(150,0,l)
);
},
{
closed = 1;
nodes = (
(380,690,l),
(150,690,l),
(150,0,l),
(380,10,l)
);
},
{
closed = 1;
nodes = (
(985,700,l),
(50,700,l),
(50,540,l),
(985,540,l)
);
},
{
closed = 1;
nodes = (
(935,270,l),
(935,430,l),
(295,430,l),
(295,270,l)
);
}
);
width = 1080;
},
{
anchors = (
{
name = top;
position = "{540, 700}";
},
{
name = bottom;
position = "{540, 0}";
},
{
name = bottom2;
position = "{965, 0}";
}
);
layerId = "E9E5670F-9E32-448B-B4B9-C07C5584615B";
shapes = (
{
closed = 1;
nodes = (
(965,0,l),
(965,120,l),
(180,120,l),
(170,0,l)
);
},
{
closed = 1;
nodes = (
(300,690,l),
(170,690,l),
(170,0,l),
(300,10,l)
);
},
{
closed = 1;
nodes = (
(965,700,l),
(70,700,l),
(70,580,l),
(965,580,l)
);
},
{
closed = 1;
nodes = (
(915,290,l),
(915,410,l),
(215,410,l),
(215,290,l)
);
}
);
width = 1080;
}
);
unicode = 69;
},
{
glyphname = F;
widthMetricsKey = n;
layers = (
{
anchors = (
{
name = top;
position = "{540, 700}";
},
{
name = bottom;
position = "{540, 0}";
}
);
layerId = "9D159635-77F7-44CC-9E0F-31B3DA2CA598";
name = "#instance";
shapes = (
{
closed = 1;
nodes = (
(300,690,l),
(170,690,l),
(170,0,l),
(300,0,l)
);
},
{
closed = 1;
nodes = (
(965,700,l),
(70,700,l),
(70,580,l),
(965,580,l)
);
},
{
closed = 1;
nodes = (
(915,240,l),
(915,360,l),
(215,360,l),
(215,240,l)
);
}
);
width = 1080;
},
{
anchors = (
{
name = top;
position = "{540, 700}";
},
{
name = bottom;
position = "{540, 0}";
}
);
layerId = "1113A850-F682-47D2-ADE2-EC9FE9EA14FB";
shapes = (
{
closed = 1;
nodes = (
(380,690,l),
(150,690,l),
(150,0,l),
(380,0,l)
);
},
{
closed = 1;
nodes = (
(985,700,l),
(50,700,l),
(50,540,l),
(985,540,l)
);
},
{
closed = 1;
nodes = (
(935,220,l),
(935,380,l),
(295,380,l),
(295,220,l)
);
}
);
width = 1080;
},
{
anchors = (
{
name = top;
position = "{540, 700}";
},
{
name = bottom;
position = "{540, 0}";
}
);
layerId = "E9E5670F-9E32-448B-B4B9-C07C5584615B";
shapes = (
{
closed = 1;
nodes = (
(300,690,l),
(170,690,l),
(170,0,l),
(300,0,l)
);
},
{
closed = 1;
nodes = (
(965,700,l),
(70,700,l),
(70,580,l),
(965,580,l)
);
},
{
closed = 1;
nodes = (
(915,240,l),
(915,360,l),
(215,360,l),
(215,240,l)
);
}
);
width = 1080;
}
);
unicode = 70;
},
{
glyphname = G;
widthMetricsKey = n;
layers = (
{
anchors = (
{
name = top;
position = "{540, 700}";
},
{
name = bottom;
position = "{540, 0}";
}
);
layerId = "9D159635-77F7-44CC-9E0F-31B3DA2CA598";
name = "#instance";
shapes = (
{
closed = 1;
nodes = (
(240,120,l),
(240,580,l),
(970,580,l),
(926,700,l),
(230,700,l),
(110,580,l),
(110,120,l),
(230,0,l),
(760,0,l),
(830,70,l),
(830,120,l)
);
},
{
closed = 1;
nodes = (
(940,290,l),
(960,410,l),
(412,410,l),
(412,290,l)
);
},
{
closed = 1;
nodes = (
(960,410,l),
(830,390,l),
(830,70,l),
(860,70,l),
(860,0,l),
(960,0,l)
);
}
);
width = 1080;
},
{
anchors = (
{
name = top;
position = "{540, 700}";
},
{
name = bottom;
position = "{540, 0}";
}
);
layerId = "1113A850-F682-47D2-ADE2-EC9FE9EA14FB";
shapes = (
{
closed = 1;
nodes = (
(320,160,l),
(320,540,l),
(990,540,l),
(932,700,l),
(250,700,l),
(90,540,l),
(90,160,l),
(250,0,l),
(680,0,l),
(750,70,l),
(750,160,l)
);
},
{
closed = 1;
nodes = (
(960,270,l),
(980,430,l),
(472,430,l),
(472,270,l)
);
},
{
closed = 1;
nodes = (
(980,430,l),
(750,410,l),
(750,70,l),
(780,70,l),
(780,0,l),
(980,0,l)
);
}
);
width = 1080;
},
{
anchors = (
{
name = top;
position = "{540, 700}";
},
{
name = bottom;
position = "{540, 0}";
}
);
layerId = "E9E5670F-9E32-448B-B4B9-C07C5584615B";
shapes = (
{
closed = 1;
nodes = (
(240,120,l),
(240,580,l),
(970,580,l),
(926,700,l),
(230,700,l),
(110,580,l),
(110,120,l),
(230,0,l),
(760,0,l),
(830,70,l),
(830,120,l)
);
},
{
closed = 1;
nodes = (
(940,290,l),
(960,410,l),
(412,410,l),
(412,290,l)
);
},
{
closed = 1;
nodes = (
(960,410,l),
(830,390,l),
(830,70,l),
(860,70,l),
(860,0,l),
(960,0,l)
);
}
);
width = 1080;
}
);
unicode = 71;
},
{
glyphname = H;
widthMetricsKey = n;
layers = (
{
anchors = (
{
name = top;
position = "{540, 700}";
},
{
name = bottom;
position = "{540, 0}";
}
);
layerId = "9D159635-77F7-44CC-9E0F-31B3DA2CA598";
name = "#instance";
shapes = (
{
closed = 1;
nodes = (
(250,700,l),
(120,700,l),
(120,0,l),
(250,0,l)
);
},
{
closed = 1;
nodes = (
(960,700,l),
(830,700,l),
(830,0,l),
(960,0,l)
);
},
{
closed = 1;
nodes = (
(895,290,l),
(895,410,l),
(185,410,l),
(185,290,l)
);
}
);
width = 1080;
},
{
anchors = (
{
name = top;
position = "{540, 700}";
},
{
name = bottom;
position = "{540, 0}";
}
);
layerId = "1113A850-F682-47D2-ADE2-EC9FE9EA14FB";
shapes = (
{
closed = 1;
nodes = (
(330,700,l),
(100,700,l),
(100,0,l),
(330,0,l)
);
},
{
closed = 1;
nodes = (
(980,700,l),
(750,700,l),
(750,0,l),
(980,0,l)
);
},
{
closed = 1;
nodes = (
(815,270,l),
(815,430,l),
(265,430,l),
(265,270,l)
);
}
);
width = 1080;
},
{
anchors = (
{
name = top;
position = "{540, 700}";
},
{
name = bottom;
position = "{540, 0}";
}
);
layerId = "E9E5670F-9E32-448B-B4B9-C07C5584615B";
shapes = (
{
closed = 1;
nodes = (
(250,700,l),
(120,700,l),
(120,0,l),
(250,0,l)
);
},
{
closed = 1;
nodes = (
(960,700,l),
(830,700,l),
(830,0,l),
(960,0,l)
);
},
{
closed = 1;
nodes = (
(895,290,l),
(895,410,l),
(185,410,l),
(185,290,l)
);
}
);
width = 1080;
}
);
unicode = 72;
},
{
glyphname = I;
widthMetricsKey = n;
layers = (
{
anchors = (
{
name = top;
position = "{540, 700}";
},
{
name = bottom;
position = "{540, 0}";
},
{
name = bottom2;
position = "{675, 0}";
}
);
layerId = "1113A850-F682-47D2-ADE2-EC9FE9EA14FB";
shapes = (
{
closed = 1;
nodes = (
(655,680,l),
(425,680,l),
(425,20,l),
(655,20,l)
);
},
{
closed = 1;
nodes = (
(960,0,l),
(960,160,l),
(120,160,l),
(120,0,l)
);
},
{
closed = 1;
nodes = (
(960,540,l),
(960,700,l),
(120,700,l),
(120,540,l)
);
}
);
width = 1080;
},
{
anchors = (
{
name = top;
position = "{540, 700}";
},
{
name = bottom;
position = "{540, 0}";
},
{
name = bottom2;
position = "{605, 0}";
}
);
layerId = "E9E5670F-9E32-448B-B4B9-C07C5584615B";
shapes = (
{
closed = 1;
nodes = (
(605,680,l),
(475,680,l),
(475,20,l),
(605,20,l)
);
},
{
closed = 1;
nodes = (
(940,0,l),
(940,120,l),
(140,120,l),
(140,0,l)
);
},
{
closed = 1;
nodes = (
(940,580,l),
(940,700,l),
(140,700,l),
(140,580,l)
);
}
);
width = 1080;
}
);
unicode = 73;
},
{
glyphname = J;
widthMetricsKey = n;
layers = (
{
anchors = (
{
name = top;
position = "{540, 700}";
},
{
name = bottom;
position = "{540, 0}";
}
);
layerId = "9D159635-77F7-44CC-9E0F-31B3DA2CA598";
name = "#instance";
shapes = (
{
closed = 1;
nodes = (
(940,585,l),
(940,700,l),
(140,700,l),
(140,585,l)
);
},
{
closed = 1;
nodes = (
(565,690,l),
(565,120,l),
(95,120,l),
(139,0,l),
(575,0,l),
(695,120,l),
(695,690,l)
);
}
);
width = 1080;
},
{
anchors = (
{
name = top;
position = "{540, 700}";
},
{
name = bottom;
position = "{540, 0}";
}
);
layerId = "1113A850-F682-47D2-ADE2-EC9FE9EA14FB";
shapes = (
{
closed = 1;
nodes = (
(960,540,l),
(960,700,l),
(120,700,l),
(120,540,l)
);
},
{
closed = 1;
nodes = (
(515,690,l),
(515,160,l),
(75,160,l),
(133,0,l),
(585,0,l),
(745,160,l),
(745,690,l)
);
}
);
width = 1080;
},
{
anchors = (
{
name = top;
position = "{540, 700}";
},
{
name = bottom;
position = "{540, 0}";
}
);
layerId = "E9E5670F-9E32-448B-B4B9-C07C5584615B";
shapes = (
{
closed = 1;
nodes = (
(940,585,l),
(940,700,l),
(140,700,l),
(140,585,l)
);
},
{
closed = 1;
nodes = (
(565,690,l),
(565,120,l),
(95,120,l),
(139,0,l),
(575,0,l),
(695,120,l),
(695,690,l)
);
}
);
width = 1080;
}
);
unicode = 74;
},
{
glyphname = K;
widthMetricsKey = n;
layers = (
{
anchors = (
{
name = top;
position = "{540, 700}";
},
{
name = bottom;
position = "{540, 0}";
}
);
layerId = "9D159635-77F7-44CC-9E0F-31B3DA2CA598";
name = "#instance";
shapes = (
{
closed = 1;
nodes = (
(227,293,l),
(524,293,l),
(817,0,l),
(1000,0,l),
(629,371,l),
(629,339,l),
(990,700,l),
(807,700,l),
(514,407,l),
(227,407,l)
);
},
{
closed = 1;
nodes = (
(120,700,l),
(120,0,l),
(250,0,l),
(250,700,l)
);
}
);
width = 1080;
},
{
anchors = (
{
name = top;
position = "{540, 700}";
},
{
name = bottom;
position = "{540, 0}";
}
);
layerId = "1113A850-F682-47D2-ADE2-EC9FE9EA14FB";
shapes = (
{
closed = 1;
nodes = (
(307,273,l),
(464,273,l),
(737,0,l),
(1020,0,l),
(649,371,l),
(649,339,l),
(1010,700,l),
(727,700,l),
(454,427,l),
(307,427,l)
);
},
{
closed = 1;
nodes = (
(100,700,l),
(100,0,l),
(330,0,l),
(330,700,l)
);
}
);
width = 1080;
},
{
anchors = (
{
name = top;
position = "{540, 700}";
},
{
name = bottom;
position = "{540, 0}";
}
);
layerId = "E9E5670F-9E32-448B-B4B9-C07C5584615B";
shapes = (
{
closed = 1;
nodes = (
(227,293,l),
(524,293,l),
(817,0,l),
(1000,0,l),
(629,371,l),
(629,339,l),
(990,700,l),
(807,700,l),
(514,407,l),
(227,407,l)
);
},
{
closed = 1;
nodes = (
(120,700,l),
(120,0,l),
(250,0,l),
(250,700,l)
);
}
);
width = 1080;
}
);
unicode = 75;
},
{
glyphname = L;
widthMetricsKey = n;
layers = (
{
anchors = (
{
name = top;
position = "{315, 700}";
},
{
name = bottom;
position = "{540, 0}";
},
{
name = top3;
position = "{560, 450}";
},
{
name = center;
position = "{725, 375}";
}
);
layerId = "1113A850-F682-47D2-ADE2-EC9FE9EA14FB";
shapes = (
{
closed = 1;
nodes = (
(985,0,l),
(985,160,l),
(200,160,l),
(190,0,l)
);
},
{
closed = 1;
nodes = (
(420,700,l),
(190,690,l),
(190,0,l),
(420,10,l)
);
},
{
closed = 1;
nodes = (
(410,540,l),
(420,700,l),
(50,700,l),
(50,540,l)
);
}
);
width = 1080;
},
{
anchors = (
{
name = top;
position = "{540, 700}";
},
{
name = bottom;
position = "{540, 0}";
},
{
name = top3;
position = "{500, 450}";
},
{
name = center;
position = "{665, 375}";
}
);
layerId = "E9E5670F-9E32-448B-B4B9-C07C5584615B";
shapes = (
{
closed = 1;
nodes = (
(965,0,l),
(965,120,l),
(210,120,l),
(200,0,l)
);
},
{
closed = 1;
nodes = (
(330,700,l),
(200,690,l),
(200,0,l),
(330,10,l)
);
},
{
closed = 1;
nodes = (
(320,580,l),
(330,700,l),
(70,700,l),
(70,580,l)
);
}
);
width = 1080;
}
);
unicode = 76;
},
{
glyphname = M;
widthMetricsKey = n;
layers = (
{
anchors = (
{
name = top;
position = "{540, 700}";
},
{
name = bottom;
position = "{540, 0}";
}
);
layerId = "1113A850-F682-47D2-ADE2-EC9FE9EA14FB";
shapes = (
{
closed = 1;
nodes = (
(371,0,l),
(699,0,l),
(770,540,l),
(1000,540,l),
(1010,700,l),
(602,700,l),
(547,150,l),
(523,150,l),
(468,700,l),
(70,700,l),
(80,540,l),
(300,540,l)
);
},
{
closed = 1;
nodes = (
(260,690,l),
(70,700,l),
(70,0,l),
(260,0,l)
);
},
{
closed = 1;
nodes = (
(820,690,l),
(820,0,l),
(1010,0,l),
(1010,700,l)
);
}
);
width = 1080;
},
{
anchors = (
{
name = top;
position = "{540, 700}";
},
{
name = bottom;
position = "{540, 0}";
}
);
layerId = "E9E5670F-9E32-448B-B4B9-C07C5584615B";
shapes = (
{
closed = 1;
nodes = (
(391,0,l),
(689,0,l),
(770,580,l),
(980,580,l),
(990,700,l),
(662,700,l),
(577,110,l),
(503,110,l),
(418,700,l),
(90,700,l),
(100,580,l),
(310,580,l)
);
},
{
closed = 1;
nodes = (
(220,690,l),
(90,700,l),
(90,0,l),
(220,0,l)
);
},
{
closed = 1;
nodes = (
(860,690,l),
(860,0,l),
(990,0,l),
(990,700,l)
);
}
);
width = 1080;
}
);
unicode = 77;
},
{
glyphname = N;
widthMetricsKey = n;
layers = (
{
anchors = (
{
name = top;
position = "{540, 700}";
},
{
name = bottom;
position = "{540, 0}";
}
);
layerId = "1113A850-F682-47D2-ADE2-EC9FE9EA14FB";
shapes = (
{
closed = 1;
nodes = (
(559,0,l),
(980,0,l),
(970,160,l),
(718,160,l),
(521,700,l),
(100,700,l),
(110,540,l),
(362,540,l)
);
},
{
closed = 1;
nodes = (
(330,690,l),
(100,700,l),
(100,0,l),
(330,0,l)
);
},
{
closed = 1;
nodes = (
(980,700,l),
(750,700,l),
(750,10,l),
(980,0,l)
);
}
);
width = 1080;
},
{
anchors = (
{
name = top;
position = "{540, 700}";
},
{
name = bottom;
position = "{540, 0}";
}
);
layerId = "E9E5670F-9E32-448B-B4B9-C07C5584615B";
shapes = (
{
closed = 1;
nodes = (
(599,0,l),
(960,0,l),
(950,110,l),
(696,110,l),
(481,700,l),
(120,700,l),
(130,580,l),
(388,580,l)
);
},
{
closed = 1;
nodes = (
(250,690,l),
(120,700,l),
(120,0,l),
(250,0,l)
);
},
{
closed = 1;
nodes = (
(960,700,l),
(830,700,l),
(830,10,l),
(960,0,l)
);
}
);
width = 1080;
}
);
unicode = 78;
},
{
glyphname = O;
widthMetricsKey = n;
layers = (
{
anchors = (
{
name = top;
position = "{540, 700}";
},
{
name = bottom;
position = "{540, 0}";
},
{
name = top2;
position = "{750, 700}";
}
);
layerId = "1113A850-F682-47D2-ADE2-EC9FE9EA14FB";
shapes = (
{
closed = 1;
nodes = (
(90,160,l),
(250,0,l),
(830,0,l),
(990,160,l),
(990,540,l),
(830,700,l),
(250,700,l),
(90,540,l)
);
},
{
closed = 1;
nodes = (
(320,160,l),
(320,540,l),
(760,540,l),
(760,160,l)
);
}
);
width = 1080;
},
{
anchors = (
{
name = top;
position = "{540, 700}";
},
{
name = bottom;
position = "{540, 0}";
},
{
name = top2;
position = "{840, 700}";
}
);
layerId = "E9E5670F-9E32-448B-B4B9-C07C5584615B";
shapes = (
{
closed = 1;
nodes = (
(110,120,l),
(230,0,l),
(850,0,l),
(970,120,l),
(970,580,l),
(850,700,l),
(230,700,l),
(110,580,l)
);
},
{
closed = 1;
nodes = (
(240,120,l),
(240,580,l),
(840,580,l),
(840,120,l)
);
}
);
width = 1080;
}
);
unicode = 79;
},
{
glyphname = P;
widthMetricsKey = n;
layers = (
{
anchors = (
{
name = top;
position = "{540, 700}";
},
{
name = bottom;
position = "{540, 0}";
}
);
layerId = "1113A850-F682-47D2-ADE2-EC9FE9EA14FB";
shapes = (
{
closed = 1;
nodes = (
(350,380,l),
(350,220,l),
(830,220,l),
(990,380,l),
(990,540,l),
(830,700,l),
(50,700,l),
(50,540,l),
(760,540,l),
(760,380,l)
);
},
{
closed = 1;
nodes = (
(380,690,l),
(150,690,l),
(150,0,l),
(380,0,l)
);
}
);
width = 1080;
},
{
anchors = (
{
name = top;
position = "{540, 700}";
},
{
name = bottom;
position = "{540, 0}";
}
);
layerId = "E9E5670F-9E32-448B-B4B9-C07C5584615B";
shapes = (
{
closed = 1;
nodes = (
(180,360,l),
(180,240,l),
(850,240,l),
(970,360,l),
(970,580,l),
(850,700,l),
(70,700,l),
(70,580,l),
(840,580,l),
(840,360,l)
);
},
{
closed = 1;
nodes = (
(300,690,l),
(170,690,l),
(170,0,l),
(300,0,l)
);
}
);
width = 1080;
}
);
unicode = 80;
},
{
glyphname = Q;
widthMetricsKey = n;
layers = (
{
anchors = (
{
name = top;
position = "{540, 700}";
},
{
name = bottom;
position = "{540, 0}";
}
);
layerId = "1113A850-F682-47D2-ADE2-EC9FE9EA14FB";
shapes = (
{
closed = 1;
nodes = (
(90,160,l),
(250,0,l),
(830,0,l),
(990,160,l),
(990,540,l),
(830,700,l),
(250,700,l),
(90,540,l)
);
},
{
closed = 1;
nodes = (
(320,160,l),
(320,540,l),
(760,540,l),
(760,160,l)
);
},
{
closed = 1;
nodes = (
(655,325,l),
(425,325,l),
(425,-150,l),
(655,-150,l)
);
}
);
width = 1080;
},
{
anchors = (
{
name = top;
position = "{540, 700}";
},
{
name = bottom;
position = "{540, 0}";
}
);
layerId = "E9E5670F-9E32-448B-B4B9-C07C5584615B";
shapes = (
{
closed = 1;
nodes = (
(110,120,l),
(230,0,l),
(850,0,l),
(970,120,l),
(970,580,l),
(850,700,l),
(230,700,l),
(110,580,l)
);
},
{
closed = 1;
nodes = (
(240,120,l),
(240,580,l),
(840,580,l),
(840,120,l)
);
},
{
closed = 1;
nodes = (
(605,325,l),
(475,325,l),
(475,-150,l),
(605,-150,l)
);
}
);
width = 1080;
}
);
unicode = 81;
},
{
glyphname = R;
widthMetricsKey = n;
layers = (
{
anchors = (
{
name = top;
position = "{540, 700}";
},
{
name = bottom;
position = "{540, 0}";
}
);
layerId = "9D159635-77F7-44CC-9E0F-31B3DA2CA598";
name = "#instance";
shapes = (
{
closed = 1;
nodes = (
(300,690,l),
(170,690,l),
(170,0,l),
(300,0,l)
);
},
{
closed = 1;
nodes = (
(70,700,l),
(70,580,l),
(815,580,l),
(815,320,l),
(830,320,l),
(945,435,l),
(945,580,l),
(825,700,l)
);
},
{
closed = 1;
nodes = (
(840,0,l),
(970,0,l),
(970,240,l),
(850,360,l),
(270,360,l),
(270,240,l),
(840,240,l)
);
}
);
width = 1080;
},
{
anchors = (
{
name = top;
position = "{540, 700}";
},
{
name = bottom;
position = "{540, 0}";
}
);
layerId = "1113A850-F682-47D2-ADE2-EC9FE9EA14FB";
shapes = (
{
closed = 1;
nodes = (
(380,690,l),
(150,690,l),
(150,0,l),
(380,0,l)
);
},
{
closed = 1;
nodes = (
(50,700,l),
(50,540,l),
(735,540,l),
(735,300,l),
(830,300,l),
(965,435,l),
(965,540,l),
(805,700,l)
);
},
{
closed = 1;
nodes = (
(760,0,l),
(990,0,l),
(990,220,l),
(830,380,l),
(350,380,l),
(350,220,l),
(760,220,l)
);
}
);
width = 1080;
},
{
anchors = (
{
name = top;
position = "{540, 700}";
},
{
name = bottom;
position = "{540, 0}";
}
);
layerId = "E9E5670F-9E32-448B-B4B9-C07C5584615B";
shapes = (
{
closed = 1;
nodes = (
(300,690,l),
(170,690,l),
(170,0,l),
(300,0,l)
);
},
{
closed = 1;
nodes = (
(70,700,l),
(70,580,l),
(815,580,l),
(815,320,l),
(830,320,l),
(945,435,l),
(945,580,l),
(825,700,l)
);
},
{
closed = 1;
nodes = (
(840,0,l),
(970,0,l),
(970,240,l),
(850,360,l),
(270,360,l),
(270,240,l),
(840,240,l)
);
}
);
width = 1080;
}
);
unicode = 82;
},
{
glyphname = S;
widthMetricsKey = n;
layers = (
{
anchors = (
{
name = top;
position = "{540, 700}";
},
{
name = bottom;
position = "{540, 0}";
}
);
layerId = "9D159635-77F7-44CC-9E0F-31B3DA2CA598";
name = "#instance";
shapes = (
{
closed = 1;
nodes = (
(144,0,l),
(860,0,l),
(980,120,l),
(980,305,l),
(870,415,l),
(240,415,l),
(240,580,l),
(960,580,l),
(916,700,l),
(230,700,l),
(110,580,l),
(110,415,l),
(230,295,l),
(850,295,l),
(850,120,l),
(100,120,l)
);
}
);
width = 1080;
},
{
anchors = (
{
name = top;
position = "{540, 700}";
},
{
name = bottom;
position = "{540, 0}";
}
);
layerId = "1113A850-F682-47D2-ADE2-EC9FE9EA14FB";
shapes = (
{
closed = 1;
nodes = (
(124,0,l),
(840,0,l),
(1000,160,l),
(1000,285,l),
(850,435,l),
(320,435,l),
(320,540,l),
(980,540,l),
(936,700,l),
(250,700,l),
(90,540,l),
(90,435,l),
(250,275,l),
(770,275,l),
(770,160,l),
(80,160,l)
);
}
);
width = 1080;
},
{
anchors = (
{
name = top;
position = "{540, 700}";
},
{
name = bottom;
position = "{540, 0}";
}
);
layerId = "E9E5670F-9E32-448B-B4B9-C07C5584615B";
shapes = (
{
closed = 1;
nodes = (
(144,0,l),
(860,0,l),
(980,120,l),
(980,305,l),
(870,415,l),
(240,415,l),
(240,580,l),
(960,580,l),
(916,700,l),
(230,700,l),
(110,580,l),
(110,415,l),
(230,295,l),
(850,295,l),
(850,120,l),
(100,120,l)
);
}
);
width = 1080;
}
);
unicode = 83;
},
{
glyphname = T;
widthMetricsKey = n;
layers = (
{
anchors = (
{
name = top;
position = "{540, 700}";
},
{
name = bottom;
position = "{540, 0}";
}
);
layerId = "9D159635-77F7-44CC-9E0F-31B3DA2CA598";
name = "#instance";
shapes = (
{
closed = 1;
nodes = (
(605,680,l),
(475,680,l),
(475,20,l),
(605,20,l)
);
},
{
closed = 1;
nodes = (
(995,580,l),
(995,700,l),
(85,700,l),
(85,580,l)
);
}
);
width = 1080;
},
{
anchors = (
{
name = top;
position = "{540, 700}";
},
{
name = bottom;
position = "{540, 0}";
}
);
layerId = "1113A850-F682-47D2-ADE2-EC9FE9EA14FB";
shapes = (
{
closed = 1;
nodes = (
(655,680,l),
(425,680,l),
(425,20,l),
(655,20,l)
);
},
{
closed = 1;
nodes = (
(1005,540,l),
(1005,700,l),
(75,700,l),
(75,540,l)
);
}
);
width = 1080;
},
{
anchors = (
{
name = top;
position = "{540, 700}";
},
{
name = bottom;
position = "{540, 0}";
}
);
layerId = "E9E5670F-9E32-448B-B4B9-C07C5584615B";
shapes = (
{
closed = 1;
nodes = (
(605,680,l),
(475,680,l),
(475,20,l),
(605,20,l)
);
},
{
closed = 1;
nodes = (
(995,580,l),
(995,700,l),
(85,700,l),
(85,580,l)
);
}
);
width = 1080;
}
);
unicode = 84;
},
{
glyphname = U;
widthMetricsKey = n;
layers = (
{
anchors = (
{
name = top;
position = "{540, 700}";
},
{
name = bottom;
position = "{540, 0}";
},
{
name = top2;
position = "{750, 700}";
},
{
name = bottom2;
position = "{692, 0}";
}
);
layerId = "1113A850-F682-47D2-ADE2-EC9FE9EA14FB";
shapes = (
{
closed = 1;
nodes = (
(750,700,l),
(750,160,l),
(330,160,l),
(330,700,l),
(100,700,l),
(100,160,l),
(260,0,l),
(820,0,l),
(980,160,l),
(980,700,l)
);
}
);
width = 1080;
},
{
anchors = (
{
name = top;
position = "{540, 700}";
},
{
name = bottom;
position = "{540, 0}";
},
{
name = top2;
position = "{830, 700}";
},
{
name = bottom2;
position = "{652, 0}";
}
);
layerId = "E9E5670F-9E32-448B-B4B9-C07C5584615B";
shapes = (
{
closed = 1;
nodes = (
(830,700,l),
(830,120,l),
(250,120,l),
(250,700,l),
(120,700,l),
(120,120,l),
(240,0,l),
(840,0,l),
(960,120,l),
(960,700,l)
);
}
);
width = 1080;
}
);
unicode = 85;
},
{
glyphname = V;
widthMetricsKey = n;
layers = (
{
anchors = (
{
name = top;
position = "{540, 700}";
},
{
name = bottom;
position = "{540, 0}";
}
);
layerId = "9D159635-77F7-44CC-9E0F-31B3DA2CA598";
name = "#instance";
shapes = (
{
closed = 1;
nodes = (
(218,700,l),
(80,700,l),
(335,0,l),
(745,0,l),
(1000,700,l),
(862,700,l),
(651,120,l),
(429,120,l)
);
}
);
width = 1080;
},
{
anchors = (
{
name = top;
position = "{540, 700}";
},
{
name = bottom;
position = "{540, 0}";
}
);
layerId = "1113A850-F682-47D2-ADE2-EC9FE9EA14FB";
shapes = (
{
closed = 1;
nodes = (
(298,700,l),
(60,700,l),
(315,0,l),
(765,0,l),
(1020,700,l),
(782,700,l),
(585,160,l),
(495,160,l)
);
}
);
width = 1080;
},
{
anchors = (
{
name = top;
position = "{540, 700}";
},
{
name = bottom;
position = "{540, 0}";
}
);
layerId = "E9E5670F-9E32-448B-B4B9-C07C5584615B";
shapes = (
{
closed = 1;
nodes = (
(218,700,l),
(80,700,l),
(335,0,l),
(745,0,l),
(1000,700,l),
(862,700,l),
(651,120,l),
(429,120,l)
);
}
);
width = 1080;
}
);
unicode = 86;
},
{
glyphname = W;
widthMetricsKey = n;
layers = (
{
anchors = (
{
name = top;
position = "{540, 700}";
},
{
name = bottom;
position = "{540, 0}";
}
);
layerId = "9D159635-77F7-44CC-9E0F-31B3DA2CA598";
name = "#instance";
shapes = (
{
closed = 1;
nodes = (
(191,700,l),
(60,700,l),
(151,0,l),
(437,0,l),
(512,585,l),
(567,585,l),
(643,0,l),
(929,0,l),
(1020,700,l),
(889,700,l),
(815,115,l),
(755,115,l),
(683,700,l),
(396,700,l),
(324,115,l),
(264,115,l)
);
}
);
width = 1080;
},
{
anchors = (
{
name = top;
position = "{540, 700}";
},
{
name = bottom;
position = "{540, 0}";
}
);
layerId = "1113A850-F682-47D2-ADE2-EC9FE9EA14FB";
shapes = (
{
closed = 1;
nodes = (
(241,700,l),
(30,700,l),
(121,0,l),
(481,0,l),
(516,545,l),
(563,545,l),
(599,0,l),
(959,0,l),
(1050,700,l),
(839,700,l),
(805,155,l),
(757,155,l),
(715,700,l),
(364,700,l),
(322,155,l),
(274,155,l)
);
}
);
width = 1080;
},
{
anchors = (
{
name = top;
position = "{540, 700}";
},
{
name = bottom;
position = "{540, 0}";
}
);
layerId = "E9E5670F-9E32-448B-B4B9-C07C5584615B";
shapes = (
{
closed = 1;
nodes = (
(191,700,l),
(60,700,l),
(151,0,l),
(437,0,l),
(512,585,l),
(567,585,l),
(643,0,l),
(929,0,l),
(1020,700,l),
(889,700,l),
(815,115,l),
(755,115,l),
(683,700,l),
(396,700,l),
(324,115,l),
(264,115,l)
);
}
);
width = 1080;
}
);
unicode = 87;
},
{
glyphname = X;
widthMetricsKey = n;
layers = (
{
anchors = (
{
name = top;
position = "{540, 700}";
},
{
name = bottom;
position = "{540, 0}";
}
);
layerId = "9D159635-77F7-44CC-9E0F-31B3DA2CA598";
name = "#instance";
shapes = (
{
closed = 1;
nodes = (
(250,700,l),
(100,700,l),
(310,336,l),
(310,364,l),
(100,0,l),
(250,0,l),
(417,290,l),
(663,290,l),
(830,0,l),
(980,0,l),
(770,364,l),
(770,336,l),
(980,700,l),
(830,700,l),
(663,410,l),
(417,410,l)
);
}
);
width = 1080;
},
{
anchors = (
{
name = top;
position = "{540, 700}";
},
{
name = bottom;
position = "{540, 0}";
}
);
layerId = "1113A850-F682-47D2-ADE2-EC9FE9EA14FB";
shapes = (
{
closed = 1;
nodes = (
(330,700,l),
(80,700,l),
(290,336,l),
(290,364,l),
(80,0,l),
(330,0,l),
(486,270,l),
(594,270,l),
(750,0,l),
(1000,0,l),
(790,364,l),
(790,336,l),
(1000,700,l),
(750,700,l),
(594,430,l),
(486,430,l)
);
}
);
width = 1080;
},
{
anchors = (
{
name = top;
position = "{540, 700}";
},
{
name = bottom;
position = "{540, 0}";
}
);
layerId = "E9E5670F-9E32-448B-B4B9-C07C5584615B";
shapes = (
{
closed = 1;
nodes = (
(250,700,l),
(100,700,l),
(310,336,l),
(310,364,l),
(100,0,l),
(250,0,l),
(417,290,l),
(663,290,l),
(830,0,l),
(980,0,l),
(770,364,l),
(770,336,l),
(980,700,l),
(830,700,l),
(663,410,l),
(417,410,l)
);
}
);
width = 1080;
}
);
unicode = 88;
},
{
glyphname = Y;
widthMetricsKey = n;
layers = (
{
anchors = (
{
name = top;
position = "{540, 700}";
},
{
name = bottom;
position = "{540, 0}";
}
);
layerId = "9D159635-77F7-44CC-9E0F-31B3DA2CA598";
name = "#instance";
shapes = (
{
closed = 1;
nodes = (
(830,700,l),
(830,350,l),
(250,350,l),
(250,700,l),
(120,700,l),
(120,350,l),
(240,230,l),
(840,230,l),
(960,350,l),
(960,700,l)
);
},
{
closed = 1;
nodes = (
(605,340,l),
(475,340,l),
(475,0,l),
(605,0,l)
);
}
);
width = 1080;
},
{
anchors = (
{
name = top;
position = "{540, 700}";
},
{
name = bottom;
position = "{540, 0}";
}
);
layerId = "1113A850-F682-47D2-ADE2-EC9FE9EA14FB";
shapes = (
{
closed = 1;
nodes = (
(750,700,l),
(750,370,l),
(330,370,l),
(330,700,l),
(100,700,l),
(100,370,l),
(260,210,l),
(820,210,l),
(980,370,l),
(980,700,l)
);
},
{
closed = 1;
nodes = (
(655,300,l),
(425,300,l),
(425,0,l),
(655,0,l)
);
}
);
width = 1080;
},
{
anchors = (
{
name = top;
position = "{540, 700}";
},
{
name = bottom;
position = "{540, 0}";
}
);
layerId = "E9E5670F-9E32-448B-B4B9-C07C5584615B";
shapes = (
{
closed = 1;
nodes = (
(830,700,l),
(830,350,l),
(250,350,l),
(250,700,l),
(120,700,l),
(120,350,l),
(240,230,l),
(840,230,l),
(960,350,l),
(960,700,l)
);
},
{
closed = 1;
nodes = (
(605,340,l),
(475,340,l),
(475,0,l),
(605,0,l)
);
}
);
width = 1080;
}
);
unicode = 89;
},
{
glyphname = Z;
widthMetricsKey = n;
layers = (
{
anchors = (
{
name = top;
position = "{540, 700}";
},
{
name = bottom;
position = "{540, 0}";
}
);
layerId = "9D159635-77F7-44CC-9E0F-31B3DA2CA598";
name = "#instance";
shapes = (
{
closed = 1;
nodes = (
(980,0,l),
(980,120,l),
(230,120,l),
(230,290,l),
(850,290,l),
(980,420,l),
(980,700,l),
(100,700,l),
(100,580,l),
(850,580,l),
(850,410,l),
(230,410,l),
(100,280,l),
(100,0,l)
);
}
);
width = 1080;
},
{
anchors = (
{
name = top;
position = "{540, 700}";
},
{
name = bottom;
position = "{540, 0}";
}
);
layerId = "1113A850-F682-47D2-ADE2-EC9FE9EA14FB";
shapes = (
{
closed = 1;
nodes = (
(1000,0,l),
(1000,160,l),
(310,160,l),
(310,270,l),
(770,270,l),
(1000,500,l),
(1000,700,l),
(80,700,l),
(80,540,l),
(770,540,l),
(770,430,l),
(310,430,l),
(80,200,l),
(80,0,l)
);
}
);
width = 1080;
},
{
anchors = (
{
name = top;
position = "{540, 700}";
},
{
name = bottom;
position = "{540, 0}";
}
);
layerId = "E9E5670F-9E32-448B-B4B9-C07C5584615B";
shapes = (
{
closed = 1;
nodes = (
(980,0,l),
(980,120,l),
(230,120,l),
(230,290,l),
(850,290,l),
(980,420,l),
(980,700,l),
(100,700,l),
(100,580,l),
(850,580,l),
(850,410,l),
(230,410,l),
(100,280,l),
(100,0,l)
);
}
);
width = 1080;
}
);
unicode = 90;
},
{
glyphname = bracketleft;
widthMetricsKey = n;
layers = (
{
layerId = "9D159635-77F7-44CC-9E0F-31B3DA2CA598";
name = "#instance";
shapes = (
{
closed = 1;
nodes = (
(920,10,l),
(655,10,l),
(655,650,l),
(920,650,l),
(920,810,l),
(425,810,l),
(425,-150,l),
(920,-150,l)
);
}
);
width = 1080;
},
{
layerId = "1113A850-F682-47D2-ADE2-EC9FE9EA14FB";
shapes = (
{
closed = 1;
nodes = (
(920,10,l),
(655,10,l),
(655,650,l),
(920,650,l),
(920,810,l),
(425,810,l),
(425,-150,l),
(920,-150,l)
);
}
);
width = 1080;
},
{
layerId = "E9E5670F-9E32-448B-B4B9-C07C5584615B";
shapes = (
{
closed = 1;
nodes = (
(920,-30,l),
(605,-30,l),
(605,690,l),
(920,690,l),
(920,810,l),
(475,810,l),
(475,-150,l),
(920,-150,l)
);
}
);
width = 1080;
}
);
unicode = 91;
},
{
glyphname = backslash;
widthMetricsKey = n;
layers = (
{
layerId = "1113A850-F682-47D2-ADE2-EC9FE9EA14FB";
shapes = (
{
closed = 1;
locked = 1;
nodes = (
(710,-150,l),
(100,750,l),
(370,750,l),
(980,-150,l)
);
}
);
width = 1080;
},
{
layerId = "E9E5670F-9E32-448B-B4B9-C07C5584615B";
shapes = (
{
closed = 1;
locked = 1;
nodes = (
(800,-150,l),
(120,750,l),
(280,750,l),
(960,-150,l)
);
}
);
width = 1080;
}
);
unicode = 92;
},
{
glyphname = bracketright;
widthMetricsKey = n;
layers = (
{
layerId = "1113A850-F682-47D2-ADE2-EC9FE9EA14FB";
shapes = (
{
closed = 1;
locked = 1;
nodes = (
(160,10,l),
(425,10,l),
(425,650,l),
(160,650,l),
(160,810,l),
(655,810,l),
(655,-150,l),
(160,-150,l)
);
}
);
width = 1080;
},
{
layerId = "E9E5670F-9E32-448B-B4B9-C07C5584615B";
shapes = (
{
closed = 1;
locked = 1;
nodes = (
(160,-30,l),
(475,-30,l),
(475,690,l),
(160,690,l),
(160,810,l),
(605,810,l),
(605,-150,l),
(160,-150,l)
);
}
);
width = 1080;
}
);
unicode = 93;
},
{
glyphname = asciicircum;
widthMetricsKey = n;
layers = (
{
layerId = "1113A850-F682-47D2-ADE2-EC9FE9EA14FB";
shapes = (
{
closed = 1;
nodes = (
(424,400,l),
(494,592,l),
(586,592,l),
(656,400,l),
(878,400,l),
(750,752,l),
(330,752,l),
(202,400,l)
);
}
);
width = 1080;
},
{
layerId = "E9E5670F-9E32-448B-B4B9-C07C5584615B";
shapes = (
{
closed = 1;
nodes = (
(374,400,l),
(458,632,l),
(622,632,l),
(706,400,l),
(838,400,l),
(710,752,l),
(370,752,l),
(242,400,l)
);
}
);
width = 1080;
}
);
unicode = 94;
},
{
glyphname = underscore;
widthMetricsKey = n;
layers = (
{
layerId = "9D159635-77F7-44CC-9E0F-31B3DA2CA598";
name = "#instance";
shapes = (
{
closed = 1;
nodes = (
(960,-120,l),
(960,0,l),
(120,0,l),
(120,-120,l)
);
}
);
width = 1080;
},
{
layerId = "1113A850-F682-47D2-ADE2-EC9FE9EA14FB";
shapes = (
{
closed = 1;
nodes = (
(960,-150,l),
(960,0,l),
(120,0,l),
(120,-150,l)
);
}
);
width = 1080;
},
{
layerId = "E9E5670F-9E32-448B-B4B9-C07C5584615B";
shapes = (
{
closed = 1;
nodes = (
(960,-120,l),
(960,0,l),
(120,0,l),
(120,-120,l)
);
}
);
width = 1080;
}
);
unicode = 95;
},
{
glyphname = grave;
widthMetricsKey = n;
layers = (
{
layerId = "9D159635-77F7-44CC-9E0F-31B3DA2CA598";
name = "#instance";
shapes = (
{
closed = 1;
nodes = (
(410,752,l),
(538,400,l),
(670,400,l),
(542,752,l)
);
}
);
width = 1080;
},
{
layerId = "1113A850-F682-47D2-ADE2-EC9FE9EA14FB";
shapes = (
{
closed = 1;
nodes = (
(360,752,l),
(488,400,l),
(720,400,l),
(592,752,l)
);
}
);
width = 1080;
},
{
layerId = "E9E5670F-9E32-448B-B4B9-C07C5584615B";
shapes = (
{
closed = 1;
nodes = (
(410,752,l),
(538,400,l),
(670,400,l),
(542,752,l)
);
}
);
width = 1080;
}
);
unicode = 96;
},
{
glyphname = a;
widthMetricsKey = n;
layers = (
{
anchors = (
{
name = top;
position = "{540, 550}";
},
{
name = bottom;
position = "{540, 0}";
},
{
name = bottom2;
position = "{950, 0}";
}
);
layerId = "9D159635-77F7-44CC-9E0F-31B3DA2CA598";
name = "#instance";
shapes = (
{
closed = 1;
nodes = (
(130,440,l),
(820,440,l),
(820,70,l),
(850,70,l),
(850,0,l),
(950,0,l),
(950,430,l),
(830,550,l),
(170,550,l)
);
},
{
closed = 1;
nodes = (
(220,330,l,{name = .sv01;}),
(110,220,l),
(110,110,l),
(220,0,l,{name = .dv01;}),
(750,0,l),
(820,70,l),
(820,110,l),
(240,110,l,{name = .av01;}),
(240,220,l,{name = .av02;}),
(880,220,l),
(880,330,l)
);
}
);
width = 1080;
},
{
anchors = (
{
name = top;
position = "{540, 550}";
},
{
name = bottom;
position = "{540, 0}";
},
{
name = bottom2;
position = "{970, 0}";
}
);
layerId = "1113A850-F682-47D2-ADE2-EC9FE9EA14FB";
shapes = (
{
closed = 1;
nodes = (
(110,410,l),
(740,410,l,{name = .sv06;}),
(740,70,l),
(770,70,l),
(770,0,l),
(970,0,l),
(970,410,l),
(830,550,l),
(161,550,l)
);
},
{
closed = 1;
nodes = (
(230,347,l),
(90,207,l),
(90,140,l),
(230,0,l,{name = .sv02;}),
(670,0,l,{name = .sv03;}),
(740,70,l),
(740,140,l,{name = .sv04;}),
(320,140,l,{name = .sv01;}),
(320,207,l),
(800,207,l,{name = .dv01;}),
(800,347,l,{name = .sv05;})
);
}
);
width = 1080;
},
{
anchors = (
{
name = top;
position = "{540, 550}";
},
{
name = bottom;
position = "{540, 0}";
},
{
name = bottom2;
position = "{950, 0}";
}
);
layerId = "E9E5670F-9E32-448B-B4B9-C07C5584615B";
shapes = (
{
closed = 1;
nodes = (
(130,440,l),
(820,440,l),
(820,70,l,{name = .dv02;}),
(850,70,l),
(850,0,l),
(950,0,l),
(950,430,l),
(830,550,l),
(170,550,l)
);
},
{
closed = 1;
nodes = (
(220,330,l,{name = .sv04;}),
(110,220,l),
(110,110,l),
(220,0,l,{name = .sv02;}),
(750,0,l),
(820,70,l),
(820,110,l,{name = .dv01;}),
(240,110,l,{name = .sv01;}),
(240,220,l,{name = .sv03;}),
(880,220,l),
(880,330,l)
);
}
);
width = 1080;
}
);
unicode = 97;
},
{
glyphname = b;
widthMetricsKey = n;
layers = (
{
anchors = (
{
name = top;
position = "{540, 550}";
},
{
name = bottom;
position = "{540, 0}";
}
);
layerId = "9D159635-77F7-44CC-9E0F-31B3DA2CA598";
name = "#instance";
shapes = (
{
closed = 1;
nodes = (
(260,0,l),
(840,0,l),
(960,120,l),
(960,430,l),
(840,550,l),
(330,550,l),
(260,480,l),
(260,430,l),
(830,430,l),
(830,120,l),
(260,120,l)
);
},
{
closed = 1;
nodes = (
(130,120,l),
(250,0,l),
(260,0,l),
(260,480,l),
(240,480,l),
(240,750,l),
(130,750,l)
);
}
);
width = 1080;
},
{
anchors = (
{
name = top;
position = "{540, 550}";
},
{
name = bottom;
position = "{540, 0}";
}
);
layerId = "1113A850-F682-47D2-ADE2-EC9FE9EA14FB";
shapes = (
{
closed = 1;
nodes = (
(340,0,l),
(820,0,l),
(980,160,l),
(980,390,l),
(820,550,l),
(410,550,l),
(340,480,l),
(340,390,l),
(750,390,l),
(750,160,l),
(340,160,l)
);
},
{
closed = 1;
nodes = (
(110,160,l),
(270,0,l),
(340,0,l),
(340,480,l),
(320,480,l),
(320,750,l),
(110,750,l)
);
}
);
width = 1080;
},
{
anchors = (
{
name = top;
position = "{540, 550}";
},
{
name = bottom;
position = "{540, 0}";
}
);
layerId = "E9E5670F-9E32-448B-B4B9-C07C5584615B";
shapes = (
{
closed = 1;
nodes = (
(260,0,l),
(840,0,l),
(960,120,l),
(960,430,l),
(840,550,l),
(330,550,l),
(260,480,l),
(260,430,l),
(830,430,l),
(830,120,l),
(260,120,l)
);
},
{
closed = 1;
nodes = (
(130,120,l),
(250,0,l),
(260,0,l),
(260,480,l),
(240,480,l),
(240,750,l),
(130,750,l)
);
}
);
width = 1080;
}
);
unicode = 98;
},
{
glyphname = c;
widthMetricsKey = n;
layers = (
{
anchors = (
{
name = top;
position = "{540, 550}";
},
{
name = bottom;
position = "{540, 0}";
}
);
layerId = "1113A850-F682-47D2-ADE2-EC9FE9EA14FB";
shapes = (
{
closed = 1;
nodes = (
(980,160,l),
(330,160,l),
(330,390,l),
(980,390,l),
(922,550,l),
(260,550,l),
(100,390,l),
(100,160,l),
(260,0,l),
(922,0,l)
);
}
);
width = 1080;
},
{
anchors = (
{
name = top;
position = "{540, 550}";
},
{
name = bottom;
position = "{540, 0}";
}
);
layerId = "E9E5670F-9E32-448B-B4B9-C07C5584615B";
shapes = (
{
closed = 1;
nodes = (
(960,120,l),
(250,120,l),
(250,430,l),
(960,430,l),
(916,550,l),
(240,550,l),
(120,430,l),
(120,120,l),
(240,0,l),
(916,0,l)
);
}
);
width = 1080;
}
);
unicode = 99;
},
{
glyphname = d;
layers = (
{
anchors = (
{
name = top;
position = "{540, 550}";
},
{
name = bottom;
position = "{540, 0}";
},
{
name = top3;
position = "{1030, 500}";
}
);
guides = (
{
locked = 1;
position = "{0, 750}";
}
);
layerId = "1113A850-F682-47D2-ADE2-EC9FE9EA14FB";
shapes = (
{
closed = 1;
nodes = (
(740,550,l),
(260,550,l),
(100,390,l),
(100,170,l),
(260,0,l),
(670,0,l),
(740,70,l),
(740,170,l),
(330,170,l),
(330,390,l),
(740,390,l)
);
},
{
closed = 1;
nodes = (
(970,750,l),
(740,750,l),
(740,70,l),
(770,70,l),
(770,0,l),
(970,0,l)
);
}
);
width = 1080;
},
{
anchors = (
{
name = top;
position = "{540, 550}";
},
{
name = bottom;
position = "{540, 0}";
},
{
name = top3;
position = "{1030, 500}";
}
);
guides = (
{
locked = 1;
position = "{0, 750}";
}
);
layerId = "E9E5670F-9E32-448B-B4B9-C07C5584615B";
shapes = (
{
closed = 1;
nodes = (
(820,550,l),
(240,550,l),
(120,430,l),
(120,120,l),
(240,0,l),
(750,0,l),
(820,70,l),
(820,120,l),
(250,120,l),
(250,430,l),
(820,430,l)
);
},
{
closed = 1;
nodes = (
(950,750,l),
(820,750,l),
(820,70,l),
(850,70,l),
(850,0,l),
(950,0,l)
);
}
);
width = 1080;
}
);
unicode = 100;
},
{
glyphname = e;
widthMetricsKey = n;
layers = (
{
anchors = (
{
name = top;
position = "{540, 550}";
},
{
name = bottom;
position = "{540, 0}";
},
{
name = bottom2;
position = "{919, 0}";
}
);
layerId = "1113A850-F682-47D2-ADE2-EC9FE9EA14FB";
shapes = (
{
closed = 1;
nodes = (
(850,203,l),
(990,343,l),
(990,410,l),
(760,410,l),
(760,343,l),
(290,343,l,{name = .dv04;}),
(290,203,l,{name = .dv01;})
);
},
{
closed = 1;
nodes = (
(970,140,l),
(330,140,l,{name = .dv02;}),
(330,410,l,{name = .dv03;}),
(990,410,l),
(850,550,l),
(250,550,l),
(100,400,l),
(100,150,l),
(250,0,l,{name = .dv05;}),
(919,0,l)
);
}
);
width = 1080;
},
{
anchors = (
{
name = top;
position = "{540, 550}";
},
{
name = bottom;
position = "{540, 0}";
},
{
name = bottom2;
position = "{910, 0}";
}
);
layerId = "E9E5670F-9E32-448B-B4B9-C07C5584615B";
shapes = (
{
closed = 1;
nodes = (
(856,220,l,{name = .dv01;}),
(970,334,l),
(970,440,l),
(840,440,l),
(840,330,l,{name = .sv01;}),
(210,330,l,{name = .dv03;}),
(210,220,l)
);
},
{
closed = 1;
nodes = (
(950,110,l,{name = .dv02;}),
(250,110,l),
(250,440,l,{name = .dv04;}),
(970,440,l),
(860,550,l),
(240,550,l),
(120,430,l),
(120,120,l),
(240,0,l),
(910,0,l)
);
}
);
width = 1080;
}
);
unicode = 101;
},
{
glyphname = f;
layers = (
{
anchors = (
{
name = top;
position = "{540, 550}";
},
{
name = bottom;
position = "{540, 0}";
}
);
layerId = "9D159635-77F7-44CC-9E0F-31B3DA2CA598";
name = "#instance";
shapes = (
{
closed = 1;
nodes = (
(535,0,l),
(535,630,l),
(1005,630,l),
(962,750,l),
(525,750,l),
(405,630,l),
(405,0,l)
);
},
{
closed = 1;
nodes = (
(975,375,l),
(975,495,l),
(105,495,l),
(105,375,l)
);
}
);
width = 1080;
},
{
anchors = (
{
name = top;
position = "{540, 550}";
},
{
name = bottom;
position = "{540, 0}";
}
);
layerId = "1113A850-F682-47D2-ADE2-EC9FE9EA14FB";
shapes = (
{
closed = 1;
nodes = (
(585,0,l),
(585,590,l),
(1015,590,l),
(957,750,l),
(515,750,l),
(355,590,l),
(355,0,l)
);
},
{
closed = 1;
nodes = (
(985,315,l),
(985,475,l),
(95,475,l),
(95,315,l)
);
}
);
width = 1080;
},
{
anchors = (
{
name = top;
position = "{540, 550}";
},
{
name = bottom;
position = "{540, 0}";
}
);
layerId = "E9E5670F-9E32-448B-B4B9-C07C5584615B";
shapes = (
{
closed = 1;
nodes = (
(535,0,l),
(535,630,l),
(1005,630,l),
(962,750,l),
(525,750,l),
(405,630,l),
(405,0,l)
);
},
{
closed = 1;
nodes = (
(975,375,l),
(975,495,l),
(105,495,l),
(105,375,l)
);
}
);
width = 1080;
}
);
unicode = 102;
},
{
glyphname = g;
widthMetricsKey = n;
layers = (
{
anchors = (
{
name = top;
position = "{540, 550}";
},
{
name = bottom;
position = "{540, 0}";
}
);
layerId = "1113A850-F682-47D2-ADE2-EC9FE9EA14FB";
shapes = (
{
closed = 1;
nodes = (
(100,270,l),
(260,110,l),
(709,110,l),
(869,270,l),
(869,480,l),
(619,480,l),
(549,550,l),
(260,550,l),
(100,390,l)
);
},
{
closed = 1;
nodes = (
(350,270,l),
(350,390,l),
(619,390,l),
(619,270,l)
);
},
{
closed = 1;
nodes = (
(1000,550,l),
(649,550,l),
(649,390,l),
(1000,390,l)
);
},
{
closed = 1;
nodes = (
(80,10,l),
(138,-150,l),
(825,-150,l),
(985,10,l),
(985,60,l),
(865,180,l),
(808,180,l),
(808,220,l),
(440,220,l),
(600,60,l),
(735,60,l),
(735,10,l)
);
}
);
width = 1080;
},
{
anchors = (
{
name = top;
position = "{540, 550}";
},
{
name = bottom;
position = "{540, 0}";
}
);
layerId = "E9E5670F-9E32-448B-B4B9-C07C5584615B";
shapes = (
{
closed = 1;
nodes = (
(130,249,l),
(250,129,l),
(709,129,l),
(829,249,l),
(829,480,l),
(699,480,l),
(629,550,l),
(250,550,l),
(130,430,l)
);
},
{
closed = 1;
nodes = (
(260,249,l),
(260,430,l),
(699,430,l),
(699,249,l)
);
},
{
closed = 1;
nodes = (
(980,550,l),
(729,550,l),
(729,430,l),
(980,430,l)
);
},
{
closed = 1;
nodes = (
(100,-30,l),
(144,-150,l),
(845,-150,l),
(965,-30,l),
(965,50,l),
(855,160,l),
(768,160,l),
(768,220,l),
(540,220,l),
(710,50,l),
(835,50,l),
(835,-30,l)
);
}
);
width = 1080;
}
);
unicode = 103;
},
{
glyphname = h;
widthMetricsKey = n;
layers = (
{
anchors = (
{
name = bottom;
position = "{540, 0}";
},
{
name = top;
position = "{671, 700}";
}
);
layerId = "1113A850-F682-47D2-ADE2-EC9FE9EA14FB";
shapes = (
{
closed = 1;
nodes = (
(740,0,l),
(970,0,l),
(970,390,l),
(810,550,l),
(410,550,l),
(340,480,l),
(340,390,l),
(740,390,l)
);
},
{
closed = 1;
nodes = (
(110,0,l),
(340,0,l),
(340,480,l),
(320,480,l),
(320,750,l),
(110,750,l)
);
}
);
width = 1080;
},
{
anchors = (
{
name = bottom;
position = "{540, 0}";
},
{
name = top;
position = "{570, 697}";
}
);
layerId = "E9E5670F-9E32-448B-B4B9-C07C5584615B";
shapes = (
{
closed = 1;
nodes = (
(820,0,l),
(950,0,l),
(950,430,l),
(830,550,l),
(330,550,l),
(260,480,l),
(260,430,l),
(820,430,l)
);
},
{
closed = 1;
nodes = (
(130,0,l),
(260,0,l),
(260,480,l),
(240,480,l),
(240,750,l),
(130,750,l)
);
}
);
width = 1080;
}
);
unicode = 104;
},
{
glyphname = i;
widthMetricsKey = n;
layers = (
{
anchors = (
{
name = bottom;
position = "{540, 0}";
},
{
name = bottom2;
position = "{722, 0}";
}
);
layerId = "1113A850-F682-47D2-ADE2-EC9FE9EA14FB";
shapes = (
{
closed = 1;
nodes = (
(655,550,l),
(425,540,l),
(425,160,l),
(585,0,l),
(967,0,l),
(1025,160,l),
(655,160,l)
);
},
{
closed = 1;
nodes = (
(415,610,l),
(665,610,l),
(665,770,l),
(415,770,l)
);
},
{
closed = 1;
nodes = (
(645,395,l),
(655,550,l),
(85,550,l),
(85,395,l)
);
}
);
width = 1080;
},
{
anchors = (
{
name = bottom;
position = "{540, 0}";
},
{
name = bottom2;
position = "{677, 0}";
}
);
layerId = "E9E5670F-9E32-448B-B4B9-C07C5584615B";
shapes = (
{
closed = 1;
nodes = (
(605,550,l),
(475,540,l),
(475,120,l),
(595,0,l),
(961,0,l),
(1005,120,l),
(605,120,l)
);
},
{
closed = 1;
nodes = (
(465,630,l),
(615,630,l),
(615,750,l),
(465,750,l)
);
},
{
closed = 1;
nodes = (
(595,435,l),
(605,550,l),
(105,550,l),
(105,435,l)
);
}
);
width = 1080;
}
);
unicode = 105;
},
{
glyphname = j;
widthMetricsKey = n;
layers = (
{
anchors = (
{
name = bottom;
position = "{540, 0}";
}
);
layerId = "1113A850-F682-47D2-ADE2-EC9FE9EA14FB";
shapes = (
{
closed = 1;
nodes = (
(665,610,l),
(915,610,l),
(915,770,l),
(665,770,l)
);
},
{
closed = 1;
nodes = (
(894,395,l),
(904,550,l),
(305,550,l),
(305,395,l)
);
},
{
closed = 1;
nodes = (
(675,540,l),
(675,10,l),
(95,10,l),
(139,-150,l),
(745,-150,l),
(905,10,l),
(904,550,l)
);
}
);
width = 1080;
},
{
anchors = (
{
name = bottom;
position = "{540, 0}";
}
);
layerId = "E9E5670F-9E32-448B-B4B9-C07C5584615B";
shapes = (
{
closed = 1;
nodes = (
(695,630,l),
(845,630,l),
(845,750,l),
(695,750,l)
);
},
{
closed = 1;
nodes = (
(824,435,l),
(834,550,l),
(325,550,l),
(325,435,l)
);
},
{
closed = 1;
nodes = (
(705,540,l),
(705,-30,l),
(115,-30,l),
(159,-150,l),
(715,-150,l),
(834,-30,l),
(834,550,l)
);
}
);
width = 1080;
}
);
unicode = 106;
},
{
glyphname = k;
layers = (
{
anchors = (
{
name = top;
position = "{540, 550}";
},
{
name = bottom;
position = "{540, 0}";
}
);
layerId = "9D159635-77F7-44CC-9E0F-31B3DA2CA598";
name = "#instance";
shapes = (
{
closed = 1;
nodes = (
(237,218,l),
(599,218,l),
(817,0,l),
(1000,0,l),
(704,296,l),
(704,264,l),
(990,550,l),
(807,550,l),
(589,332,l),
(237,332,l)
);
},
{
closed = 1;
nodes = (
(130,750,l),
(130,0,l),
(260,0,l),
(260,750,l)
);
}
);
width = 1080;
},
{
anchors = (
{
name = top;
position = "{540, 550}";
},
{
name = bottom;
position = "{540, 0}";
}
);
layerId = "1113A850-F682-47D2-ADE2-EC9FE9EA14FB";
shapes = (
{
closed = 1;
nodes = (
(317,195,l),
(542,195,l),
(737,0,l),
(1020,0,l),
(724,296,l),
(724,264,l),
(1010,550,l),
(727,550,l),
(532,355,l),
(317,355,l)
);
},
{
closed = 1;
nodes = (
(110,750,l),
(110,0,l),
(340,0,l),
(340,750,l)
);
}
);
width = 1080;
},
{
anchors = (
{
name = top;
position = "{540, 550}";
},
{
name = bottom;
position = "{540, 0}";
}
);
layerId = "E9E5670F-9E32-448B-B4B9-C07C5584615B";
shapes = (
{
closed = 1;
nodes = (
(237,218,l),
(599,218,l),
(817,0,l),
(1000,0,l),
(704,296,l),
(704,264,l),
(990,550,l),
(807,550,l),
(589,332,l),
(237,332,l)
);
},
{
closed = 1;
nodes = (
(130,750,l),
(130,0,l),
(260,0,l),
(260,750,l)
);
}
);
width = 1080;
}
);
unicode = 107;
},
{
color = (153, 154, 255, 255);
glyphname = l;
widthMetricsKey = n;
layers = (
{
anchors = (
{
name = center;
position = "{815, 371}";
},
{
name = top;
position = "{739, 700}";
},
{
name = top3;
position = "{650, 496}";
},
{
name = bottom;
position = "{540, 0}";
}
);
layerId = "1113A850-F682-47D2-ADE2-EC9FE9EA14FB";
shapes = (
{
closed = 1;
nodes = (
(565,750,l),
(335,740,l),
(335,160,l),
(495,0,l),
(967,0,l),
(1025,160,l),
(565,160,l)
);
},
{
closed = 1;
nodes = (
(555,595,l),
(565,750,l),
(85,750,l),
(85,595,l)
);
}
);
width = 1080;
},
{
anchors = (
{
name = top;
position = "{739, 697}";
},
{
name = top3;
position = "{650, 496}";
},
{
name = center;
position = "{815, 371}";
},
{
name = bottom;
position = "{540, 0}";
}
);
layerId = "E9E5670F-9E32-448B-B4B9-C07C5584615B";
shapes = (
{
closed = 1;
nodes = (
(515,750,l),
(385,740,l),
(385,120,l),
(495,0,l),
(947,0,l),
(1005,120,l),
(515,120,l)
);
},
{
closed = 1;
nodes = (
(505,635,l),
(515,750,l),
(105,750,l),
(105,635,l)
);
}
);
width = 1080;
}
);
unicode = 108;
},
{
glyphname = m;
widthMetricsKey = n;
layers = (
{
anchors = (
{
name = top;
position = "{540, 550}";
},
{
name = bottom;
position = "{540, 0}";
}
);
layerId = "1113A850-F682-47D2-ADE2-EC9FE9EA14FB";
shapes = (
{
closed = 1;
nodes = (
(425,0,l),
(655,0,l),
(655,390,l),
(495,550,l),
(380,550,l),
(310,480,l),
(310,390,l),
(425,390,l)
);
},
{
closed = 1;
nodes = (
(80,0,l),
(310,0,l),
(310,480,l),
(280,480,l),
(280,550,l),
(80,550,l)
);
},
{
closed = 1;
nodes = (
(770,0,l),
(1000,0,l),
(1000,390,l),
(840,550,l),
(698,550,l),
(538,390,l),
(770,390,l)
);
}
);
width = 1080;
},
{
anchors = (
{
name = top;
position = "{540, 550}";
},
{
name = bottom;
position = "{540, 0}";
}
);
layerId = "E9E5670F-9E32-448B-B4B9-C07C5584615B";
shapes = (
{
closed = 1;
nodes = (
(475,0,l),
(605,0,l),
(605,430,l),
(485,550,l),
(290,550,l),
(220,480,l),
(220,430,l),
(475,430,l)
);
},
{
closed = 1;
nodes = (
(90,0,l),
(220,0,l),
(220,480,l),
(190,480,l),
(190,550,l),
(90,550,l)
);
},
{
closed = 1;
nodes = (
(860,0,l),
(990,0,l),
(990,430,l),
(870,550,l),
(658,550,l),
(538,430,l),
(860,430,l)
);
}
);
width = 1080;
}
);
unicode = 109;
},
{
glyphname = n;
layers = (
{
anchors = (
{
name = top;
position = "{540, 550}";
},
{
name = bottom;
position = "{540, 0}";
}
);
layerId = "9D159635-77F7-44CC-9E0F-31B3DA2CA598";
name = "#instance";
shapes = (
{
closed = 1;
nodes = (
(820,0,l),
(950,0,l),
(950,430,l),
(830,550,l),
(330,550,l),
(260,480,l),
(260,430,l),
(820,430,l)
);
},
{
closed = 1;
nodes = (
(130,0,l),
(260,0,l),
(260,480,l),
(230,480,l),
(230,550,l),
(130,550,l)
);
}
);
width = 1080;
},
{
anchors = (
{
name = top;
position = "{540, 550}";
},
{
name = bottom;
position = "{540, 0}";
}
);
layerId = "1113A850-F682-47D2-ADE2-EC9FE9EA14FB";
shapes = (
{
closed = 1;
nodes = (
(740,0,l),
(970,0,l),
(970,390,l),
(810,550,l),
(410,550,l),
(340,480,l),
(340,390,l),
(740,390,l)
);
},
{
closed = 1;
nodes = (
(110,0,l),
(340,0,l),
(340,480,l),
(310,480,l),
(310,550,l),
(110,550,l)
);
}
);
width = 1080;
},
{
anchors = (
{
name = top;
position = "{540, 550}";
},
{
name = bottom;
position = "{540, 0}";
}
);
layerId = "E9E5670F-9E32-448B-B4B9-C07C5584615B";
shapes = (
{
closed = 1;
nodes = (
(820,0,l),
(950,0,l),
(950,430,l),
(830,550,l),
(330,550,l),
(260,480,l),
(260,430,l),
(820,430,l)
);
},
{
closed = 1;
nodes = (
(130,0,l),
(260,0,l),
(260,480,l),
(230,480,l),
(230,550,l),
(130,550,l)
);
}
);
width = 1080;
}
);
unicode = 110;
},
{
glyphname = o;
widthMetricsKey = n;
layers = (
{
anchors = (
{
name = top;
position = "{540, 550}";
},
{
name = bottom;
position = "{540, 0}";
},
{
name = top2;
position = "{830, 550}";
}
);
layerId = "9D159635-77F7-44CC-9E0F-31B3DA2CA598";
name = "#instance";
shapes = (
{
closed = 1;
nodes = (
(120,120,l),
(240,0,l),
(840,0,l),
(960,120,l),
(960,430,l),
(840,550,l),
(240,550,l),
(120,430,l)
);
},
{
closed = 1;
nodes = (
(250,120,l),
(250,430,l),
(830,430,l),
(830,120,l)
);
}
);
width = 1080;
},
{
anchors = (
{
name = top;
position = "{540, 550}";
},
{
name = bottom;
position = "{540, 0}";
},
{
name = top2;
position = "{750, 550}";
}
);
layerId = "1113A850-F682-47D2-ADE2-EC9FE9EA14FB";
shapes = (
{
closed = 1;
nodes = (
(100,160,l),
(260,0,l),
(820,0,l),
(980,160,l),
(980,390,l),
(820,550,l),
(260,550,l),
(100,390,l)
);
},
{
closed = 1;
nodes = (
(330,160,l),
(330,390,l),
(750,390,l),
(750,160,l)
);
}
);
width = 1080;
},
{
anchors = (
{
name = top;
position = "{540, 550}";
},
{
name = bottom;
position = "{540, 0}";
},
{
name = top2;
position = "{830, 550}";
}
);
layerId = "E9E5670F-9E32-448B-B4B9-C07C5584615B";
shapes = (
{
closed = 1;
nodes = (
(120,120,l),
(240,0,l),
(840,0,l),
(960,120,l),
(960,430,l),
(840,550,l),
(240,550,l),
(120,430,l)
);
},
{
closed = 1;
nodes = (
(250,120,l),
(250,430,l),
(830,430,l),
(830,120,l)
);
}
);
width = 1080;
}
);
unicode = 111;
},
{
glyphname = p;
widthMetricsKey = n;
layers = (
{
anchors = (
{
name = top;
position = "{540, 550}";
},
{
name = bottom;
position = "{540, 0}";
}
);
layerId = "9D159635-77F7-44CC-9E0F-31B3DA2CA598";
name = "#instance";
shapes = (
{
closed = 1;
nodes = (
(260,0,l),
(840,0,l),
(960,120,l),
(960,430,l),
(840,550,l),
(330,550,l),
(260,480,l),
(260,430,l),
(830,430,l),
(830,120,l),
(260,120,l)
);
},
{
closed = 1;
nodes = (
(130,-200,l),
(260,-200,l),
(260,480,l),
(230,480,l),
(230,550,l),
(130,550,l)
);
}
);
width = 1080;
},
{
anchors = (
{
name = top;
position = "{540, 550}";
},
{
name = bottom;
position = "{540, 0}";
}
);
layerId = "1113A850-F682-47D2-ADE2-EC9FE9EA14FB";
shapes = (
{
closed = 1;
nodes = (
(340,0,l),
(820,0,l),
(980,160,l),
(980,390,l),
(820,550,l),
(410,550,l),
(340,480,l),
(340,390,l),
(750,390,l),
(750,160,l),
(340,160,l)
);
},
{
closed = 1;
nodes = (
(110,-148,l),
(340,-148,l),
(340,480,l),
(310,480,l),
(310,550,l),
(110,550,l)
);
}
);
width = 1080;
},
{
anchors = (
{
name = top;
position = "{540, 550}";
},
{
name = bottom;
position = "{540, 0}";
}
);
layerId = "E9E5670F-9E32-448B-B4B9-C07C5584615B";
shapes = (
{
closed = 1;
nodes = (
(260,0,l),
(840,0,l),
(960,120,l),
(960,430,l),
(840,550,l),
(330,550,l),
(260,480,l),
(260,430,l),
(830,430,l),
(830,120,l),
(260,120,l)
);
},
{
closed = 1;
nodes = (
(130,-200,l),
(260,-200,l),
(260,480,l),
(230,480,l),
(230,550,l),
(130,550,l)
);
}
);
width = 1080;
}
);
unicode = 112;
},
{
glyphname = q;
widthMetricsKey = n;
layers = (
{
anchors = (
{
name = top;
position = "{540, 550}";
},
{
name = bottom;
position = "{540, 0}";
}
);
layerId = "9D159635-77F7-44CC-9E0F-31B3DA2CA598";
name = "#instance";
shapes = (
{
closed = 1;
nodes = (
(820,0,l),
(820,120,l),
(250,120,l),
(250,430,l),
(820,430,l),
(820,480,l),
(750,550,l),
(240,550,l),
(120,430,l),
(120,120,l),
(240,0,l)
);
},
{
closed = 1;
nodes = (
(950,-200,l),
(950,550,l),
(850,550,l),
(850,480,l),
(820,480,l),
(820,-200,l)
);
}
);
width = 1080;
},
{
anchors = (
{
name = top;
position = "{540, 550}";
},
{
name = bottom;
position = "{540, 0}";
}
);
layerId = "1113A850-F682-47D2-ADE2-EC9FE9EA14FB";
shapes = (
{
closed = 1;
nodes = (
(740,0,l),
(740,160,l),
(330,160,l),
(330,390,l),
(740,390,l),
(740,480,l),
(670,550,l),
(260,550,l),
(100,390,l),
(100,160,l),
(260,0,l)
);
},
{
closed = 1;
nodes = (
(970,-150,l),
(970,550,l),
(770,550,l),
(770,480,l),
(740,480,l),
(740,-150,l)
);
}
);
width = 1080;
},
{
anchors = (
{
name = top;
position = "{540, 550}";
},
{
name = bottom;
position = "{540, 0}";
}
);
layerId = "E9E5670F-9E32-448B-B4B9-C07C5584615B";
shapes = (
{
closed = 1;
nodes = (
(820,0,l),
(820,120,l),
(250,120,l),
(250,430,l),
(820,430,l),
(820,480,l),
(750,550,l),
(240,550,l),
(120,430,l),
(120,120,l),
(240,0,l)
);
},
{
closed = 1;
nodes = (
(950,-200,l),
(950,550,l),
(850,550,l),
(850,480,l),
(820,480,l),
(820,-200,l)
);
}
);
width = 1080;
}
);
unicode = 113;
},
{
glyphname = r;
widthMetricsKey = n;
layers = (
{
anchors = (
{
name = top;
position = "{540, 550}";
},
{
name = bottom;
position = "{250, 0}";
}
);
layerId = "9D159635-77F7-44CC-9E0F-31B3DA2CA598";
name = "#instance";
shapes = (
{
closed = 1;
nodes = (
(990,390,l),
(932,550,l),
(440,550,l),
(370,480,l),
(370,390,l)
);
},
{
closed = 1;
nodes = (
(140,0,l),
(370,0,l),
(370,480,l),
(340,480,l),
(340,550,l),
(140,550,l)
);
}
);
width = 1080;
},
{
anchors = (
{
name = top;
position = "{540, 550}";
},
{
name = bottom;
position = "{250, 0}";
}
);
layerId = "1113A850-F682-47D2-ADE2-EC9FE9EA14FB";
shapes = (
{
closed = 1;
nodes = (
(990,390,l),
(932,550,l),
(440,550,l),
(370,480,l),
(370,390,l)
);
},
{
closed = 1;
nodes = (
(140,0,l),
(370,0,l),
(370,480,l),
(340,480,l),
(340,550,l),
(140,550,l)
);
}
);
width = 1080;
},
{
anchors = (
{
name = top;
position = "{540, 550}";
},
{
name = bottom;
position = "{225, 0}";
}
);
layerId = "E9E5670F-9E32-448B-B4B9-C07C5584615B";
shapes = (
{
closed = 1;
nodes = (
(970,430,l),
(926,550,l),
(360,550,l),
(290,480,l),
(290,430,l)
);
},
{
closed = 1;
nodes = (
(160,0,l),
(290,0,l),
(290,480,l),
(260,480,l),
(260,550,l),
(160,550,l)
);
}
);
width = 1080;
}
);
unicode = 114;
},
{
glyphname = s;
widthMetricsKey = n;
layers = (
{
anchors = (
{
name = top;
position = "{540, 550}";
},
{
name = bottom;
position = "{540, 0}";
}
);
layerId = "9D159635-77F7-44CC-9E0F-31B3DA2CA598";
name = "#instance";
shapes = (
{
closed = 1;
nodes = (
(150,0,l,{name = .av03;}),
(850,0,l),
(970,120,l),
(970,225,l),
(865,330,l,{name = .sv01;}),
(250,330,l,{name = .av01;}),
(250,440,l),
(950,440,l,{name = .sv02;}),
(910,550,l,{name = .av02;}),
(240,550,l),
(120,430,l),
(120,335,l),
(235,220,l,{name = .sv03;}),
(840,220,l,{name = .av04;}),
(840,110,l),
(110,110,l,{name = .sv04;})
);
}
);
width = 1080;
},
{
anchors = (
{
name = top;
position = "{540, 550}";
},
{
name = bottom;
position = "{540, 0}";
}
);
layerId = "1113A850-F682-47D2-ADE2-EC9FE9EA14FB";
shapes = (
{
closed = 1;
nodes = (
(141,0,l),
(840,0,l),
(990,150,l),
(990,210,l),
(855,345,l,{name = .dv04;}),
(310,345,l),
(310,410,l),
(970,410,l,{name = .dv05;}),
(919,550,l),
(250,550,l),
(100,400,l),
(100,350,l),
(245,205,l,{name = .dv02;}),
(780,205,l,{name = .dv03;}),
(780,140,l),
(90,140,l,{name = .dv01;})
);
}
);
width = 1080;
},
{
anchors = (
{
name = top;
position = "{540, 550}";
},
{
name = bottom;
position = "{540, 0}";
}
);
layerId = "E9E5670F-9E32-448B-B4B9-C07C5584615B";
shapes = (
{
closed = 1;
nodes = (
(150,0,l,{name = .sv04;}),
(850,0,l),
(970,120,l),
(970,225,l),
(865,330,l,{name = .dv04;}),
(250,330,l,{name = .sv02;}),
(250,440,l,{name = .sv01;}),
(950,440,l,{name = .dv03;}),
(910,550,l,{name = .sv03;}),
(240,550,l),
(120,430,l),
(120,335,l),
(235,220,l,{name = .dv02;}),
(840,220,l,{name = .sv05;}),
(840,110,l),
(110,110,l,{name = .dv01;})
);
}
);
width = 1080;
}
);
unicode = 115;
},
{
glyphname = t;
widthMetricsKey = n;
layers = (
{
anchors = (
{
name = top;
position = "{540, 550}";
},
{
name = bottom;
position = "{627, 0}";
},
{
name = top3;
position = "{662, 600}";
}
);
layerId = "1113A850-F682-47D2-ADE2-EC9FE9EA14FB";
shapes = (
{
closed = 1;
nodes = (
(565,720,l),
(335,637,l),
(335,160,l),
(495,0,l),
(937,0,l),
(995,160,l),
(565,160,l)
);
},
{
closed = 1;
nodes = (
(985,550,l),
(95,550,l),
(95,395,l),
(985,395,l)
);
}
);
width = 1080;
},
{
anchors = (
{
name = top;
position = "{540, 550}";
},
{
name = bottom;
position = "{630, 0}";
},
{
name = top3;
position = "{622, 600}";
}
);
layerId = "E9E5670F-9E32-448B-B4B9-C07C5584615B";
shapes = (
{
closed = 1;
nodes = (
(515,700,l),
(385,653,l),
(385,120,l),
(505,0,l),
(941,0,l),
(985,120,l),
(515,120,l)
);
},
{
closed = 1;
nodes = (
(975,550,l),
(105,550,l),
(105,435,l),
(975,435,l)
);
}
);
width = 1080;
}
);
unicode = 116;
},
{
glyphname = u;
widthMetricsKey = n;
layers = (
{
anchors = (
{
name = top;
position = "{540, 550}";
},
{
name = bottom;
position = "{540, 0}";
},
{
name = top2;
position = "{740, 550}";
},
{
name = bottom2;
position = "{970, 0}";
}
);
layerId = "1113A850-F682-47D2-ADE2-EC9FE9EA14FB";
shapes = (
{
closed = 1;
locked = 1;
nodes = (
(340,550,l),
(110,550,l),
(110,160,l),
(270,0,l),
(670,0,l),
(740,70,l),
(740,160,l),
(340,160,l)
);
},
{
closed = 1;
locked = 1;
nodes = (
(970,550,l),
(740,550,l),
(740,70,l),
(770,70,l),
(770,0,l),
(970,0,l)
);
}
);
width = 1080;
},
{
anchors = (
{
name = top;
position = "{540, 550}";
},
{
name = bottom;
position = "{540, 0}";
},
{
name = top2;
position = "{820, 550}";
},
{
name = bottom2;
position = "{950, 0}";
}
);
layerId = "E9E5670F-9E32-448B-B4B9-C07C5584615B";
shapes = (
{
closed = 1;
locked = 1;
nodes = (
(260,550,l),
(130,550,l),
(130,120,l),
(250,0,l),
(750,0,l),
(820,70,l),
(820,120,l),
(260,120,l)
);
},
{
closed = 1;
locked = 1;
nodes = (
(950,550,l),
(820,550,l),
(820,70,l),
(850,70,l),
(850,0,l),
(950,0,l)
);
}
);
width = 1080;
}
);
unicode = 117;
},
{
glyphname = v;
widthMetricsKey = n;
layers = (
{
anchors = (
{
name = top;
position = "{540, 550}";
},
{
name = bottom;
position = "{540, 0}";
}
);
layerId = "9D159635-77F7-44CC-9E0F-31B3DA2CA598";
name = "#instance";
shapes = (
{
closed = 1;
nodes = (
(312,550,l),
(80,550,l),
(280,0,l),
(800,0,l),
(1000,550,l),
(768,550,l),
(626,160,l),
(454,160,l)
);
}
);
width = 1080;
},
{
anchors = (
{
name = top;
position = "{540, 550}";
},
{
name = bottom;
position = "{540, 0}";
}
);
layerId = "1113A850-F682-47D2-ADE2-EC9FE9EA14FB";
shapes = (
{
closed = 1;
nodes = (
(312,550,l),
(80,550,l),
(280,0,l),
(800,0,l),
(1000,550,l),
(768,550,l),
(626,160,l),
(454,160,l)
);
}
);
width = 1080;
},
{
anchors = (
{
name = top;
position = "{540, 550}";
},
{
name = bottom;
position = "{540, 0}";
}
);
layerId = "E9E5670F-9E32-448B-B4B9-C07C5584615B";
shapes = (
{
closed = 1;
nodes = (
(232,550,l),
(100,550,l),
(300,0,l),
(780,0,l),
(980,550,l),
(848,550,l),
(692,120,l),
(388,120,l)
);
}
);
width = 1080;
}
);
unicode = 118;
},
{
glyphname = w;
widthMetricsKey = n;
layers = (
{
anchors = (
{
name = top;
position = "{540, 550}";
},
{
name = bottom;
position = "{540, 0}";
}
);
layerId = "9D159635-77F7-44CC-9E0F-31B3DA2CA598";
name = "#instance";
shapes = (
{
closed = 1;
nodes = (
(201,550,l),
(70,550,l),
(181,0,l),
(426,0,l),
(501,435,l),
(578,435,l),
(654,0,l),
(899,0,l),
(1010,550,l),
(879,550,l),
(815,115,l),
(747,115,l),
(675,550,l),
(404,550,l),
(332,115,l),
(264,115,l)
);
}
);
width = 1080;
},
{
anchors = (
{
name = top;
position = "{540, 550}";
},
{
name = bottom;
position = "{540, 0}";
}
);
layerId = "1113A850-F682-47D2-ADE2-EC9FE9EA14FB";
shapes = (
{
closed = 1;
nodes = (
(261,550,l),
(50,550,l),
(141,0,l),
(491,0,l),
(526,395,l),
(553,395,l),
(589,0,l),
(939,0,l),
(1030,550,l),
(819,550,l),
(785,155,l),
(747,155,l),
(705,550,l),
(374,550,l),
(332,155,l),
(294,155,l)
);
}
);
width = 1080;
},
{
anchors = (
{
name = top;
position = "{540, 550}";
},
{
name = bottom;
position = "{540, 0}";
}
);
layerId = "E9E5670F-9E32-448B-B4B9-C07C5584615B";
shapes = (
{
closed = 1;
nodes = (
(201,550,l),
(70,550,l),
(181,0,l),
(426,0,l),
(501,435,l),
(578,435,l),
(654,0,l),
(899,0,l),
(1010,550,l),
(879,550,l),
(815,115,l),
(747,115,l),
(675,550,l),
(404,550,l),
(332,115,l),
(264,115,l)
);
}
);
width = 1080;
}
);
unicode = 119;
},
{
glyphname = x;
widthMetricsKey = n;
layers = (
{
anchors = (
{
name = top;
position = "{540, 550}";
},
{
name = bottom;
position = "{540, 0}";
}
);
layerId = "1113A850-F682-47D2-ADE2-EC9FE9EA14FB";
shapes = (
{
closed = 1;
nodes = (
(513,198,l),
(345,0,l),
(80,0,l),
(330,296,l),
(330,264,l),
(90,550,l),
(355,550,l),
(523,352,l),
(557,352,l),
(725,550,l),
(990,550,l),
(750,264,l),
(750,296,l),
(1000,0,l),
(735,0,l),
(567,198,l)
);
}
);
width = 1080;
},
{
anchors = (
{
name = top;
position = "{540, 550}";
},
{
name = bottom;
position = "{540, 0}";
}
);
layerId = "E9E5670F-9E32-448B-B4B9-C07C5584615B";
shapes = (
{
closed = 1;
nodes = (
(448,218,l),
(265,0,l),
(100,0,l),
(350,296,l),
(350,264,l),
(110,550,l),
(275,550,l),
(458,332,l),
(622,332,l),
(805,550,l),
(970,550,l),
(730,264,l),
(730,296,l),
(980,0,l),
(815,0,l),
(632,218,l)
);
}
);
width = 1080;
}
);
unicode = 120;
},
{
glyphname = y;
widthMetricsKey = n;
layers = (
{
anchors = (
{
name = top;
position = "{540, 550}";
},
{
name = bottom;
position = "{540, 0}";
}
);
layerId = "9D159635-77F7-44CC-9E0F-31B3DA2CA598";
name = "#instance";
shapes = (
{
closed = 1;
nodes = (
(144,-150,l),
(830,-150,l),
(950,-30,l),
(950,550,l),
(820,550,l),
(820,-30,l),
(100,-30,l)
);
},
{
closed = 1;
nodes = (
(820,90,l),
(820,210,l),
(250,210,l),
(250,550,l),
(120,550,l),
(120,210,l),
(240,90,l)
);
}
);
width = 1080;
},
{
anchors = (
{
name = top;
position = "{540, 550}";
},
{
name = bottom;
position = "{540, 0}";
}
);
layerId = "1113A850-F682-47D2-ADE2-EC9FE9EA14FB";
shapes = (
{
closed = 1;
nodes = (
(138,-150,l),
(810,-150,l),
(970,10,l),
(970,550,l),
(740,550,l),
(740,10,l),
(80,10,l)
);
},
{
closed = 1;
nodes = (
(740,110,l),
(740,270,l),
(330,270,l),
(330,550,l),
(100,550,l),
(100,270,l),
(260,110,l)
);
}
);
width = 1080;
},
{
anchors = (
{
name = top;
position = "{540, 550}";
},
{
name = bottom;
position = "{540, 0}";
}
);
layerId = "E9E5670F-9E32-448B-B4B9-C07C5584615B";
shapes = (
{
closed = 1;
nodes = (
(144,-150,l),
(830,-150,l),
(950,-30,l),
(950,550,l),
(820,550,l),
(820,-30,l),
(100,-30,l)
);
},
{
closed = 1;
nodes = (
(820,90,l),
(820,210,l),
(250,210,l),
(250,550,l),
(120,550,l),
(120,210,l),
(240,90,l)
);
}
);
width = 1080;
}
);
unicode = 121;
},
{
glyphname = z;
widthMetricsKey = n;
layers = (
{
anchors = (
{
name = top;
position = "{540, 550}";
},
{
name = bottom;
position = "{540, 0}";
}
);
layerId = "1113A850-F682-47D2-ADE2-EC9FE9EA14FB";
shapes = (
{
closed = 1;
nodes = (
(990,0,l),
(990,140,l),
(320,140,l),
(320,205,l),
(760,205,l),
(990,405,l),
(990,550,l),
(90,550,l),
(90,410,l),
(760,410,l),
(760,345,l),
(320,345,l),
(90,115,l),
(90,0,l)
);
}
);
width = 1080;
},
{
anchors = (
{
name = top;
position = "{540, 550}";
},
{
name = bottom;
position = "{540, 0}";
}
);
layerId = "E9E5670F-9E32-448B-B4B9-C07C5584615B";
shapes = (
{
closed = 1;
nodes = (
(970,0,l),
(970,110,l),
(240,110,l),
(240,220,l),
(840,220,l),
(970,350,l),
(970,550,l),
(110,550,l),
(110,440,l),
(840,440,l),
(840,330,l),
(240,330,l),
(110,200,l),
(110,0,l)
);
}
);
width = 1080;
}
);
unicode = 122;
},
{
glyphname = braceleft;
widthMetricsKey = n;
layers = (
{
layerId = "9D159635-77F7-44CC-9E0F-31B3DA2CA598";
name = "#instance";
shapes = (
{
closed = 1;
nodes = (
(270,250,l),
(425,250,l),
(425,10,l),
(585,-150,l),
(862,-150,l),
(920,10,l),
(655,10,l),
(655,220,l),
(534,341,l),
(534,319,l),
(655,440,l),
(655,650,l),
(920,650,l),
(862,810,l),
(585,810,l),
(425,650,l),
(425,410,l),
(270,410,l)
);
}
);
width = 1080;
},
{
layerId = "1113A850-F682-47D2-ADE2-EC9FE9EA14FB";
shapes = (
{
closed = 1;
nodes = (
(270,250,l),
(425,250,l),
(425,10,l),
(585,-150,l),
(862,-150,l),
(920,10,l),
(655,10,l),
(655,220,l),
(534,341,l),
(534,319,l),
(655,440,l),
(655,650,l),
(920,650,l),
(862,810,l),
(585,810,l),
(425,650,l),
(425,410,l),
(270,410,l)
);
}
);
width = 1080;
},
{
layerId = "E9E5670F-9E32-448B-B4B9-C07C5584615B";
shapes = (
{
closed = 1;
nodes = (
(270,270,l),
(475,270,l),
(475,-30,l),
(595,-150,l),
(876,-150,l),
(920,-30,l),
(605,-30,l),
(605,240,l),
(504,341,l),
(504,319,l),
(605,420,l),
(605,690,l),
(920,690,l),
(876,810,l),
(595,810,l),
(475,690,l),
(475,390,l),
(270,390,l)
);
}
);
width = 1080;
}
);
unicode = 123;
},
{
glyphname = bar;
widthMetricsKey = n;
layers = (
{
layerId = "1113A850-F682-47D2-ADE2-EC9FE9EA14FB";
shapes = (
{
closed = 1;
nodes = (
(655,850,l),
(425,850,l),
(425,-150,l),
(655,-150,l)
);
}
);
width = 1080;
},
{
layerId = "E9E5670F-9E32-448B-B4B9-C07C5584615B";
shapes = (
{
closed = 1;
nodes = (
(605,850,l),
(475,850,l),
(475,-150,l),
(605,-150,l)
);
}
);
width = 1080;
}
);
unicode = 124;
},
{
glyphname = braceright;
widthMetricsKey = n;
layers = (
{
layerId = "1113A850-F682-47D2-ADE2-EC9FE9EA14FB";
shapes = (
{
closed = 1;
locked = 1;
nodes = (
(810,250,l),
(655,250,l),
(655,10,l),
(495,-150,l),
(218,-150,l),
(160,10,l),
(425,10,l),
(425,220,l),
(546,341,l),
(546,319,l),
(425,440,l),
(425,650,l),
(160,650,l),
(218,810,l),
(495,810,l),
(655,650,l),
(655,410,l),
(810,410,l)
);
}
);
width = 1080;
},
{
layerId = "E9E5670F-9E32-448B-B4B9-C07C5584615B";
shapes = (
{
closed = 1;
locked = 1;
nodes = (
(810,270,l),
(605,270,l),
(605,-30,l),
(485,-150,l),
(204,-150,l),
(160,-30,l),
(475,-30,l),
(475,240,l),
(576,341,l),
(576,319,l),
(475,420,l),
(475,690,l),
(160,690,l),
(204,810,l),
(485,810,l),
(605,690,l),
(605,390,l),
(810,390,l)
);
}
);
width = 1080;
}
);
unicode = 125;
},
{
glyphname = asciitilde;
widthMetricsKey = n;
layers = (
{
layerId = "1113A850-F682-47D2-ADE2-EC9FE9EA14FB";
shapes = (
{
closed = 1;
nodes = (
(120,240,l),
(340,160,l),
(340,385,l),
(430,385,l),
(430,340,l),
(590,180,l),
(800,180,l),
(960,340,l),
(960,485,l),
(740,565,l),
(740,340,l),
(650,340,l),
(650,385,l),
(490,545,l),
(280,545,l),
(120,385,l)
);
}
);
width = 1080;
},
{
layerId = "E9E5670F-9E32-448B-B4B9-C07C5584615B";
shapes = (
{
closed = 1;
nodes = (
(140,240,l),
(260,200,l),
(260,395,l),
(480,395,l),
(480,320,l),
(600,200,l),
(820,200,l),
(940,320,l),
(940,475,l),
(820,515,l),
(820,320,l),
(600,320,l),
(600,395,l),
(480,515,l),
(260,515,l),
(140,395,l)
);
}
);
width = 1080;
}
);
unicode = 126;
},
{
glyphname = exclamdown;
widthMetricsKey = n;
layers = (
{
layerId = "1113A850-F682-47D2-ADE2-EC9FE9EA14FB";
shapes = (
{
closed = 1;
locked = 1;
nodes = (
(675,550,l),
(405,550,l),
(405,360,l),
(675,360,l)
);
},
{
closed = 1;
nodes = (
(425,-130,l),
(655,-130,l),
(655,290,l),
(425,290,l)
);
}
);
width = 1080;
},
{
layerId = "E9E5670F-9E32-448B-B4B9-C07C5584615B";
shapes = (
{
closed = 1;
locked = 1;
nodes = (
(625,550,l),
(455,550,l),
(455,410,l),
(625,410,l)
);
},
{
closed = 1;
nodes = (
(475,-130,l),
(605,-130,l),
(605,330,l),
(475,330,l)
);
}
);
width = 1080;
}
);
unicode = 161;
},
{
glyphname = questiondown;
widthMetricsKey = n;
layers = (
{
layerId = "9D159635-77F7-44CC-9E0F-31B3DA2CA598";
name = "#instance";
shapes = (
{
closed = 1;
locked = 1;
nodes = (
(675,550,l),
(405,550,l),
(405,360,l),
(675,360,l)
);
},
{
closed = 1;
nodes = (
(425,300,l),
(425,255,l),
(280,255,l),
(120,95,l),
(120,10,l),
(280,-150,l),
(916,-150,l),
(960,10,l),
(350,10,l),
(350,95,l),
(505,95,l),
(655,245,l),
(655,300,l)
);
}
);
width = 1080;
},
{
layerId = "1113A850-F682-47D2-ADE2-EC9FE9EA14FB";
shapes = (
{
closed = 1;
locked = 1;
nodes = (
(675,550,l),
(405,550,l),
(405,360,l),
(675,360,l)
);
},
{
closed = 1;
nodes = (
(425,300,l),
(425,255,l),
(280,255,l),
(120,95,l),
(120,10,l),
(280,-150,l),
(916,-150,l),
(960,10,l),
(350,10,l),
(350,95,l),
(505,95,l),
(655,245,l),
(655,300,l)
);
}
);
width = 1080;
},
{
layerId = "E9E5670F-9E32-448B-B4B9-C07C5584615B";
shapes = (
{
closed = 1;
locked = 1;
nodes = (
(625,550,l),
(455,550,l),
(455,410,l),
(625,410,l)
);
},
{
closed = 1;
nodes = (
(475,330,l),
(475,245,l),
(260,245,l),
(140,125,l),
(140,-30,l),
(260,-150,l),
(896,-150,l),
(940,-30,l),
(270,-30,l),
(270,125,l),
(495,125,l),
(605,235,l),
(605,330,l)
);
}
);
width = 1080;
}
);
unicode = 191;
},
{
glyphname = cent;
widthMetricsKey = n;
layers = (
{
layerId = "9D159635-77F7-44CC-9E0F-31B3DA2CA598";
name = "#instance";
shapes = (
{
closed = 1;
nodes = (
(705,700,l),
(475,700,l),
(475,570,l),
(495,570,l),
(495,130,l),
(475,130,l),
(475,0,l),
(705,0,l),
(705,130,l),
(685,130,l),
(685,570,l),
(705,570,l)
);
},
{
closed = 1;
nodes = (
(980,235,l),
(330,235,l),
(330,465,l),
(980,465,l),
(922,625,l),
(260,625,l),
(100,465,l),
(100,235,l),
(260,75,l),
(922,75,l)
);
}
);
width = 1080;
},
{
layerId = "1113A850-F682-47D2-ADE2-EC9FE9EA14FB";
shapes = (
{
closed = 1;
nodes = (
(705,700,l),
(475,700,l),
(475,570,l),
(495,570,l),
(495,130,l),
(475,130,l),
(475,0,l),
(705,0,l),
(705,130,l),
(685,130,l),
(685,570,l),
(705,570,l)
);
},
{
closed = 1;
nodes = (
(980,235,l),
(330,235,l),
(330,465,l),
(980,465,l),
(922,625,l),
(260,625,l),
(100,465,l),
(100,235,l),
(260,75,l),
(922,75,l)
);
}
);
width = 1080;
},
{
layerId = "E9E5670F-9E32-448B-B4B9-C07C5584615B";
shapes = (
{
closed = 1;
nodes = (
(635,700,l),
(505,700,l),
(505,600,l),
(515,600,l),
(515,100,l),
(505,100,l),
(505,0,l),
(635,0,l),
(635,100,l),
(625,100,l),
(625,600,l),
(635,600,l)
);
},
{
closed = 1;
nodes = (
(960,195,l),
(250,195,l),
(250,505,l),
(960,505,l),
(916,625,l),
(240,625,l),
(120,505,l),
(120,195,l),
(240,75,l),
(916,75,l)
);
}
);
width = 1080;
}
);
unicode = 162;
},
{
glyphname = sterling;
widthMetricsKey = n;
layers = (
{
layerId = "9D159635-77F7-44CC-9E0F-31B3DA2CA598";
name = "#instance";
shapes = (
{
closed = 1;
nodes = (
(970,0,l),
(970,120,l),
(110,120,l),
(110,0,l)
);
},
{
closed = 1;
nodes = (
(485,10,l),
(485,580,l),
(1005,580,l),
(962,700,l),
(475,700,l),
(355,580,l),
(355,10,l)
);
},
{
closed = 1;
nodes = (
(735,295,l),
(735,415,l),
(175,415,l),
(175,295,l)
);
}
);
width = 1080;
},
{
layerId = "1113A850-F682-47D2-ADE2-EC9FE9EA14FB";
shapes = (
{
closed = 1;
nodes = (
(990,0,l),
(990,160,l),
(90,160,l),
(90,0,l)
);
},
{
closed = 1;
nodes = (
(545,10,l),
(545,540,l),
(1015,540,l),
(957,700,l),
(475,700,l),
(315,540,l),
(315,10,l)
);
},
{
closed = 1;
nodes = (
(815,265,l),
(815,425,l),
(155,425,l),
(155,265,l)
);
}
);
width = 1080;
},
{
layerId = "E9E5670F-9E32-448B-B4B9-C07C5584615B";
shapes = (
{
closed = 1;
nodes = (
(970,0,l),
(970,120,l),
(110,120,l),
(110,0,l)
);
},
{
closed = 1;
nodes = (
(485,10,l),
(485,580,l),
(1005,580,l),
(962,700,l),
(475,700,l),
(355,580,l),
(355,10,l)
);
},
{
closed = 1;
nodes = (
(735,295,l),
(735,415,l),
(175,415,l),
(175,295,l)
);
}
);
width = 1080;
}
);
unicode = 163;
},
{
glyphname = currency;
widthMetricsKey = n;
layers = (
{
layerId = "1113A850-F682-47D2-ADE2-EC9FE9EA14FB";
shapes = (
{
closed = 1;
nodes = (
(202,133,l),
(335,133,l),
(384,191,l),
(697,191,l),
(746,133,l),
(878,133,l),
(748,303,l),
(748,394,l),
(871,558,l),
(739,558,l),
(690,500,l),
(391,500,l),
(342,558,l),
(209,558,l),
(332,394,l),
(332,303,l)
);
},
{
closed = 1;
nodes = (
(437,289,l),
(437,402,l),
(643,402,l),
(643,289,l)
);
}
);
width = 1080;
},
{
layerId = "E9E5670F-9E32-448B-B4B9-C07C5584615B";
shapes = (
{
closed = 1;
nodes = (
(255,153,l),
(355,153,l),
(404,211,l),
(677,211,l),
(726,153,l),
(825,153,l),
(728,273,l),
(728,424,l),
(818,538,l),
(719,538,l),
(670,480,l),
(411,480,l),
(362,538,l),
(262,538,l),
(352,424,l),
(352,273,l)
);
},
{
closed = 1;
nodes = (
(437,289,l),
(437,402,l),
(643,402,l),
(643,289,l)
);
}
);
width = 1080;
}
);
unicode = 164;
},
{
glyphname = yen;
widthMetricsKey = n;
layers = (
{
layerId = "1113A850-F682-47D2-ADE2-EC9FE9EA14FB";
shapes = (
{
closed = 1;
nodes = (
(750,700,l),
(750,440,l),
(330,440,l),
(330,700,l),
(100,700,l),
(100,440,l),
(260,280,l),
(820,280,l),
(980,440,l),
(980,700,l)
);
},
{
closed = 1;
nodes = (
(655,370,l),
(425,370,l),
(425,0,l),
(655,0,l)
);
},
{
closed = 1;
nodes = (
(915,72,l),
(915,212,l),
(165,212,l),
(165,72,l)
);
}
);
width = 1080;
},
{
layerId = "E9E5670F-9E32-448B-B4B9-C07C5584615B";
shapes = (
{
closed = 1;
nodes = (
(830,700,l),
(830,420,l),
(250,420,l),
(250,700,l),
(120,700,l),
(120,420,l),
(240,300,l),
(840,300,l),
(960,420,l),
(960,700,l)
);
},
{
closed = 1;
nodes = (
(605,410,l),
(475,410,l),
(475,0,l),
(605,0,l)
);
},
{
closed = 1;
nodes = (
(895,92,l),
(895,202,l),
(185,202,l),
(185,92,l)
);
}
);
width = 1080;
}
);
unicode = 165;
},
{
glyphname = brokenbar;
widthMetricsKey = n;
layers = (
{
layerId = "9D159635-77F7-44CC-9E0F-31B3DA2CA598";
name = "#instance";
shapes = (
{
closed = 1;
nodes = (
(655,850,l),
(425,850,l),
(425,420,l),
(655,420,l)
);
},
{
closed = 1;
nodes = (
(655,280,l),
(425,280,l),
(425,-150,l),
(655,-150,l)
);
}
);
width = 1080;
},
{
layerId = "1113A850-F682-47D2-ADE2-EC9FE9EA14FB";
shapes = (
{
closed = 1;
nodes = (
(655,850,l),
(425,850,l),
(425,420,l),
(655,420,l)
);
},
{
closed = 1;
nodes = (
(655,280,l),
(425,280,l),
(425,-150,l),
(655,-150,l)
);
}
);
width = 1080;
},
{
layerId = "E9E5670F-9E32-448B-B4B9-C07C5584615B";
shapes = (
{
closed = 1;
nodes = (
(605,850,l),
(475,850,l),
(475,430,l),
(605,430,l)
);
},
{
closed = 1;
nodes = (
(605,270,l),
(475,270,l),
(475,-150,l),
(605,-150,l)
);
}
);
width = 1080;
}
);
unicode = 166;
},
{
glyphname = section;
widthMetricsKey = n;
layers = (
{
layerId = "1113A850-F682-47D2-ADE2-EC9FE9EA14FB";
shapes = (
{
closed = 1;
nodes = (
(830,65,l),
(990,225,l),
(990,315,l),
(845,460,l,{name = .dv04;}),
(310,460,l),
(310,550,l),
(970,550,l,{name = .dv05;}),
(915,700,l),
(260,700,l),
(100,540,l),
(100,465,l),
(255,310,l,{name = .dv02;}),
(780,310,l,{name = .dv03;}),
(780,215,l)
);
},
{
closed = 1;
nodes = (
(260,460,l),
(100,300,l),
(100,210,l),
(245,65,l,{name = .dv04;}),
(780,65,l),
(780,-25,l),
(120,-25,l,{name = .dv05;}),
(175,-175,l),
(830,-175,l),
(990,-15,l),
(990,60,l),
(835,215,l,{name = .dv02;}),
(310,215,l,{name = .dv03;}),
(310,310,l)
);
}
);
width = 1080;
},
{
layerId = "E9E5670F-9E32-448B-B4B9-C07C5584615B";
shapes = (
{
closed = 1;
nodes = (
(850,70,l),
(970,190,l),
(970,335,l),
(865,440,l,{name = .dv04;}),
(250,440,l,{name = .sv02;}),
(250,590,l,{name = .sv01;}),
(950,590,l,{name = .dv03;}),
(910,700,l,{name = .sv03;}),
(240,700,l),
(120,580,l),
(120,445,l),
(235,330,l,{name = .dv02;}),
(840,330,l,{name = .sv05;}),
(840,180,l)
);
},
{
closed = 1;
nodes = (
(240,440,l),
(120,320,l),
(120,175,l),
(225,70,l,{name = .dv04;}),
(840,70,l,{name = .sv02;}),
(840,-80,l,{name = .sv01;}),
(140,-80,l,{name = .dv03;}),
(180,-190,l,{name = .sv03;}),
(850,-190,l),
(970,-70,l),
(970,65,l),
(855,180,l,{name = .dv02;}),
(250,180,l,{name = .sv05;}),
(250,330,l)
);
}
);
width = 1080;
}
);
unicode = 167;
},
{
glyphname = dieresis;
widthMetricsKey = n;
layers = (
{
layerId = "1113A850-F682-47D2-ADE2-EC9FE9EA14FB";
shapes = (
{
closed = 1;
nodes = (
(225,610,l),
(475,610,l),
(475,770,l),
(225,770,l)
);
},
{
closed = 1;
nodes = (
(605,610,l),
(855,610,l),
(855,770,l),
(605,770,l)
);
},
{
alignment = -1;
ref = space;
}
);
width = 1080;
},
{
layerId = "E9E5670F-9E32-448B-B4B9-C07C5584615B";
shapes = (
{
closed = 1;
nodes = (
(285,630,l),
(435,630,l),
(435,750,l),
(285,750,l)
);
},
{
closed = 1;
nodes = (
(645,630,l),
(795,630,l),
(795,750,l),
(645,750,l)
);
},
{
alignment = -1;
ref = space;
}
);
width = 1080;
}
);
unicode = 168;
},
{
glyphname = copyright;
widthMetricsKey = n;
layers = (
{
layerId = "1113A850-F682-47D2-ADE2-EC9FE9EA14FB";
shapes = (
{
closed = 1;
nodes = (
(200,-150,l),
(880,-150,l),
(1040,10,l),
(1040,590,l),
(880,750,l),
(200,750,l),
(40,590,l),
(40,10,l)
);
},
{
closed = 1;
nodes = (
(240,10,l),
(240,590,l),
(840,590,l),
(840,10,l)
);
},
{
closed = 1;
nodes = (
(750,230,l),
(520,230,l),
(520,370,l),
(750,370,l),
(699,510,l),
(470,510,l),
(330,370,l),
(330,230,l),
(470,90,l),
(699,90,l)
);
}
);
width = 1080;
},
{
layerId = "E9E5670F-9E32-448B-B4B9-C07C5584615B";
shapes = (
{
closed = 1;
nodes = (
(180,-150,l),
(900,-150,l),
(1020,-30,l),
(1020,630,l),
(900,750,l),
(180,750,l),
(60,630,l),
(60,-30,l)
);
},
{
closed = 1;
nodes = (
(190,-30,l),
(190,630,l),
(890,630,l),
(890,-30,l)
);
},
{
closed = 1;
nodes = (
(800,180,l),
(420,180,l),
(420,420,l),
(800,420,l),
(756,540,l),
(410,540,l),
(290,420,l),
(290,180,l),
(410,60,l),
(756,60,l)
);
}
);
width = 1080;
}
);
unicode = 169;
},
{
glyphname = ordfeminine;
widthMetricsKey = n;
layers = (
{
layerId = "9D159635-77F7-44CC-9E0F-31B3DA2CA598";
name = "#instance";
shapes = (
{
closed = 1;
nodes = (
(390,380,l),
(390,580,l),
(690,580,l),
(690,630,l),
(620,700,l),
(380,700,l),
(260,580,l),
(260,380,l),
(380,260,l),
(620,260,l),
(690,330,l),
(690,380,l)
);
},
{
closed = 1;
nodes = (
(820,700,l),
(720,700,l),
(720,630,l),
(690,630,l),
(690,330,l),
(720,330,l),
(720,260,l),
(820,260,l)
);
}
);
width = 1080;
},
{
layerId = "1113A850-F682-47D2-ADE2-EC9FE9EA14FB";
shapes = (
{
closed = 1;
nodes = (
(440,417,l),
(440,540,l),
(640,540,l),
(640,630,l),
(570,700,l),
(380,700,l),
(240,560,l),
(240,397,l),
(380,257,l),
(570,257,l),
(640,327,l),
(640,417,l)
);
},
{
closed = 1;
nodes = (
(840,700,l),
(670,700,l),
(670,630,l),
(640,630,l),
(640,327,l),
(670,327,l),
(670,257,l),
(840,257,l)
);
}
);
width = 1080;
},
{
layerId = "E9E5670F-9E32-448B-B4B9-C07C5584615B";
shapes = (
{
closed = 1;
nodes = (
(390,380,l),
(390,580,l),
(690,580,l),
(690,630,l),
(620,700,l),
(380,700,l),
(260,580,l),
(260,380,l),
(380,260,l),
(620,260,l),
(690,330,l),
(690,380,l)
);
},
{
closed = 1;
nodes = (
(820,700,l),
(720,700,l),
(720,630,l),
(690,630,l),
(690,330,l),
(720,330,l),
(720,260,l),
(820,260,l)
);
}
);
width = 1080;
}
);
unicode = 170;
},
{
glyphname = guillemotleft;
widthMetricsKey = n;
layers = (
{
layerId = "1113A850-F682-47D2-ADE2-EC9FE9EA14FB";
shapes = (
{
closed = 1;
nodes = (
(500,184,l),
(250,304,l),
(250,328,l),
(500,448,l),
(500,682,l),
(90,475,l),
(90,157,l),
(500,-50,l)
);
},
{
closed = 1;
nodes = (
(990,184,l),
(740,304,l),
(740,328,l),
(990,448,l),
(990,682,l),
(580,475,l),
(580,157,l),
(990,-50,l)
);
}
);
width = 1080;
},
{
layerId = "E9E5670F-9E32-448B-B4B9-C07C5584615B";
shapes = (
{
closed = 1;
nodes = (
(530,112,l),
(220,304,l),
(220,328,l),
(530,520,l),
(530,662,l),
(100,395,l),
(100,237,l),
(530,-30,l)
);
},
{
closed = 1;
nodes = (
(980,112,l),
(670,304,l),
(670,328,l),
(980,520,l),
(980,662,l),
(550,395,l),
(550,237,l),
(980,-30,l)
);
}
);
width = 1080;
}
);
unicode = 171;
},
{
glyphname = logicalnot;
widthMetricsKey = n;
layers = (
{
layerId = "9D159635-77F7-44CC-9E0F-31B3DA2CA598";
name = "#instance";
shapes = (
{
closed = 1;
nodes = (
(905,370,l),
(915,530,l),
(165,530,l),
(165,370,l)
);
},
{
closed = 1;
nodes = (
(915,530,l),
(685,520,l),
(685,200,l),
(915,200,l)
);
}
);
width = 1080;
},
{
layerId = "1113A850-F682-47D2-ADE2-EC9FE9EA14FB";
shapes = (
{
closed = 1;
nodes = (
(905,370,l),
(915,530,l),
(165,530,l),
(165,370,l)
);
},
{
closed = 1;
nodes = (
(915,530,l),
(685,520,l),
(685,200,l),
(915,200,l)
);
}
);
width = 1080;
},
{
layerId = "E9E5670F-9E32-448B-B4B9-C07C5584615B";
shapes = (
{
closed = 1;
nodes = (
(885,390,l),
(895,510,l),
(185,510,l),
(185,390,l)
);
},
{
closed = 1;
nodes = (
(895,510,l),
(765,500,l),
(765,210,l),
(895,210,l)
);
}
);
width = 1080;
}
);
unicode = 172;
},
{
glyphname = softhyphen;
widthMetricsKey = n;
layers = (
{
layerId = "9D159635-77F7-44CC-9E0F-31B3DA2CA598";
name = "#instance";
shapes = (
{
closed = 1;
nodes = (
(865,270,l),
(865,430,l),
(215,430,l),
(215,270,l)
);
}
);
width = 1080;
},
{
layerId = "1113A850-F682-47D2-ADE2-EC9FE9EA14FB";
shapes = (
{
closed = 1;
nodes = (
(865,270,l),
(865,430,l),
(215,430,l),
(215,270,l)
);
}
);
width = 1080;
},
{
layerId = "E9E5670F-9E32-448B-B4B9-C07C5584615B";
shapes = (
{
closed = 1;
nodes = (
(845,290,l),
(845,410,l),
(235,410,l),
(235,290,l)
);
}
);
width = 1080;
}
);
unicode = 173;
},
{
glyphname = registered;
widthMetricsKey = n;
layers = (
{
layerId = "9D159635-77F7-44CC-9E0F-31B3DA2CA598";
name = "#instance";
shapes = (
{
closed = 1;
nodes = (
(200,-150,l),
(880,-150,l),
(1040,10,l),
(1040,590,l),
(880,750,l),
(200,750,l),
(40,590,l),
(40,10,l)
);
},
{
closed = 1;
nodes = (
(240,10,l),
(240,590,l),
(840,590,l),
(840,10,l)
);
},
{
closed = 1;
nodes = (
(499,503,l),
(329,503,l),
(329,80,l),
(499,80,l)
);
},
{
closed = 1;
nodes = (
(289,513,l),
(289,383,l),
(611,383,l),
(611,227,l),
(666,227,l),
(781,342,l),
(781,393,l),
(661,513,l)
);
},
{
closed = 1;
nodes = (
(606,80,l),
(776,80,l),
(776,167,l),
(636,307,l),
(469,307,l),
(469,177,l),
(606,177,l)
);
}
);
width = 1080;
},
{
layerId = "1113A850-F682-47D2-ADE2-EC9FE9EA14FB";
shapes = (
{
closed = 1;
nodes = (
(200,-150,l),
(880,-150,l),
(1040,10,l),
(1040,590,l),
(880,750,l),
(200,750,l),
(40,590,l),
(40,10,l)
);
},
{
closed = 1;
nodes = (
(240,10,l),
(240,590,l),
(840,590,l),
(840,10,l)
);
},
{
closed = 1;
nodes = (
(499,503,l),
(329,503,l),
(329,80,l),
(499,80,l)
);
},
{
closed = 1;
nodes = (
(289,513,l),
(289,383,l),
(611,383,l),
(611,227,l),
(666,227,l),
(781,342,l),
(781,393,l),
(661,513,l)
);
},
{
closed = 1;
nodes = (
(606,80,l),
(776,80,l),
(776,167,l),
(636,307,l),
(469,307,l),
(469,177,l),
(606,177,l)
);
}
);
width = 1080;
},
{
layerId = "E9E5670F-9E32-448B-B4B9-C07C5584615B";
shapes = (
{
closed = 1;
nodes = (
(180,-150,l),
(900,-150,l),
(1020,-30,l),
(1020,630,l),
(900,750,l),
(180,750,l),
(60,630,l),
(60,-30,l)
);
},
{
closed = 1;
nodes = (
(190,-30,l),
(190,630,l),
(890,630,l),
(890,-30,l)
);
},
{
closed = 1;
nodes = (
(440,530,l),
(310,530,l),
(310,60,l),
(440,60,l)
);
},
{
closed = 1;
nodes = (
(250,540,l),
(250,420,l),
(665,420,l),
(665,230,l),
(680,230,l),
(795,345,l),
(795,420,l),
(675,540,l)
);
},
{
closed = 1;
nodes = (
(660,60,l),
(790,60,l),
(790,180,l),
(670,300,l),
(410,300,l),
(410,180,l),
(660,180,l)
);
}
);
width = 1080;
}
);
unicode = 174;
},
{
glyphname = macron;
widthMetricsKey = n;
layers = (
{
layerId = "1113A850-F682-47D2-ADE2-EC9FE9EA14FB";
shapes = (
{
closed = 1;
nodes = (
(815,600,l),
(815,700,l),
(265,700,l),
(265,600,l)
);
},
{
alignment = -1;
pos = (0,270);
ref = space;
}
);
width = 1080;
},
{
layerId = "E9E5670F-9E32-448B-B4B9-C07C5584615B";
shapes = (
{
closed = 1;
nodes = (
(815,600,l),
(815,700,l),
(265,700,l),
(265,600,l)
);
},
{
alignment = -1;
pos = (0,290);
ref = space;
}
);
width = 1080;
}
);
unicode = 175;
},
{
glyphname = degree;
widthMetricsKey = n;
layers = (
{
layerId = "9D159635-77F7-44CC-9E0F-31B3DA2CA598";
name = "#instance";
shapes = (
{
closed = 1;
nodes = (
(310,430,l),
(420,320,l),
(660,320,l),
(770,430,l),
(770,590,l),
(660,700,l),
(420,700,l),
(310,590,l)
);
},
{
closed = 1;
nodes = (
(430,430,l),
(430,590,l),
(650,590,l),
(650,430,l)
);
}
);
width = 1080;
},
{
layerId = "1113A850-F682-47D2-ADE2-EC9FE9EA14FB";
shapes = (
{
closed = 1;
nodes = (
(280,430,l),
(420,290,l),
(660,290,l),
(800,430,l),
(800,560,l),
(660,700,l),
(420,700,l),
(280,560,l)
);
},
{
closed = 1;
nodes = (
(450,430,l),
(450,560,l),
(630,560,l),
(630,430,l)
);
}
);
width = 1080;
},
{
layerId = "E9E5670F-9E32-448B-B4B9-C07C5584615B";
shapes = (
{
closed = 1;
nodes = (
(310,430,l),
(420,320,l),
(660,320,l),
(770,430,l),
(770,590,l),
(660,700,l),
(420,700,l),
(310,590,l)
);
},
{
closed = 1;
nodes = (
(430,430,l),
(430,590,l),
(650,590,l),
(650,430,l)
);
}
);
width = 1080;
}
);
unicode = 176;
},
{
glyphname = plusminus;
widthMetricsKey = n;
layers = (
{
layerId = "1113A850-F682-47D2-ADE2-EC9FE9EA14FB";
shapes = (
{
closed = 1;
locked = 1;
nodes = (
(940,270,l),
(940,430,l),
(140,430,l),
(140,270,l)
);
},
{
closed = 1;
locked = 1;
nodes = (
(655,630,l),
(425,630,l),
(425,70,l),
(655,70,l)
);
},
{
closed = 1;
locked = 1;
nodes = (
(940,0,l),
(940,160,l),
(140,160,l),
(140,0,l)
);
}
);
width = 1080;
},
{
layerId = "E9E5670F-9E32-448B-B4B9-C07C5584615B";
shapes = (
{
closed = 1;
locked = 1;
nodes = (
(940,290,l),
(940,410,l),
(140,410,l),
(140,290,l)
);
},
{
closed = 1;
locked = 1;
nodes = (
(605,630,l),
(475,630,l),
(475,70,l),
(605,70,l)
);
},
{
closed = 1;
locked = 1;
nodes = (
(940,0,l),
(940,120,l),
(140,120,l),
(140,0,l)
);
}
);
width = 1080;
}
);
unicode = 177;
},
{
glyphname = twosuperior;
widthMetricsKey = n;
layers = (
{
layerId = "1113A850-F682-47D2-ADE2-EC9FE9EA14FB";
shapes = (
{
closed = 1;
nodes = (
(751,340,l),
(751,450,l),
(499,450,l),
(499,490,l),
(641,490,l),
(751,600,l),
(751,640,l),
(661,750,l),
(375,750,l),
(342,640,l),
(581,640,l),
(581,600,l),
(439,600,l),
(329,490,l),
(329,340,l)
);
}
);
width = 1080;
},
{
layerId = "E9E5670F-9E32-448B-B4B9-C07C5584615B";
shapes = (
{
closed = 1;
nodes = (
(736,370,l),
(736,460,l),
(464,460,l),
(464,515,l),
(636,515,l),
(726,605,l),
(726,660,l),
(636,750,l),
(390,750,l),
(357,660,l),
(606,660,l),
(606,605,l),
(434,605,l),
(344,515,l),
(344,370,l)
);
}
);
width = 1080;
}
);
unicode = 178;
},
{
glyphname = threesuperior;
widthMetricsKey = n;
layers = (
{
layerId = "1113A850-F682-47D2-ADE2-EC9FE9EA14FB";
shapes = (
{
closed = 1;
nodes = (
(641,498,l),
(741,598,l),
(741,640,l),
(631,750,l),
(369,750,l),
(329,640,l),
(571,640,l),
(571,598,l)
);
},
{
closed = 1;
nodes = (
(651,598,l),
(416,598,l),
(416,498,l),
(581,498,l),
(581,450,l),
(329,450,l),
(369,340,l),
(641,340,l),
(751,450,l),
(751,498,l)
);
}
);
width = 1080;
},
{
layerId = "E9E5670F-9E32-448B-B4B9-C07C5584615B";
shapes = (
{
closed = 1;
nodes = (
(640,523,l),
(720,603,l),
(720,660,l),
(630,750,l),
(383,750,l),
(350,660,l),
(600,660,l),
(600,603,l)
);
},
{
closed = 1;
nodes = (
(650,603,l),
(437,603,l),
(437,523,l),
(610,523,l),
(610,460,l),
(350,460,l),
(383,370,l),
(640,370,l),
(730,460,l),
(730,523,l)
);
}
);
width = 1080;
}
);
unicode = 179;
},
{
glyphname = acute;
widthMetricsKey = n;
layers = (
{
layerId = "9D159635-77F7-44CC-9E0F-31B3DA2CA598";
name = "#instance";
shapes = (
{
closed = 1;
locked = 1;
nodes = (
(720,752,l),
(592,400,l),
(360,400,l),
(488,752,l)
);
}
);
width = 1080;
},
{
layerId = "1113A850-F682-47D2-ADE2-EC9FE9EA14FB";
shapes = (
{
closed = 1;
locked = 1;
nodes = (
(720,752,l),
(592,400,l),
(360,400,l),
(488,752,l)
);
}
);
width = 1080;
},
{
layerId = "E9E5670F-9E32-448B-B4B9-C07C5584615B";
shapes = (
{
closed = 1;
locked = 1;
nodes = (
(670,752,l),
(542,400,l),
(410,400,l),
(538,752,l)
);
}
);
width = 1080;
}
);
unicode = 180;
},
{
glyphname = mu;
widthMetricsKey = n;
layers = (
{
layerId = "9D159635-77F7-44CC-9E0F-31B3DA2CA598";
name = "#instance";
shapes = (
{
closed = 1;
nodes = (
(130,-150,l),
(260,-150,l),
(260,120,l),
(130,120,l)
);
},
{
closed = 1;
locked = 1;
nodes = (
(260,550,l),
(130,550,l),
(130,120,l),
(250,0,l),
(750,0,l),
(820,70,l),
(820,120,l),
(260,120,l)
);
},
{
closed = 1;
locked = 1;
nodes = (
(950,550,l),
(820,550,l),
(820,70,l),
(850,70,l),
(850,0,l),
(950,0,l)
);
}
);
width = 1080;
},
{
layerId = "1113A850-F682-47D2-ADE2-EC9FE9EA14FB";
shapes = (
{
closed = 1;
nodes = (
(110,-150,l),
(340,-150,l),
(340,160,l),
(110,160,l)
);
},
{
closed = 1;
locked = 1;
nodes = (
(340,550,l),
(110,550,l),
(110,160,l),
(270,0,l),
(670,0,l),
(740,70,l),
(740,160,l),
(340,160,l)
);
},
{
closed = 1;
locked = 1;
nodes = (
(970,550,l),
(740,550,l),
(740,70,l),
(770,70,l),
(770,0,l),
(970,0,l)
);
}
);
width = 1080;
},
{
layerId = "E9E5670F-9E32-448B-B4B9-C07C5584615B";
shapes = (
{
closed = 1;
nodes = (
(130,-150,l),
(260,-150,l),
(260,120,l),
(130,120,l)
);
},
{
closed = 1;
locked = 1;
nodes = (
(260,550,l),
(130,550,l),
(130,120,l),
(250,0,l),
(750,0,l),
(820,70,l),
(820,120,l),
(260,120,l)
);
},
{
closed = 1;
locked = 1;
nodes = (
(950,550,l),
(820,550,l),
(820,70,l),
(850,70,l),
(850,0,l),
(950,0,l)
);
}
);
width = 1080;
}
);
unicode = 956;
},
{
glyphname = paragraph;
widthMetricsKey = n;
layers = (
{
layerId = "9D159635-77F7-44CC-9E0F-31B3DA2CA598";
name = "#instance";
shapes = (
{
closed = 1;
nodes = (
(466,540,l),
(1030,540,l),
(1030,700,l),
(250,700,l),
(90,540,l),
(90,330,l),
(250,170,l),
(466,170,l)
);
},
{
closed = 1;
nodes = (
(436,690,l),
(436,-150,l),
(646,-150,l),
(646,690,l)
);
},
{
closed = 1;
nodes = (
(751,690,l),
(751,-150,l),
(961,-150,l),
(961,690,l)
);
}
);
width = 1080;
},
{
layerId = "1113A850-F682-47D2-ADE2-EC9FE9EA14FB";
shapes = (
{
closed = 1;
nodes = (
(466,540,l),
(1030,540,l),
(1030,700,l),
(250,700,l),
(90,540,l),
(90,330,l),
(250,170,l),
(466,170,l)
);
},
{
closed = 1;
nodes = (
(436,690,l),
(436,-150,l),
(646,-150,l),
(646,690,l)
);
},
{
closed = 1;
nodes = (
(751,690,l),
(751,-150,l),
(961,-150,l),
(961,690,l)
);
}
);
width = 1080;
},
{
layerId = "E9E5670F-9E32-448B-B4B9-C07C5584615B";
shapes = (
{
closed = 1;
nodes = (
(618,580,l),
(1030,580,l),
(1030,700,l),
(230,700,l),
(110,580,l),
(110,360,l),
(230,240,l),
(618,240,l)
);
},
{
closed = 1;
nodes = (
(548,690,l),
(548,-150,l),
(678,-150,l),
(678,690,l)
);
},
{
closed = 1;
nodes = (
(796,690,l),
(796,-150,l),
(926,-150,l),
(926,690,l)
);
}
);
width = 1080;
}
);
unicode = 182;
},
{
glyphname = periodcentered;
widthMetricsKey = n;
layers = (
{
anchors = (
{
name = _center;
position = "{540, 375}";
}
);
layerId = "1113A850-F682-47D2-ADE2-EC9FE9EA14FB";
shapes = (
{
closed = 1;
locked = 1;
nodes = (
(405,280,l),
(675,280,l),
(675,470,l),
(405,470,l)
);
}
);
width = 1080;
},
{
anchors = (
{
name = _center;
position = "{540, 375}";
}
);
layerId = "E9E5670F-9E32-448B-B4B9-C07C5584615B";
shapes = (
{
closed = 1;
locked = 1;
nodes = (
(455,305,l),
(625,305,l),
(625,445,l),
(455,445,l)
);
}
);
width = 1080;
}
);
unicode = 183;
},
{
glyphname = cedilla;
widthMetricsKey = n;
layers = (
{
layerId = "9D159635-77F7-44CC-9E0F-31B3DA2CA598";
name = "#instance";
shapes = (
{
closed = 1;
nodes = (
(696,28,l),
(471,28,l),
(411,-32,l),
(571,-32,l),
(571,-70,l),
(259,-70,l),
(285,-150,l),
(671,-150,l),
(741,-80,l),
(741,-55,l),
(696,-10,l)
);
}
);
width = 1080;
},
{
layerId = "1113A850-F682-47D2-ADE2-EC9FE9EA14FB";
shapes = (
{
closed = 1;
nodes = (
(696,28,l),
(471,28,l),
(411,-32,l),
(571,-32,l),
(571,-70,l),
(259,-70,l),
(285,-150,l),
(671,-150,l),
(741,-80,l),
(741,-55,l),
(696,-10,l)
);
}
);
width = 1080;
},
{
layerId = "E9E5670F-9E32-448B-B4B9-C07C5584615B";
shapes = (
{
closed = 1;
nodes = (
(676,28,l),
(546,28,l),
(486,-32,l),
(601,-32,l),
(601,-80,l),
(349,-80,l),
(375,-150,l),
(651,-150,l),
(721,-80,l),
(721,-60,l),
(676,-15,l)
);
}
);
width = 1080;
}
);
unicode = 184;
},
{
glyphname = onesuperior;
widthMetricsKey = n;
layers = (
{
layerId = "9D159635-77F7-44CC-9E0F-31B3DA2CA598";
name = "#instance";
shapes = (
{
closed = 1;
nodes = (
(495,350,l),
(666,350,l),
(666,750,l),
(495,740,l)
);
},
{
closed = 1;
nodes = (
(339,470,l),
(339,340,l),
(762,340,l),
(762,470,l)
);
},
{
closed = 1;
nodes = (
(666,750,l),
(394,750,l),
(318,541,l),
(442,541,l),
(478,640,l),
(656,640,l)
);
}
);
width = 1080;
},
{
layerId = "1113A850-F682-47D2-ADE2-EC9FE9EA14FB";
shapes = (
{
closed = 1;
nodes = (
(495,350,l),
(666,350,l),
(666,750,l),
(495,740,l)
);
},
{
closed = 1;
nodes = (
(339,470,l),
(339,340,l),
(762,340,l),
(762,470,l)
);
},
{
closed = 1;
nodes = (
(666,750,l),
(394,750,l),
(318,541,l),
(442,541,l),
(478,640,l),
(656,640,l)
);
}
);
width = 1080;
},
{
layerId = "E9E5670F-9E32-448B-B4B9-C07C5584615B";
shapes = (
{
closed = 1;
nodes = (
(495,380,l),
(605,380,l),
(605,750,l),
(495,740,l)
);
},
{
closed = 1;
nodes = (
(359,470,l),
(359,370,l),
(731,370,l),
(731,470,l)
);
},
{
closed = 1;
nodes = (
(605,750,l),
(414,750,l),
(349,571,l),
(443,571,l),
(468,640,l),
(595,640,l)
);
}
);
width = 1080;
}
);
unicode = 185;
},
{
glyphname = ordmasculine;
widthMetricsKey = n;
layers = (
{
layerId = "9D159635-77F7-44CC-9E0F-31B3DA2CA598";
name = "#instance";
shapes = (
{
closed = 1;
nodes = (
(240,397,l),
(380,257,l),
(700,257,l),
(840,397,l),
(840,560,l),
(700,700,l),
(380,700,l),
(240,560,l)
);
},
{
closed = 1;
nodes = (
(440,417,l),
(440,540,l),
(640,540,l),
(640,417,l)
);
}
);
width = 1080;
},
{
layerId = "1113A850-F682-47D2-ADE2-EC9FE9EA14FB";
shapes = (
{
closed = 1;
nodes = (
(240,397,l),
(380,257,l),
(700,257,l),
(840,397,l),
(840,560,l),
(700,700,l),
(380,700,l),
(240,560,l)
);
},
{
closed = 1;
nodes = (
(440,417,l),
(440,540,l),
(640,540,l),
(640,417,l)
);
}
);
width = 1080;
},
{
layerId = "E9E5670F-9E32-448B-B4B9-C07C5584615B";
shapes = (
{
closed = 1;
nodes = (
(260,380,l),
(380,260,l),
(700,260,l),
(820,380,l),
(820,580,l),
(700,700,l),
(380,700,l),
(260,580,l)
);
},
{
closed = 1;
nodes = (
(390,380,l),
(390,580,l),
(690,580,l),
(690,380,l)
);
}
);
width = 1080;
}
);
unicode = 186;
},
{
glyphname = guillemotright;
widthMetricsKey = n;
layers = (
{
layerId = "1113A850-F682-47D2-ADE2-EC9FE9EA14FB";
shapes = (
{
closed = 1;
nodes = (
(580,184,l),
(830,304,l),
(830,328,l),
(580,448,l),
(580,682,l),
(990,475,l),
(990,157,l),
(580,-50,l)
);
},
{
closed = 1;
nodes = (
(90,184,l),
(340,304,l),
(340,328,l),
(90,448,l),
(90,682,l),
(500,475,l),
(500,157,l),
(90,-50,l)
);
}
);
width = 1080;
},
{
layerId = "E9E5670F-9E32-448B-B4B9-C07C5584615B";
shapes = (
{
closed = 1;
nodes = (
(550,112,l),
(860,304,l),
(860,328,l),
(550,520,l),
(550,662,l),
(980,395,l),
(980,237,l),
(550,-30,l)
);
},
{
closed = 1;
nodes = (
(100,112,l),
(410,304,l),
(410,328,l),
(100,520,l),
(100,662,l),
(530,395,l),
(530,237,l),
(100,-30,l)
);
}
);
width = 1080;
}
);
unicode = 187;
},
{
glyphname = onequarter;
widthMetricsKey = n;
layers = (
{
layerId = "9D159635-77F7-44CC-9E0F-31B3DA2CA598";
name = "#instance";
shapes = (
{
closed = 1;
nodes = (
(471,0,l),
(726,700,l),
(609,700,l),
(354,0,l)
);
},
{
closed = 1;
nodes = (
(186,330,l),
(296,330,l),
(296,700,l),
(186,690,l)
);
},
{
closed = 1;
nodes = (
(50,420,l),
(50,320,l),
(422,320,l),
(422,420,l)
);
},
{
closed = 1;
nodes = (
(296,700,l),
(105,700,l),
(40,521,l),
(134,521,l),
(159,590,l),
(286,590,l)
);
},
{
closed = 1;
nodes = (
(950,210,l),
(768,210,l),
(768,380,l),
(648,380,l),
(648,210,l),
(748,110,l),
(950,110,l)
);
},
{
closed = 1;
nodes = (
(920,0,l),
(1040,0,l),
(1040,380,l),
(920,380,l)
);
}
);
width = 1080;
},
{
layerId = "1113A850-F682-47D2-ADE2-EC9FE9EA14FB";
shapes = (
{
closed = 1;
nodes = (
(491,0,l),
(746,700,l),
(589,700,l),
(334,0,l)
);
},
{
closed = 1;
nodes = (
(186,300,l),
(356,300,l),
(356,700,l),
(186,690,l)
);
},
{
closed = 1;
nodes = (
(30,420,l),
(30,290,l),
(452,290,l),
(452,420,l)
);
},
{
closed = 1;
nodes = (
(356,700,l),
(85,700,l),
(9,491,l),
(133,491,l),
(169,590,l),
(346,590,l)
);
},
{
closed = 1;
nodes = (
(910,230,l),
(798,230,l),
(798,410,l),
(628,410,l),
(628,230,l),
(758,100,l),
(910,100,l)
);
},
{
closed = 1;
nodes = (
(880,0,l),
(1050,0,l),
(1050,410,l),
(880,410,l)
);
}
);
width = 1080;
},
{
layerId = "E9E5670F-9E32-448B-B4B9-C07C5584615B";
shapes = (
{
closed = 1;
nodes = (
(471,0,l),
(726,700,l),
(609,700,l),
(354,0,l)
);
},
{
closed = 1;
nodes = (
(186,330,l),
(296,330,l),
(296,700,l),
(186,690,l)
);
},
{
closed = 1;
nodes = (
(50,420,l),
(50,320,l),
(422,320,l),
(422,420,l)
);
},
{
closed = 1;
nodes = (
(296,700,l),
(105,700,l),
(40,521,l),
(134,521,l),
(159,590,l),
(286,590,l)
);
},
{
closed = 1;
nodes = (
(950,210,l),
(768,210,l),
(768,380,l),
(648,380,l),
(648,210,l),
(748,110,l),
(950,110,l)
);
},
{
closed = 1;
nodes = (
(920,0,l),
(1040,0,l),
(1040,380,l),
(920,380,l)
);
}
);
width = 1080;
}
);
unicode = 188;
},
{
glyphname = onehalf;
widthMetricsKey = n;
layers = (
{
layerId = "1113A850-F682-47D2-ADE2-EC9FE9EA14FB";
shapes = (
{
closed = 1;
nodes = (
(491,0,l),
(746,700,l),
(589,700,l),
(334,0,l)
);
},
{
closed = 1;
nodes = (
(186,300,l),
(356,300,l),
(356,700,l),
(186,690,l)
);
},
{
closed = 1;
nodes = (
(30,420,l),
(30,290,l),
(452,290,l),
(452,420,l)
);
},
{
closed = 1;
nodes = (
(356,700,l),
(85,700,l),
(9,491,l),
(133,491,l),
(169,590,l),
(346,590,l)
);
},
{
closed = 1;
nodes = (
(1050,0,l),
(1050,110,l),
(798,110,l),
(798,150,l),
(940,150,l),
(1050,260,l),
(1050,300,l),
(960,410,l),
(674,410,l),
(641,300,l),
(880,300,l),
(880,260,l),
(738,260,l),
(628,150,l),
(628,0,l)
);
}
);
width = 1080;
},
{
layerId = "E9E5670F-9E32-448B-B4B9-C07C5584615B";
shapes = (
{
closed = 1;
nodes = (
(471,0,l),
(726,700,l),
(609,700,l),
(354,0,l)
);
},
{
closed = 1;
nodes = (
(186,330,l),
(296,330,l),
(296,700,l),
(186,690,l)
);
},
{
closed = 1;
nodes = (
(50,420,l),
(50,320,l),
(422,320,l),
(422,420,l)
);
},
{
closed = 1;
nodes = (
(296,700,l),
(105,700,l),
(40,521,l),
(134,521,l),
(159,590,l),
(286,590,l)
);
},
{
closed = 1;
nodes = (
(1040,0,l),
(1040,90,l),
(768,90,l),
(768,145,l),
(940,145,l),
(1030,235,l),
(1030,290,l),
(940,380,l),
(694,380,l),
(661,290,l),
(910,290,l),
(910,235,l),
(738,235,l),
(648,145,l),
(648,0,l)
);
}
);
width = 1080;
}
);
unicode = 189;
},
{
glyphname = threequarters;
widthMetricsKey = n;
layers = (
{
layerId = "1113A850-F682-47D2-ADE2-EC9FE9EA14FB";
shapes = (
{
closed = 1;
nodes = (
(491,0,l),
(746,700,l),
(589,700,l),
(334,0,l)
);
},
{
closed = 1;
nodes = (
(910,230,l),
(798,230,l),
(798,410,l),
(628,410,l),
(628,230,l),
(758,100,l),
(910,100,l)
);
},
{
closed = 1;
nodes = (
(880,0,l),
(1050,0,l),
(1050,410,l),
(880,410,l)
);
},
{
closed = 1;
nodes = (
(342,448,l),
(442,548,l),
(442,590,l),
(332,700,l),
(70,700,l),
(30,590,l),
(272,590,l),
(272,548,l)
);
},
{
closed = 1;
nodes = (
(352,548,l),
(117,548,l),
(117,448,l),
(282,448,l),
(282,400,l),
(30,400,l),
(70,290,l),
(342,290,l),
(452,400,l),
(452,448,l)
);
}
);
width = 1080;
},
{
layerId = "E9E5670F-9E32-448B-B4B9-C07C5584615B";
shapes = (
{
closed = 1;
nodes = (
(471,0,l),
(726,700,l),
(609,700,l),
(354,0,l)
);
},
{
closed = 1;
nodes = (
(950,210,l),
(768,210,l),
(768,380,l),
(648,380,l),
(648,210,l),
(748,110,l),
(950,110,l)
);
},
{
closed = 1;
nodes = (
(920,0,l),
(1040,0,l),
(1040,380,l),
(920,380,l)
);
},
{
closed = 1;
nodes = (
(342,473,l),
(422,553,l),
(422,610,l),
(332,700,l),
(85,700,l),
(52,610,l),
(302,610,l),
(302,553,l)
);
},
{
closed = 1;
nodes = (
(352,553,l),
(139,553,l),
(139,473,l),
(312,473,l),
(312,410,l),
(52,410,l),
(85,320,l),
(342,320,l),
(432,410,l),
(432,473,l)
);
}
);
width = 1080;
}
);
unicode = 190;
},
{
glyphname = minus;
widthMetricsKey = n;
layers = (
{
layerId = "1113A850-F682-47D2-ADE2-EC9FE9EA14FB";
shapes = (
{
closed = 1;
locked = 1;
nodes = (
(940,270,l),
(940,430,l),
(140,430,l),
(140,270,l)
);
}
);
width = 1080;
},
{
layerId = "E9E5670F-9E32-448B-B4B9-C07C5584615B";
shapes = (
{
closed = 1;
locked = 1;
nodes = (
(940,290,l),
(940,410,l),
(140,410,l),
(140,290,l)
);
}
);
width = 1080;
}
);
unicode = 8722;
},
{
glyphname = dotlessi;
widthMetricsKey = n;
layers = (
{
anchors = (
{
name = bottom;
position = "{540, 0}";
},
{
name = top;
position = "{540, 550}";
}
);
layerId = "9D159635-77F7-44CC-9E0F-31B3DA2CA598";
name = "#instance";
shapes = (
{
closed = 1;
nodes = (
(655,550,l),
(425,540,l),
(425,160,l),
(585,0,l),
(967,0,l),
(1025,160,l),
(655,160,l)
);
},
{
closed = 1;
nodes = (
(645,395,l),
(655,550,l),
(85,550,l),
(85,395,l)
);
}
);
width = 1080;
},
{
anchors = (
{
name = bottom;
position = "{540, 0}";
},
{
name = top;
position = "{540, 550}";
}
);
layerId = "1113A850-F682-47D2-ADE2-EC9FE9EA14FB";
shapes = (
{
closed = 1;
nodes = (
(655,550,l),
(425,540,l),
(425,160,l),
(585,0,l),
(967,0,l),
(1025,160,l),
(655,160,l)
);
},
{
closed = 1;
nodes = (
(645,395,l),
(655,550,l),
(85,550,l),
(85,395,l)
);
}
);
width = 1080;
},
{
anchors = (
{
name = bottom;
position = "{540, 0}";
},
{
name = top;
position = "{540, 550}";
}
);
layerId = "E9E5670F-9E32-448B-B4B9-C07C5584615B";
shapes = (
{
closed = 1;
nodes = (
(605,550,l),
(475,540,l),
(475,120,l),
(595,0,l),
(961,0,l),
(1005,120,l),
(605,120,l)
);
},
{
closed = 1;
nodes = (
(595,435,l),
(605,550,l),
(105,550,l),
(105,435,l)
);
}
);
width = 1080;
}
);
unicode = 305;
},
{
glyphname = uni0237;
widthMetricsKey = n;
layers = (
{
anchors = (
{
name = bottom;
position = "{540, 0}";
},
{
name = top;
position = "{795, 550}";
}
);
layerId = "1113A850-F682-47D2-ADE2-EC9FE9EA14FB";
shapes = (
{
closed = 1;
nodes = (
(894,395,l),
(904,550,l),
(305,550,l),
(305,395,l)
);
},
{
closed = 1;
nodes = (
(675,540,l),
(675,10,l),
(95,10,l),
(139,-150,l),
(745,-150,l),
(905,10,l),
(904,550,l)
);
}
);
width = 1080;
},
{
anchors = (
{
name = bottom;
position = "{540, 0}";
},
{
name = top;
position = "{772, 550}";
}
);
layerId = "E9E5670F-9E32-448B-B4B9-C07C5584615B";
shapes = (
{
closed = 1;
nodes = (
(824,435,l),
(834,550,l),
(325,550,l),
(325,435,l)
);
},
{
closed = 1;
nodes = (
(705,540,l),
(705,-30,l),
(115,-30,l),
(159,-150,l),
(715,-150,l),
(834,-30,l),
(834,550,l)
);
}
);
width = 1080;
}
);
unicode = 567;
},
{
glyphname = gravecomb;
widthMetricsKey = n;
layers = (
{
anchors = (
{
name = _top;
position = "{540, 550}";
}
);
layerId = "1113A850-F682-47D2-ADE2-EC9FE9EA14FB";
shapes = (
{
closed = 1;
nodes = (
(265,590,l),
(642,590,l),
(642,630,l),
(380,700,l),
(265,700,l)
);
}
);
width = 1080;
},
{
anchors = (
{
name = _top;
position = "{540, 550}";
}
);
layerId = "E9E5670F-9E32-448B-B4B9-C07C5584615B";
shapes = (
{
closed = 1;
nodes = (
(305,600,l),
(685,600,l),
(685,610,l),
(350,700,l),
(305,700,l)
);
}
);
width = 1080;
}
);
unicode = 768;
},
{
glyphname = acutecomb;
widthMetricsKey = n;
layers = (
{
anchors = (
{
name = _top;
position = "{540, 550}";
}
);
layerId = "1113A850-F682-47D2-ADE2-EC9FE9EA14FB";
shapes = (
{
closed = 1;
nodes = (
(815,590,l),
(438,590,l),
(438,630,l),
(700,700,l),
(815,700,l)
);
}
);
width = 1080;
},
{
anchors = (
{
name = _top;
position = "{540, 550}";
}
);
layerId = "E9E5670F-9E32-448B-B4B9-C07C5584615B";
shapes = (
{
closed = 1;
nodes = (
(775,600,l),
(395,600,l),
(395,610,l),
(730,700,l),
(775,700,l)
);
}
);
width = 1080;
}
);
unicode = 769;
},
{
glyphname = circumflexcomb;
widthMetricsKey = n;
layers = (
{
anchors = (
{
name = _top;
position = "{540, 550}";
}
);
layerId = "1113A850-F682-47D2-ADE2-EC9FE9EA14FB";
shapes = (
{
closed = 1;
nodes = (
(233,590,l),
(847,590,l),
(847,630,l),
(655,700,l),
(425,700,l),
(233,630,l)
);
}
);
width = 1080;
},
{
anchors = (
{
name = _top;
position = "{540, 550}";
}
);
layerId = "E9E5670F-9E32-448B-B4B9-C07C5584615B";
shapes = (
{
closed = 1;
nodes = (
(248,600,l),
(832,600,l),
(832,610,l),
(585,700,l),
(495,700,l),
(248,610,l)
);
}
);
width = 1080;
}
);
unicode = 770;
},
{
glyphname = tildecomb;
widthMetricsKey = n;
layers = (
{
anchors = (
{
name = _top;
position = "{540, 550}";
}
);
layerId = "1113A850-F682-47D2-ADE2-EC9FE9EA14FB";
shapes = (
{
closed = 1;
nodes = (
(223,700,l),
(263,590,l),
(455,660,l),
(455,590,l),
(857,590,l),
(817,700,l),
(625,630,l),
(625,700,l)
);
}
);
width = 1080;
},
{
anchors = (
{
name = _top;
position = "{540, 550}";
}
);
layerId = "E9E5670F-9E32-448B-B4B9-C07C5584615B";
shapes = (
{
closed = 1;
nodes = (
(253,700,l),
(290,600,l),
(485,671,l),
(485,600,l),
(827,600,l),
(790,700,l),
(595,629,l),
(595,700,l)
);
}
);
width = 1080;
}
);
unicode = 771;
},
{
glyphname = macroncomb;
widthMetricsKey = n;
layers = (
{
anchors = (
{
name = _top;
position = "{540, 550}";
}
);
layerId = "1113A850-F682-47D2-ADE2-EC9FE9EA14FB";
shapes = (
{
closed = 1;
nodes = (
(815,600,l),
(815,700,l),
(265,700,l),
(265,600,l)
);
}
);
width = 1080;
},
{
anchors = (
{
name = _top;
position = "{540, 550}";
}
);
layerId = "E9E5670F-9E32-448B-B4B9-C07C5584615B";
shapes = (
{
closed = 1;
nodes = (
(795,620,l),
(795,700,l),
(285,700,l),
(285,620,l)
);
}
);
width = 1080;
}
);
unicode = 772;
},
{
glyphname = brevecomb;
widthMetricsKey = n;
layers = (
{
anchors = (
{
name = _top;
position = "{540, 550}";
}
);
layerId = "1113A850-F682-47D2-ADE2-EC9FE9EA14FB";
shapes = (
{
closed = 1;
nodes = (
(283,590,l),
(797,590,l),
(837,700,l),
(762,700,l),
(540,619,l),
(318,700,l),
(243,700,l)
);
}
);
width = 1080;
},
{
anchors = (
{
name = _top;
position = "{540, 550}";
}
);
layerId = "E9E5670F-9E32-448B-B4B9-C07C5584615B";
shapes = (
{
closed = 1;
nodes = (
(315,600,l),
(765,600,l),
(802,700,l),
(787,700,l),
(540,610,l),
(293,700,l),
(278,700,l)
);
}
);
width = 1080;
}
);
unicode = 774;
},
{
glyphname = dotaccentcomb;
widthMetricsKey = n;
layers = (
{
anchors = (
{
name = _top;
position = "{540, 550}";
}
);
layerId = "1113A850-F682-47D2-ADE2-EC9FE9EA14FB";
shapes = (
{
closed = 1;
locked = 1;
nodes = (
(428.813,590,l),
(652.022,590,l),
(652.022,699.349,l),
(428.813,699.349,l)
);
}
);
width = 1080;
},
{
anchors = (
{
name = _top;
position = "{540, 550}";
}
);
layerId = "E9E5670F-9E32-448B-B4B9-C07C5584615B";
shapes = (
{
closed = 1;
locked = 1;
nodes = (
(455,600,l),
(625,600,l),
(625,700.715,l),
(455,700.715,l)
);
}
);
width = 1080;
}
);
unicode = 775;
},
{
glyphname = hookabovecomb;
widthMetricsKey = n;
layers = (
{
anchors = (
{
name = _top;
position = "{540, 550}";
}
);
layerId = "1113A850-F682-47D2-ADE2-EC9FE9EA14FB";
shapes = (
{
closed = 1;
nodes = (
(726,590,l),
(756,620,l),
(756,652,l),
(708,700,l),
(354,700,l),
(324,620,l),
(586,620,l),
(586,590,l)
);
}
);
width = 1080;
},
{
anchors = (
{
name = _top;
position = "{540, 550}";
}
);
layerId = "E9E5670F-9E32-448B-B4B9-C07C5584615B";
shapes = (
{
closed = 1;
nodes = (
(696,600,l),
(726,630,l),
(726,652,l),
(678,700,l),
(376,700,l),
(354,640,l),
(606,640,l),
(606,600,l)
);
}
);
width = 1080;
}
);
unicode = 777;
},
{
glyphname = ringcomb;
widthMetricsKey = n;
layers = (
{
anchors = (
{
name = _top;
position = "{540, 550}";
}
);
layerId = "1113A850-F682-47D2-ADE2-EC9FE9EA14FB";
shapes = (
{
closed = 1;
nodes = (
(280,638,l),
(338,580,l),
(742,580,l),
(800,638,l),
(800,652,l),
(752,700,l),
(328,700,l),
(280,652,l)
);
},
{
closed = 1;
nodes = (
(450,610,l),
(450,670,l),
(630,670,l),
(630,610,l)
);
}
);
width = 1080;
},
{
anchors = (
{
name = _top;
position = "{540, 550}";
}
);
layerId = "E9E5670F-9E32-448B-B4B9-C07C5584615B";
shapes = (
{
closed = 1;
nodes = (
(320,638,l),
(378,580,l),
(702,580,l),
(760,638,l),
(760,652,l),
(712,700,l),
(368,700,l),
(320,652,l)
);
},
{
closed = 1;
nodes = (
(450,600,l),
(450,680,l),
(630,680,l),
(630,600,l)
);
}
);
width = 1080;
}
);
unicode = 778;
},
{
glyphname = hungarumlautcomb;
widthMetricsKey = n;
layers = (
{
anchors = (
{
name = _top;
position = "{540, 550}";
}
);
layerId = "1113A850-F682-47D2-ADE2-EC9FE9EA14FB";
shapes = (
{
closed = 1;
nodes = (
(507,590,l),
(200,590,l),
(200,630,l),
(392,700,l),
(507,700,l)
);
},
{
closed = 1;
nodes = (
(880,590,l),
(573,590,l),
(573,630,l),
(765,700,l),
(880,700,l)
);
}
);
width = 1080;
},
{
anchors = (
{
name = _top;
position = "{540, 550}";
}
);
layerId = "E9E5670F-9E32-448B-B4B9-C07C5584615B";
shapes = (
{
closed = 1;
nodes = (
(502,600,l),
(210,600,l),
(210,610,l),
(457,700,l),
(502,700,l)
);
},
{
closed = 1;
nodes = (
(870,600,l),
(578,600,l),
(578,610,l),
(825,700,l),
(870,700,l)
);
}
);
width = 1080;
}
);
unicode = 779;
},
{
glyphname = caroncomb;
widthMetricsKey = n;
layers = (
{
anchors = (
{
name = _top;
position = "{540, 550}";
}
);
layerId = "1113A850-F682-47D2-ADE2-EC9FE9EA14FB";
shapes = (
{
closed = 1;
nodes = (
(233,700,l),
(847,700,l),
(847,660,l),
(655,590,l),
(425,590,l),
(233,660,l)
);
}
);
width = 1080;
},
{
anchors = (
{
name = _top;
position = "{540, 550}";
}
);
layerId = "E9E5670F-9E32-448B-B4B9-C07C5584615B";
shapes = (
{
closed = 1;
nodes = (
(248,700,l),
(832,700,l),
(832,690,l),
(585,600,l),
(495,600,l),
(248,690,l)
);
}
);
width = 1080;
}
);
unicode = 780;
},
{
glyphname = commaturnedabovecomb;
widthMetricsKey = n;
layers = (
{
anchors = (
{
name = _top;
position = "{540, 550}";
}
);
layerId = "1113A850-F682-47D2-ADE2-EC9FE9EA14FB";
shapes = (
{
closed = 1;
nodes = (
(614,590,l),
(724,700,l),
(540,700,l),
(452,590,l)
);
}
);
width = 1080;
},
{
anchors = (
{
name = _top;
position = "{540, 550}";
}
);
layerId = "E9E5670F-9E32-448B-B4B9-C07C5584615B";
shapes = (
{
closed = 1;
nodes = (
(594,600,l),
(672,700,l),
(560,700,l),
(482,600,l)
);
}
);
width = 1080;
}
);
unicode = 786;
},
{
glyphname = commaaboverightcomb;
widthMetricsKey = n;
layers = (
{
anchors = (
{
name = _top3;
position = "{540, 550}";
}
);
layerId = "1113A850-F682-47D2-ADE2-EC9FE9EA14FB";
shapes = (
{
closed = 1;
nodes = (
(540,550,l),
(698,550,l),
(742,800,l),
(540,800,l)
);
}
);
width = 1080;
},
{
anchors = (
{
name = _top3;
position = "{540, 550}";
}
);
layerId = "E9E5670F-9E32-448B-B4B9-C07C5584615B";
shapes = (
{
closed = 1;
nodes = (
(540,550,l),
(628,550,l),
(672,800,l),
(540,800,l)
);
}
);
width = 1080;
}
);
unicode = 789;
},
{
glyphname = horncomb;
widthMetricsKey = n;
layers = (
{
anchors = (
{
name = _top2;
position = "{540, 550}";
}
);
layerId = "1113A850-F682-47D2-ADE2-EC9FE9EA14FB";
shapes = (
{
closed = 1;
nodes = (
(539,444,l),
(728,444,l),
(913,629,l),
(913,700,l),
(663,700,l),
(663,550,l),
(539,550,l)
);
}
);
width = 1080;
},
{
anchors = (
{
name = _top2;
position = "{540, 550}";
}
);
layerId = "E9E5670F-9E32-448B-B4B9-C07C5584615B";
shapes = (
{
closed = 1;
nodes = (
(539,444,l),
(663,444,l),
(833,614,l),
(833,700,l),
(663,700,l),
(663,550,l),
(539,550,l)
);
}
);
width = 1080;
}
);
unicode = 795;
},
{
glyphname = dotbelowcomb;
widthMetricsKey = n;
layers = (
{
anchors = (
{
name = _bottom;
position = "{540, 0}";
}
);
layerId = "1113A850-F682-47D2-ADE2-EC9FE9EA14FB";
shapes = (
{
closed = 1;
locked = 1;
nodes = (
(428.813,-150,l),
(652.022,-150,l),
(652.022,-40.651,l),
(428.813,-40.651,l)
);
}
);
width = 1080;
},
{
anchors = (
{
name = _bottom;
position = "{540, 0}";
}
);
layerId = "E9E5670F-9E32-448B-B4B9-C07C5584615B";
shapes = (
{
closed = 1;
locked = 1;
nodes = (
(455,-150,l),
(625,-150,l),
(625,-49.285,l),
(455,-49.285,l)
);
}
);
width = 1080;
}
);
unicode = 803;
},
{
glyphname = commaaccentcomb;
widthMetricsKey = n;
layers = (
{
anchors = (
{
name = _bottom;
position = "{540, 0}";
}
);
layerId = "1113A850-F682-47D2-ADE2-EC9FE9EA14FB";
shapes = (
{
closed = 1;
nodes = (
(487,-40,l),
(377,-150,l),
(561,-150,l),
(649,-40,l)
);
},
{
alignment = -1;
ref = space;
}
);
width = 1080;
},
{
anchors = (
{
name = _bottom;
position = "{540, 0}";
}
);
layerId = "E9E5670F-9E32-448B-B4B9-C07C5584615B";
shapes = (
{
closed = 1;
nodes = (
(497.,-50,l),
(419.,-150,l),
(531.,-150,l),
(609.,-50,l)
);
},
{
alignment = -1;
angle = -180;
pos = (1080,550);
ref = space;
}
);
width = 1080;
}
);
unicode = 806;
},
{
glyphname = ogonekcomb;
widthMetricsKey = n;
layers = (
{
anchors = (
{
name = _bottom2;
position = "{540, 0}";
}
);
layerId = "1113A850-F682-47D2-ADE2-EC9FE9EA14FB";
shapes = (
{
closed = 1;
nodes = (
(382,48,l),
(250,-28,l),
(250,-80,l),
(320,-150,l),
(524,-150,l),
(550,-70,l),
(405,-70,l),
(405,-60,l),
(540,0,l)
);
}
);
width = 1080;
},
{
anchors = (
{
name = _bottom2;
position = "{540, 0}";
}
);
layerId = "E9E5670F-9E32-448B-B4B9-C07C5584615B";
shapes = (
{
closed = 1;
nodes = (
(476,41,l),
(298,-44,l),
(298,-80,l),
(368,-150,l),
(524,-150,l),
(550,-80,l),
(397,-80,l),
(397,-65,l),
(540,0,l)
);
}
);
width = 1080;
}
);
unicode = 808;
},
{
color = (153, 154, 255, 255);
glyphname = gcommaaccent;
layers = (
{
anchors = (
{
name = top;
position = "{540, 550}";
},
{
name = bottom;
position = "{540, 0}";
}
);
layerId = "1113A850-F682-47D2-ADE2-EC9FE9EA14FB";
shapes = (
{
closed = 1;
nodes = (
(100,270,l),
(260,110,l),
(709,110,l),
(869,270,l),
(869,480,l),
(619,480,l),
(549,550,l),
(260,550,l),
(100,390,l)
);
},
{
closed = 1;
nodes = (
(350,270,l),
(350,390,l),
(619,390,l),
(619,270,l)
);
},
{
closed = 1;
nodes = (
(1000,550,l),
(649,550,l),
(649,390,l),
(1000,390,l)
);
},
{
closed = 1;
nodes = (
(651,10,l),
(709,-150,l),
(825,-150,l),
(985,10,l),
(985,60,l),
(865,180,l),
(808,180,l),
(808,220,l),
(440,220,l),
(600,60,l),
(735,60,l),
(735,10,l)
);
},
{
alignment = -1;
ref = commaaccentcomb;
}
);
width = 1080;
},
{
anchors = (
{
name = top;
position = "{540, 550}";
},
{
name = bottom;
position = "{540, 0}";
}
);
layerId = "E9E5670F-9E32-448B-B4B9-C07C5584615B";
shapes = (
{
closed = 1;
nodes = (
(130,249,l),
(250,129,l),
(709,129,l),
(829,249,l),
(829,480,l),
(699,480,l),
(629,550,l),
(250,550,l),
(130,430,l)
);
},
{
closed = 1;
nodes = (
(260,249,l),
(260,430,l),
(699,430,l),
(699,249,l)
);
},
{
closed = 1;
nodes = (
(980,550,l),
(729,550,l),
(729,430,l),
(980,430,l)
);
},
{
closed = 1;
nodes = (
(655,-30,l),
(699,-150,l),
(845,-150,l),
(965,-30,l),
(965,50,l),
(855,160,l),
(768,160,l),
(768,220,l),
(540,220,l),
(710,50,l),
(835,50,l),
(835,-30,l)
);
},
{
alignment = -1;
ref = commaaccentcomb;
}
);
width = 1080;
}
);
unicode = 291;
},
{
glyphname = AE;
widthMetricsKey = n;
layers = (
{
anchors = (
{
name = top;
position = "{540, 700}";
},
{
name = bottom;
position = "{540, 0}";
}
);
layerId = "1113A850-F682-47D2-ADE2-EC9FE9EA14FB";
shapes = (
{
closed = 1;
nodes = (
(258,0,l),
(455,540,l),
(515,540,l),
(515,0,l),
(745,0,l),
(745,700,l),
(295,700,l),
(40,0,l)
);
},
{
closed = 1;
nodes = (
(715,150,l),
(715,310,l),
(215,310,l),
(215,150,l)
);
},
{
closed = 1;
nodes = (
(1020,0,l),
(1020,160,l),
(525,160,l),
(515,0,l)
);
},
{
closed = 1;
nodes = (
(1020,700,l),
(515,700,l),
(515,540,l),
(1020,540,l)
);
},
{
closed = 1;
nodes = (
(970,270,l),
(970,430,l),
(660,430,l),
(660,270,l)
);
}
);
width = 1080;
},
{
anchors = (
{
name = top;
position = "{540, 700}";
},
{
name = bottom;
position = "{540, 0}";
}
);
layerId = "E9E5670F-9E32-448B-B4B9-C07C5584615B";
shapes = (
{
closed = 1;
nodes = (
(188,0,l),
(399,580,l),
(497,580,l),
(497,0,l),
(627,0,l),
(627,700,l),
(305,700,l),
(50,0,l)
);
},
{
closed = 1;
nodes = (
(565,190,l),
(565,310,l),
(205,310,l),
(205,190,l)
);
},
{
closed = 1;
nodes = (
(995,0,l),
(995,120,l),
(507,120,l),
(497,0,l)
);
},
{
closed = 1;
nodes = (
(995,700,l),
(497,700,l),
(497,580,l),
(995,580,l)
);
},
{
closed = 1;
nodes = (
(945,290,l),
(945,410,l),
(542,410,l),
(542,290,l)
);
}
);
width = 1080;
}
);
unicode = 198;
},
{
glyphname = Eth;
layers = (
{
anchors = (
{
name = top;
position = "{540, 700}";
},
{
name = bottom;
position = "{540, 0}";
}
);
layerId = "1113A850-F682-47D2-ADE2-EC9FE9EA14FB";
shapes = (
{
closed = 1;
nodes = (
(650,270,l),
(650,430,l),
(50,430,l),
(50,270,l)
);
},
{
alignment = -1;
ref = D;
}
);
width = 1080;
},
{
anchors = (
{
name = top;
position = "{540, 700}";
},
{
name = bottom;
position = "{540, 0}";
}
);
layerId = "E9E5670F-9E32-448B-B4B9-C07C5584615B";
shapes = (
{
closed = 1;
nodes = (
(670,280,l),
(670,400,l),
(70,400,l),
(70,280,l)
);
},
{
alignment = -1;
ref = D;
}
);
width = 1080;
}
);
unicode = 208;
},
{
glyphname = multiply;
widthMetricsKey = n;
layers = (
{
layerId = "1113A850-F682-47D2-ADE2-EC9FE9EA14FB";
shapes = (
{
closed = 1;
nodes = (
(960,518,l),
(795,644,l),
(120,182,l),
(285,56,l)
);
},
{
closed = 1;
nodes = (
(120,518,l),
(795,56,l),
(960,182,l),
(285,644,l)
);
}
);
width = 1080;
},
{
layerId = "E9E5670F-9E32-448B-B4B9-C07C5584615B";
shapes = (
{
closed = 1;
nodes = (
(940,548,l),
(865,644,l),
(140,152,l),
(215,56,l)
);
},
{
closed = 1;
nodes = (
(140,548,l),
(865,56,l),
(940,152,l),
(215,644,l)
);
}
);
width = 1080;
}
);
unicode = 215;
},
{
glyphname = divide;
layers = (
{
layerId = "1113A850-F682-47D2-ADE2-EC9FE9EA14FB";
shapes = (
{
closed = 1;
nodes = (
(405,50,l),
(675,50,l),
(675,200,l),
(405,200,l)
);
},
{
closed = 1;
nodes = (
(405,500,l),
(675,500,l),
(675,650,l),
(405,650,l)
);
},
{
closed = 1;
nodes = (
(940,280,l),
(940,420,l),
(140,420,l),
(140,280,l)
);
}
);
width = 1080;
},
{
layerId = "E9E5670F-9E32-448B-B4B9-C07C5584615B";
shapes = (
{
closed = 1;
nodes = (
(455,50,l),
(625,50,l),
(625,190,l),
(455,190,l)
);
},
{
closed = 1;
nodes = (
(455,510,l),
(625,510,l),
(625,650,l),
(455,650,l)
);
},
{
closed = 1;
nodes = (
(940,290,l),
(940,410,l),
(140,410,l),
(140,290,l)
);
}
);
width = 1080;
}
);
unicode = 247;
},
{
glyphname = Oslash;
layers = (
{
anchors = (
{
name = top;
position = "{540, 700}";
},
{
name = bottom;
position = "{540, 0}";
},
{
name = top2;
position = "{750, 700}";
}
);
layerId = "1113A850-F682-47D2-ADE2-EC9FE9EA14FB";
shapes = (
{
closed = 1;
nodes = (
(90,160,l),
(250,0,l),
(830,0,l),
(990,160,l),
(990,540,l),
(830,700,l),
(250,700,l),
(90,540,l)
);
},
{
closed = 1;
nodes = (
(300,150,l),
(300,550,l),
(780,550,l),
(780,150,l)
);
},
{
closed = 1;
nodes = (
(948,750,l),
(40,82,l),
(132,-50,l),
(1040,618,l)
);
}
);
width = 1080;
},
{
anchors = (
{
name = top;
position = "{540, 700}";
},
{
name = bottom;
position = "{540, 0}";
},
{
name = top2;
position = "{840, 700}";
}
);
layerId = "E9E5670F-9E32-448B-B4B9-C07C5584615B";
shapes = (
{
closed = 1;
nodes = (
(110,120,l),
(230,0,l),
(850,0,l),
(970,120,l),
(970,580,l),
(850,700,l),
(230,700,l),
(110,580,l)
);
},
{
closed = 1;
nodes = (
(240,120,l),
(240,580,l),
(840,580,l),
(840,120,l)
);
},
{
closed = 1;
nodes = (
(958,750,l),
(50,42,l),
(122,-50,l),
(1030,658,l)
);
}
);
width = 1080;
}
);
unicode = 216;
},
{
glyphname = Thorn;
widthMetricsKey = n;
layers = (
{
layerId = "1113A850-F682-47D2-ADE2-EC9FE9EA14FB";
shapes = (
{
closed = 1;
nodes = (
(300,270,l),
(300,110,l),
(830,110,l),
(990,270,l),
(990,460,l),
(830,620,l),
(300,620,l),
(300,460,l),
(760,460,l),
(760,270,l)
);
},
{
closed = 1;
nodes = (
(330,700,l),
(100,700,l),
(100,0,l),
(330,0,l)
);
}
);
width = 1080;
},
{
layerId = "E9E5670F-9E32-448B-B4B9-C07C5584615B";
shapes = (
{
closed = 1;
nodes = (
(200,240,l),
(200,120,l),
(850,120,l),
(970,240,l),
(970,480,l),
(850,600,l),
(200,600,l),
(200,480,l),
(840,480,l),
(840,240,l)
);
},
{
closed = 1;
nodes = (
(250,700,l),
(120,700,l),
(120,0,l),
(250,0,l)
);
}
);
width = 1080;
}
);
unicode = 222;
},
{
glyphname = thorn;
layers = (
{
layerId = "1113A850-F682-47D2-ADE2-EC9FE9EA14FB";
shapes = (
{
closed = 1;
nodes = (
(335,160,l),
(105,160,l),
(105,-150,l),
(335,-150,l)
);
},
{
alignment = -1;
pos = (-5,0);
ref = b;
}
);
width = 1080;
},
{
layerId = "E9E5670F-9E32-448B-B4B9-C07C5584615B";
shapes = (
{
closed = 1;
nodes = (
(255,120,l),
(125,120,l),
(125,-150,l),
(255,-150,l)
);
},
{
alignment = -1;
pos = (-5,0);
ref = b;
}
);
width = 1080;
}
);
unicode = 254;
},
